<?xml version="1.0" encoding="UTF-8" standalone="no"?>
<!-- Created with Inkscape (http://www.inkscape.org/) -->

<svg
   width="195.13156mm"
   height="5.0450859mm"
   viewBox="0 0 195.13157 5.0450859"
   version="1.1"
   id="svg1"
   xmlns="http://www.w3.org/2000/svg"
   xmlns:svg="http://www.w3.org/2000/svg">
  <defs
     id="defs1" />
  <path
     d="m 141.27282,4.0721228 c 0.80504,0 1.07174,-0.49389 1.07174,-1.0964358 V 0.76799871 h -1.76812 V 1.1137217 h 1.35819 v 1.827393 c 0,0.5334012 -0.20743,0.7704684 -0.67169,0.7704684 -0.25188,0 -0.51364,-0.1382892 -0.69638,-0.4296843 l -0.25683,0.2518839 c 0.22226,0.3704175 0.60255,0.5383401 0.96309,0.5383401 z m 3.08188,0 c 0.63218,0 1.18533,-0.4593177 1.18533,-1.2544806 0,-0.8050407 -0.55315,-1.2643584 -1.18533,-1.2643584 -0.63218,0 -1.18534,0.4593177 -1.18534,1.2643584 0,0.7951629 0.55316,1.2544806 1.18534,1.2544806 z m 0,-0.3358452 c -0.45932,0 -0.76553,-0.3704175 -0.76553,-0.9186354 0,-0.5531568 0.30621,-0.9285132 0.76553,-0.9285132 0.45931,0 0.76553,0.3753564 0.76553,0.9285132 0,0.5482179 -0.30622,0.9186354 -0.76553,0.9186354 z m 2.12866,1.3088085 c 0.54328,0 0.83962,-0.3605397 1.01742,-0.8346741 l 1.05692,-2.5978614 h -0.38523 l -0.52353,1.3285641 c -0.079,0.2173116 -0.17286,0.4691955 -0.25682,0.6963849 h -0.0198 c -0.0988,-0.2321283 -0.2025,-0.4840122 -0.29634,-0.6963849 L 146.4883,1.6125506 h -0.40993 l 1.12113,2.4052443 -0.0741,0.1778004 c -0.11853,0.296334 -0.32103,0.5136456 -0.65687,0.5136456 -0.0741,0 -0.15311,-0.014817 -0.21731,-0.034572 l -0.084,0.3210285 c 0.084,0.029633 0.2025,0.049389 0.31609,0.049389 z m 3.84741,-0.9729633 c 0.68651,0 1.0668,-0.3259674 1.0668,-0.7161405 0,-0.3654786 -0.19262,-0.5679735 -0.99272,-0.740835 -0.48895,-0.1037169 -0.69638,-0.1926171 -0.69638,-0.4000509 0,-0.1827393 0.14323,-0.345723 0.55315,-0.345723 0.30622,0 0.58279,0.098778 0.80505,0.2518839 l 0.19755,-0.2617617 c -0.23707,-0.1629837 -0.60254,-0.3062118 -0.96802,-0.3062118 -0.65688,0 -0.99766,0.296334 -0.99766,0.6815682 0,0.3605397 0.31609,0.5729124 0.93839,0.7013238 0.65193,0.1333503 0.75071,0.2617617 0.75071,0.444501 0,0.2024949 -0.20249,0.3753564 -0.60748,0.3753564 -0.4445,0 -0.76553,-0.1284114 -1.04211,-0.3259674 l -0.18768,0.2667006 c 0.2914,0.2024949 0.7112,0.3753564 1.1804,0.3753564 z m 3.37821,0 c 0.30127,0 0.5334,-0.064206 0.75071,-0.1432281 l -0.0889,-0.296334 c -0.17286,0.064206 -0.35066,0.1086558 -0.57785,0.1086558 -0.46426,0 -0.60748,-0.2271894 -0.60748,-0.6568737 V 1.9434569 h 1.18039 V 1.6125506 h -1.18039 V 0.84208221 h -0.33585 l -0.0543,0.77046839 -0.69144,0.024694 v 0.3062118 h 0.67663 v 1.135947 c 0,0.592668 0.22718,0.9927189 0.92851,0.9927189 z m 2.57811,-0.059267 h 0.40499 V 1.6125506 h -1.52119 v 0.3309063 h 1.1162 z m 0.15804,-2.9040732 c 0.18274,0 0.32597,-0.12347249 0.32597,-0.31608959 0,-0.1876782 -0.14323,-0.3160896 -0.32597,-0.3160896 -0.18274,0 -0.32597,0.1284114 -0.32597,0.3160896 0,0.1926171 0.14323,0.31608959 0.32597,0.31608959 z m 2.95347,2.96334 c 0.3556,0 0.6865,-0.1382892 0.9532,-0.3753564 l -0.18274,-0.2617617 c -0.19755,0.1679226 -0.4445,0.3012729 -0.74083,0.3012729 -0.55316,0 -0.92358,-0.3704175 -0.92358,-0.9186354 0,-0.5531568 0.3803,-0.9285132 0.93346,-0.9285132 0.25188,0 0.45931,0.1037169 0.65687,0.2765784 l 0.2025,-0.2617617 c -0.19756,-0.1926171 -0.48402,-0.3506619 -0.87419,-0.3506619 -0.72602,0 -1.33844,0.4593177 -1.33844,1.2643584 0,0.7951629 0.56303,1.2544806 1.31375,1.2544806 z m 1.778,-0.059267 h 0.40499 V 3.3609212 l 0.56797,-0.5580957 0.88407,1.2100305 h 0.45438 l -1.08656,-1.4569755 0.95814,-0.9433299 h -0.46425 l -1.29399,1.2643584 h -0.0198 V 0.49635921 h -0.40499 z m 7.11202,0.059267 c 0.3556,0 0.68651,-0.1382892 0.95321,-0.3753564 l -0.18274,-0.2617617 c -0.19756,0.1679226 -0.4445,0.3012729 -0.74083,0.3012729 -0.55316,0 -0.92358,-0.3704175 -0.92358,-0.9186354 0,-0.5531568 0.3803,-0.9285132 0.93345,-0.9285132 0.25189,0 0.45932,0.1037169 0.65688,0.2765784 l 0.20249,-0.2617617 c -0.19755,-0.1926171 -0.48401,-0.3506619 -0.87418,-0.3506619 -0.72602,0 -1.33845,0.4593177 -1.33845,1.2643584 0,0.7951629 0.56304,1.2544806 1.31375,1.2544806 z m 2.73615,0 c 0.63218,0 1.18534,-0.4593177 1.18534,-1.2544806 0,-0.8050407 -0.55316,-1.2643584 -1.18534,-1.2643584 -0.63218,0 -1.18533,0.4593177 -1.18533,1.2643584 0,0.7951629 0.55315,1.2544806 1.18533,1.2544806 z m 0,-0.3358452 c -0.45931,0 -0.76553,-0.3704175 -0.76553,-0.9186354 0,-0.5531568 0.30622,-0.9285132 0.76553,-0.9285132 0.45932,0 0.76553,0.3753564 0.76553,0.9285132 0,0.5482179 -0.30621,0.9186354 -0.76553,0.9186354 z m 1.94099,0.2765784 h 0.40499 V 2.3385689 c 0.28152,-0.2913951 0.47414,-0.4346232 0.76059,-0.4346232 0.39511,0 0.55316,0.2173116 0.55316,0.6716904 V 4.012856 h 0.40499 V 2.5213082 c 0,-0.6321792 -0.26176,-0.9680244 -0.82974,-0.9680244 -0.37535,0 -0.65193,0.2024949 -0.90382,0.4691955 h -0.0197 l -0.0346,-0.4099287 h -0.33585 z m 2.96335,0 h 0.40499 V 2.3385689 c 0.28151,-0.2913951 0.47413,-0.4346232 0.76059,-0.4346232 0.39511,0 0.55315,0.2173116 0.55315,0.6716904 V 4.012856 h 0.40499 V 2.5213082 c 0,-0.6321792 -0.26176,-0.9680244 -0.82973,-0.9680244 -0.37536,0 -0.65194,0.2024949 -0.90382,0.4691955 h -0.0198 l -0.0346,-0.4099287 h -0.33584 z m 4.07459,-2.1385437 c 0.40993,0 0.68157,0.2420061 0.71614,0.7358961 h -1.53106 c 0.0741,-0.4741344 0.41981,-0.7358961 0.81492,-0.7358961 z m 0.0593,2.1978105 c 0.38523,0 0.69144,-0.1284114 0.92851,-0.2864562 L 180.84331,3.518966 c -0.21731,0.1382892 -0.4445,0.2271894 -0.73095,0.2271894 -0.49883,0 -0.88407,-0.2765784 -0.93346,-0.8198574 h 1.8916 c 0.01,-0.064206 0.0198,-0.1531059 0.0198,-0.246945 0,-0.6766293 -0.40499,-1.1260692 -1.09644,-1.1260692 -0.64206,0 -1.22485,0.4741344 -1.22485,1.2544806 0,0.8001018 0.57292,1.2643584 1.294,1.2643584 z m 3.04236,0 c 0.3556,0 0.68651,-0.1382892 0.95321,-0.3753564 L 183.8758,3.4350047 c -0.19756,0.1679226 -0.4445,0.3012729 -0.74084,0.3012729 -0.55315,0 -0.92357,-0.3704175 -0.92357,-0.9186354 0,-0.5531568 0.38029,-0.9285132 0.93345,-0.9285132 0.25188,0 0.45932,0.1037169 0.65687,0.2765784 l 0.2025,-0.2617617 c -0.19756,-0.1926171 -0.48401,-0.3506619 -0.87419,-0.3506619 -0.72601,0 -1.33844,0.4593177 -1.33844,1.2643584 0,0.7951629 0.56304,1.2544806 1.31375,1.2544806 z m 3.20041,0 c 0.30127,0 0.5334,-0.064206 0.75071,-0.1432281 l -0.0889,-0.296334 c -0.17286,0.064206 -0.35066,0.1086558 -0.57785,0.1086558 -0.46425,0 -0.60748,-0.2271894 -0.60748,-0.6568737 V 1.9434569 h 1.18039 V 1.6125506 h -1.18039 V 0.84208221 h -0.33585 l -0.0543,0.77046839 -0.69144,0.024694 v 0.3062118 h 0.67663 v 1.135947 c 0,0.592668 0.22719,0.9927189 0.92851,0.9927189 z m 2.58799,-2.1978105 c 0.40992,0 0.68156,0.2420061 0.71614,0.7358961 h -1.53106 c 0.0741,-0.4741344 0.4198,-0.7358961 0.81492,-0.7358961 z m 0.0593,2.1978105 c 0.38524,0 0.69145,-0.1284114 0.92852,-0.2864562 L 189.73334,3.518966 c -0.21731,0.1382892 -0.4445,0.2271894 -0.73096,0.2271894 -0.49883,0 -0.88406,-0.2765784 -0.93345,-0.8198574 h 1.8916 c 0.01,-0.064206 0.0197,-0.1531059 0.0197,-0.246945 0,-0.6766293 -0.40499,-1.1260692 -1.09643,-1.1260692 -0.64206,0 -1.22485,0.4741344 -1.22485,1.2544806 0,0.8001018 0.57291,1.2643584 1.29399,1.2643584 z m 2.67195,0 c 0.29633,0 0.58279,-0.1728615 0.78034,-0.3753564 h 0.0148 l 0.0346,0.3160896 h 0.33585 V 0.49635921 h -0.40499 V 1.4199335 l 0.0198,0.444501 h -0.0148 c -0.20744,-0.197556 -0.42969,-0.3111507 -0.71614,-0.3111507 -0.56798,0 -1.0915,0.4840122 -1.0915,1.2643584 0,0.8001018 0.41487,1.2544806 1.04211,1.2544806 z m 0.084,-0.3407841 c -0.4445,0 -0.70626,-0.345723 -0.70626,-0.9186354 0,-0.5482179 0.33584,-0.9186354 0.75071,-0.9186354 0.20743,0 0.41487,0.079022 0.63218,0.2815173 V 3.370799 c -0.21237,0.2370672 -0.43956,0.3605397 -0.67663,0.3605397 z m 3.02261,0.3407841 c 0.22225,0 0.40005,-0.1679226 0.40005,-0.4148676 0,-0.2518839 -0.1778,-0.4198065 -0.40005,-0.4198065 -0.22225,0 -0.40005,0.1679226 -0.40005,0.4198065 0,0.246945 0.1778,0.4148676 0.40005,0.4148676 z"
     id="text4"
     style="font-size:4.9389px;line-height:1.1;font-family:'Source Code Pro';-inkscape-font-specification:'Source Code Pro';text-align:center;text-anchor:middle;fill:#ffffff;stroke-linecap:square;stroke-miterlimit:35.2;stroke-opacity:0.988235;paint-order:stroke fill markers"
     aria-label="Joystick connected." />
  <path
     style="font-size:4.9389px;line-height:1.1;font-family:'Source Code Pro';-inkscape-font-specification:'Source Code Pro';text-align:center;text-anchor:middle;fill:#abb2b4;stroke-linecap:square;stroke-miterlimit:35.2;stroke-opacity:0.988235;paint-order:stroke fill markers"
     d="m 17.491223,4.2869653 h 1.368075 V 4.054837 H 17.81719 V 0.2716396 h 1.042108 V 0.0395113 h -1.368075 z m 2.321285,-0.7507128 h 2.024949 V 3.1855906 H 21.032416 V 0.6420571 h 0.805041 v -0.345723 h -2.024949 v 0.345723 h 0.805041 v 2.5435335 h -0.805041 z m 2.953464,0 h 0.40499 V 1.8619654 c 0.281517,-0.2913951 0.474134,-0.4346232 0.76059,-0.4346232 0.395112,0 0.553157,0.2173116 0.553157,0.6716904 v 1.4372199 h 0.40499 V 2.0447047 c 0,-0.6321792 -0.261762,-0.9680244 -0.829735,-0.9680244 -0.375357,0 -0.651935,0.2024949 -0.903819,0.4691955 h -0.01975 l -0.03457,-0.4099287 h -0.335845 z m 2.963342,1.0124745 h 0.40499 V 3.7387474 l -0.01976,-0.4543788 h 0.01482 c 0.212373,0.197556 0.49389,0.3111507 0.716141,0.3111507 0.577851,0 1.091497,-0.4790733 1.091497,-1.2939918 0,-0.7457739 -0.345723,-1.2248472 -0.992719,-1.2248472 -0.296334,0 -0.607485,0.1531059 -0.829736,0.3654786 h -0.01482 l -0.03457,-0.3062118 h -0.335845 z m 1.047047,-1.2939918 c -0.162984,0 -0.414868,-0.079022 -0.642057,-0.2815173 V 1.7780041 c 0.246945,-0.246945 0.49389,-0.3605397 0.706263,-0.3605397 0.479073,0 0.676629,0.3556008 0.676629,0.8840631 0,0.592668 -0.311151,0.9532077 -0.740835,0.9532077 z m 2.671947,0.3407841 c 0.370417,0 0.651934,-0.197556 0.893941,-0.4790733 h 0.01975 l 0.03457,0.4198065 h 0.330907 V 1.1359471 h -0.40499 v 1.6644093 c -0.266701,0.3111507 -0.469196,0.444501 -0.745774,0.444501 -0.400051,0 -0.553157,-0.2173116 -0.553157,-0.6716904 V 1.1359471 h -0.409928 v 1.4915478 c 0,0.6321792 0.261761,0.9680244 0.834674,0.9680244 z m 3.694299,0 c 0.301272,0 0.533401,-0.064206 0.750712,-0.1432281 l -0.0889,-0.296334 c -0.172861,0.064206 -0.350662,0.1086558 -0.577851,0.1086558 -0.464257,0 -0.607485,-0.2271894 -0.607485,-0.6568737 V 1.4668534 H 33.79948 V 1.1359471 H 32.619083 V 0.3654787 h -0.335845 l -0.05433,0.7704684 -0.691446,0.024694 v 0.3062118 h 0.676629 v 1.135947 c 0,0.592668 0.22719,0.9927189 0.928514,0.9927189 z m 1.373016,-0.059267 h 0.385235 V 1.9162933 c 0,-0.3160896 -0.03951,-0.8692464 -0.06914,-1.1458248 h 0.0099 l 0.187678,0.6321792 0.454379,1.2742362 h 0.296334 l 0.464256,-1.2742362 0.18274,-0.6321792 h 0.01482 c -0.01976,0.2765784 -0.06914,0.8297352 -0.06914,1.1458248 v 1.6199592 h 0.395112 V 0.2963341 h -0.503768 l -0.459318,1.382892 -0.153106,0.5235234 h -0.01975 L 35.47377,1.6792261 35.019391,0.2963341 h -0.503768 z m 3.82271,0.059267 c 0.340784,0 0.681568,-0.1778004 0.948269,-0.3852342 h 0.01482 l 0.03457,0.3259674 h 0.330906 V 2.0644603 c 0,-0.5976069 -0.31609,-0.98778 -0.972963,-0.98778 -0.419807,0 -0.824797,0.1876782 -1.066803,0.345723 l 0.158045,0.2765784 c 0.22225,-0.1382892 0.528462,-0.2864562 0.839613,-0.2864562 0.464257,0 0.62724,0.2765784 0.637118,0.6025458 -1.239664,0.098778 -1.738493,0.3605397 -1.738493,0.8988798 0,0.4296843 0.365479,0.6815682 0.814919,0.6815682 z m 0.108656,-0.3259674 c -0.276579,0 -0.528463,-0.1135947 -0.528463,-0.3852342 0,-0.3160896 0.31609,-0.5185845 1.343381,-0.6025458 v 0.6321792 c -0.271639,0.2271894 -0.543279,0.3556008 -0.814918,0.3556008 z m 2.099035,0.2667006 h 0.40499 V 1.8619654 c 0.281517,-0.2913951 0.474134,-0.4346232 0.76059,-0.4346232 0.395112,0 0.553157,0.2173116 0.553157,0.6716904 v 1.4372199 h 0.40499 V 2.0447047 c 0,-0.6321792 -0.261762,-0.9680244 -0.829735,-0.9680244 -0.375357,0 -0.651935,0.2024949 -0.903819,0.4691955 h -0.01976 l -0.03457,-0.4099287 h -0.335845 z m 3.718994,0.059267 c 0.340784,0 0.681568,-0.1778004 0.948269,-0.3852342 h 0.01482 l 0.03457,0.3259674 h 0.330906 V 2.0644603 c 0,-0.5976069 -0.316089,-0.98778 -0.972963,-0.98778 -0.419807,0 -0.824796,0.1876782 -1.066802,0.345723 l 0.158044,0.2765784 c 0.222251,-0.1382892 0.528463,-0.2864562 0.839613,-0.2864562 0.464257,0 0.627241,0.2765784 0.637118,0.6025458 -1.239663,0.098778 -1.738492,0.3605397 -1.738492,0.8988798 0,0.4296843 0.365478,0.6815682 0.814918,0.6815682 z m 0.108656,-0.3259674 c -0.276578,0 -0.528462,-0.1135947 -0.528462,-0.3852342 0,-0.3160896 0.316089,-0.5185845 1.34338,-0.6025458 v 0.6321792 c -0.271639,0.2271894 -0.543279,0.3556008 -0.814918,0.3556008 z m 3.10163,1.3730142 c 0.814918,0 1.333503,-0.3901731 1.333503,-0.839613 0,-0.4049898 -0.296334,-0.5630346 -0.913697,-0.5630346 h -0.53834 c -0.316089,0 -0.498829,-0.0889 -0.498829,-0.2765784 0,-0.1135947 0.06915,-0.2024949 0.187679,-0.2765784 0.13335,0.059267 0.281517,0.0889 0.404989,0.0889 0.518585,0 0.928514,-0.3111507 0.928514,-0.8247963 0,-0.1926171 -0.09384,-0.3704175 -0.202495,-0.4840122 h 0.622301 V 1.1359471 H 47.80621 c -0.103717,-0.039511 -0.217311,-0.059267 -0.355601,-0.059267 -0.508706,0 -0.94333,0.3358452 -0.94333,0.8593686 0,0.2864562 0.133351,0.4988289 0.296334,0.6223014 v 0.019756 c -0.182739,0.1234725 -0.286456,0.296334 -0.286456,0.4494399 0,0.2024949 0.118534,0.3259674 0.246945,0.395112 v 0.019756 c -0.256823,0.148167 -0.395112,0.3407841 -0.395112,0.5334012 0,0.4247454 0.40499,0.6667515 1.106314,0.6667515 z m -0.0247,-2.1385437 c -0.301273,0 -0.553156,-0.2222505 -0.553156,-0.5679735 0,-0.3358452 0.251883,-0.5630346 0.553156,-0.5630346 0.306212,0 0.553157,0.2271894 0.553157,0.5630346 0,0.345723 -0.246945,0.5679735 -0.553157,0.5679735 z m 0.05433,1.8422097 c -0.513645,0 -0.785285,-0.1580448 -0.785285,-0.4099287 0,-0.1382892 0.07902,-0.2765784 0.306212,-0.4000509 0.103717,0.029633 0.227189,0.039511 0.365479,0.039511 h 0.469195 c 0.365479,0 0.548218,0.064206 0.548218,0.2913951 0,0.246945 -0.345723,0.4790733 -0.903819,0.4790733 z M 50.5473,1.3977088 c 0.409929,0 0.681569,0.2420061 0.716141,0.7358961 H 49.732382 C 49.806465,1.6594705 50.152188,1.3977088 50.5473,1.3977088 Z m 0.05927,2.1978105 c 0.385234,0 0.691446,-0.1284114 0.928513,-0.2864562 L 51.386913,3.0423625 c -0.217311,0.1382892 -0.444501,0.2271894 -0.730957,0.2271894 -0.498829,0 -0.884063,-0.2765784 -0.933452,-0.8198574 h 1.891599 c 0.0099,-0.064206 0.01975,-0.1531059 0.01975,-0.246945 0,-0.6766293 -0.404989,-1.1260692 -1.096435,-1.1260692 -0.642057,0 -1.224848,0.4741344 -1.224848,1.2544806 0,0.8001018 0.572913,1.2643584 1.293992,1.2643584 z m 2.054587,-0.059267 h 0.40499 V 2.128666 c 0.286456,-0.4988289 0.62724,-0.6865071 0.98778,-0.6865071 0.187678,0 0.276578,0.024695 0.444501,0.083961 l 0.09384,-0.3506619 c -0.148167,-0.074083 -0.296334,-0.098778 -0.474134,-0.098778 -0.444501,0 -0.819858,0.2420061 -1.071742,0.6272403 h -0.01482 l -0.03457,-0.5679735 h -0.335845 z m 3.723932,0.059267 c 0.22225,0 0.40005,-0.1679226 0.40005,-0.4148676 0,-0.2518839 -0.1778,-0.4198065 -0.40005,-0.4198065 -0.222251,0 -0.400051,0.1679226 -0.400051,0.4198065 0,0.246945 0.1778,0.4148676 0.400051,0.4148676 z m 3.19053,0 c 0.355601,0 0.686507,-0.1382892 0.953207,-0.3753564 L 60.346084,2.9584012 c -0.197556,0.1679226 -0.444501,0.3012729 -0.740835,0.3012729 -0.553157,0 -0.923574,-0.3704175 -0.923574,-0.9186354 0,-0.5531568 0.380295,-0.9285132 0.933452,-0.9285132 0.251884,0 0.459318,0.1037169 0.656874,0.2765784 L 60.474496,1.4273422 C 60.27694,1.2347251 59.990483,1.0766803 59.60031,1.0766803 c -0.726018,0 -1.338442,0.4593177 -1.338442,1.2643584 0,0.7951629 0.563035,1.2544806 1.313748,1.2544806 z m 1.713803,0.9532077 h 0.404989 V 3.7387474 l -0.01976,-0.4543788 h 0.01482 c 0.212372,0.197556 0.49389,0.3111507 0.71614,0.3111507 0.577851,0 1.091497,-0.4790733 1.091497,-1.2939918 0,-0.7457739 -0.345723,-1.2248472 -0.992719,-1.2248472 -0.296334,0 -0.607485,0.1531059 -0.829735,0.3654786 h -0.01482 l -0.03457,-0.3062118 h -0.335845 z m 1.047046,-1.2939918 c -0.162983,0 -0.414867,-0.079022 -0.642057,-0.2815173 V 1.7780041 c 0.246945,-0.246945 0.49389,-0.3605397 0.706263,-0.3605397 0.479073,0 0.676629,0.3556008 0.676629,0.8840631 0,0.592668 -0.31115,0.9532077 -0.740835,0.9532077 z m 1.916294,1.2939918 h 0.40499 V 3.7387474 l -0.01975,-0.4543788 h 0.01482 c 0.212373,0.197556 0.49389,0.3111507 0.716141,0.3111507 0.577851,0 1.091497,-0.4790733 1.091497,-1.2939918 0,-0.7457739 -0.345723,-1.2248472 -0.992719,-1.2248472 -0.296334,0 -0.607485,0.1531059 -0.829735,0.3654786 h -0.01482 l -0.03457,-0.3062118 h -0.335846 z m 1.047047,-1.2939918 c -0.162984,0 -0.414867,-0.079022 -0.642057,-0.2815173 V 1.7780041 c 0.246945,-0.246945 0.49389,-0.3605397 0.706263,-0.3605397 0.479073,0 0.676629,0.3556008 0.676629,0.8840631 0,0.592668 -0.311151,0.9532077 -0.740835,0.9532077 z m 2.938646,-1.4273421 c 0.222251,0 0.400051,-0.1679226 0.400051,-0.4148676 0,-0.2518839 -0.1778,-0.4198065 -0.400051,-0.4198065 -0.22225,0 -0.40005,0.1679226 -0.40005,0.4198065 0,0.246945 0.1778,0.4148676 0.40005,0.4148676 z m 0,1.7681262 c 0.222251,0 0.400051,-0.1679226 0.400051,-0.4148676 0,-0.2518839 -0.1778,-0.4198065 -0.400051,-0.4198065 -0.22225,0 -0.40005,0.1679226 -0.40005,0.4198065 0,0.246945 0.1778,0.4148676 0.40005,0.4148676 z m 3.042367,-0.059267 h 0.40499 V 1.1359471 h -1.521181 v 0.3309063 h 1.116191 z m 0.158045,-2.9040732 c 0.18274,0 0.325968,-0.1234725 0.325968,-0.3160896 C 71.764832,0.1284115 71.621604,1.0299683e-7 71.438864,1.0299683e-7 71.256125,1.0299683e-7 71.112897,0.1284115 71.112897,0.3160897 c 0,0.1926171 0.143228,0.3160896 0.325967,0.3160896 z m 2.775663,2.96334 c 0.686507,0 1.066802,-0.3259674 1.066802,-0.7161405 0,-0.3654786 -0.192617,-0.5679735 -0.992719,-0.740835 -0.488951,-0.1037169 -0.696385,-0.1926171 -0.696385,-0.4000509 0,-0.1827393 0.143228,-0.345723 0.553157,-0.345723 0.306212,0 0.58279,0.098778 0.805041,0.2518839 L 75.147979,1.3828921 C 74.910912,1.2199084 74.545433,1.0766803 74.179954,1.0766803 c -0.656873,0 -0.997657,0.296334 -0.997657,0.6815682 0,0.3605397 0.316089,0.5729124 0.938391,0.7013238 0.651934,0.1333503 0.750712,0.2617617 0.750712,0.444501 0,0.2024949 -0.202494,0.3753564 -0.607484,0.3753564 -0.444501,0 -0.76553,-0.1284114 -1.042108,-0.3259674 L 73.03413,3.2201629 c 0.291395,0.2024949 0.711201,0.3753564 1.180397,0.3753564 z m 2.795418,0 c 0.805041,0 1.071741,-0.49389 1.071741,-1.0964358 V 0.2913952 H 76.31356 v 0.345723 h 1.358198 v 1.827393 c 0,0.5334012 -0.207434,0.7704684 -0.671691,0.7704684 -0.251884,0 -0.513645,-0.1382892 -0.696385,-0.4296843 l -0.256823,0.2518839 c 0.222251,0.3704175 0.602546,0.5383401 0.963086,0.5383401 z m 3.081878,0 c 0.632179,0 1.185336,-0.4593177 1.185336,-1.2544806 0,-0.8050407 -0.553157,-1.2643584 -1.185336,-1.2643584 -0.632179,0 -1.185336,0.4593177 -1.185336,1.2643584 0,0.7951629 0.553157,1.2544806 1.185336,1.2544806 z m 0,-0.3358452 c -0.459318,0 -0.765529,-0.3704175 -0.765529,-0.9186354 0,-0.5531568 0.306211,-0.9285132 0.765529,-0.9285132 0.459318,0 0.76553,0.3753564 0.76553,0.9285132 0,0.5482179 -0.306212,0.9186354 -0.76553,0.9186354 z m 3.042359,0.2765784 h 0.40499 V 1.1359471 h -1.521181 v 0.3309063 h 1.116191 z m 0.158045,-2.9040732 c 0.18274,0 0.325968,-0.1234725 0.325968,-0.3160896 C 83.618195,0.1284115 83.474967,1.0299683e-7 83.292227,1.0299683e-7 83.109488,1.0299683e-7 82.96626,0.1284115 82.96626,0.3160897 c 0,0.1926171 0.143228,0.3160896 0.325967,0.3160896 z m 2.77567,2.96334 c 0.686508,0 1.066803,-0.3259674 1.066803,-0.7161405 0,-0.3654786 -0.192617,-0.5679735 -0.992719,-0.740835 -0.488951,-0.1037169 -0.696385,-0.1926171 -0.696385,-0.4000509 0,-0.1827393 0.143228,-0.345723 0.553157,-0.345723 0.306212,0 0.58279,0.098778 0.805041,0.2518839 L 87.00135,1.3828921 C 86.764282,1.2199084 86.398804,1.0766803 86.033325,1.0766803 c -0.656874,0 -0.997658,0.296334 -0.997658,0.6815682 0,0.3605397 0.31609,0.5729124 0.938391,0.7013238 0.651935,0.1333503 0.750713,0.2617617 0.750713,0.444501 0,0.2024949 -0.202495,0.3753564 -0.607485,0.3753564 -0.444501,0 -0.765529,-0.1284114 -1.042107,-0.3259674 L 84.8875,3.2201629 c 0.291395,0.2024949 0.711202,0.3753564 1.180397,0.3753564 z m 3.378209,0 c 0.301273,0 0.533401,-0.064206 0.750713,-0.1432281 l -0.0889,-0.296334 c -0.172861,0.064206 -0.350662,0.1086558 -0.577851,0.1086558 -0.464257,0 -0.607485,-0.2271894 -0.607485,-0.6568737 V 1.4668534 h 1.180397 V 1.1359471 H 88.922582 V 0.3654787 h -0.335845 l -0.05433,0.7704684 -0.691446,0.024694 v 0.3062118 h 0.67663 v 1.135947 c 0,0.592668 0.227189,0.9927189 0.928513,0.9927189 z m 2.578106,-0.059267 h 0.40499 V 1.1359471 h -1.521181 v 0.3309063 h 1.116191 z m 0.158045,-2.9040732 c 0.182739,0 0.325968,-0.1234725 0.325968,-0.3160896 C 92.508225,0.1284115 92.364996,1.0299683e-7 92.182257,1.0299683e-7 91.999518,1.0299683e-7 91.85629,0.1284115 91.85629,0.3160897 c 0,0.1926171 0.143228,0.3160896 0.325967,0.3160896 z m 2.953463,2.96334 c 0.355601,0 0.686507,-0.1382892 0.953208,-0.3753564 L 95.906189,2.9584012 c -0.197556,0.1679226 -0.444501,0.3012729 -0.740835,0.3012729 -0.553157,0 -0.923575,-0.3704175 -0.923575,-0.9186354 0,-0.5531568 0.380296,-0.9285132 0.933452,-0.9285132 0.251884,0 0.459318,0.1037169 0.656874,0.2765784 L 96.0346,1.4273422 C 95.837044,1.2347251 95.550588,1.0766803 95.160415,1.0766803 c -0.726019,0 -1.338442,0.4593177 -1.338442,1.2643584 0,0.7951629 0.563034,1.2544806 1.313747,1.2544806 z m 1.778005,-0.059267 h 0.40499 V 2.8843177 L 97.886688,2.326222 98.770751,3.5362525 H 99.22513 L 98.138572,2.079277 99.096719,1.1359471 H 98.632462 L 97.33847,2.4003055 h -0.01976 V 0.0197557 h -0.40499 z m 4.173375,0.059267 c 0.42968,0 0.74577,-0.1728615 1.00259,-0.4691955 l -0.23213,-0.2518839 c -0.20743,0.2321283 -0.43462,0.3605397 -0.73095,0.3605397 -0.6223,0 -1.02729,-0.5136456 -1.02729,-1.3285641 0,-0.8050407 0.40499,-1.3088085 1.02729,-1.3088085 0.27164,0 0.48401,0.1185336 0.65193,0.296334 l 0.23213,-0.2617617 c -0.18768,-0.2074338 -0.49883,-0.395112 -0.88406,-0.395112 -0.84455,0 -1.452039,0.6371181 -1.452039,1.679226 0,1.0569246 0.612419,1.679226 1.412529,1.679226 z m 2.71146,0 c 0.63218,0 1.18534,-0.4593177 1.18534,-1.2544806 0,-0.8050407 -0.55316,-1.2643584 -1.18534,-1.2643584 -0.63218,0 -1.18534,0.4593177 -1.18534,1.2643584 0,0.7951629 0.55316,1.2544806 1.18534,1.2544806 z m 0,-0.3358452 c -0.45932,0 -0.76553,-0.3704175 -0.76553,-0.9186354 0,-0.5531568 0.30621,-0.9285132 0.76553,-0.9285132 0.45932,0 0.76553,0.3753564 0.76553,0.9285132 0,0.5482179 -0.30621,0.9186354 -0.76553,0.9186354 z m 1.94099,0.2765784 h 0.40499 V 1.8619654 c 0.28152,-0.2913951 0.47413,-0.4346232 0.76059,-0.4346232 0.39511,0 0.55316,0.2173116 0.55316,0.6716904 v 1.4372199 h 0.40499 V 2.0447047 c 0,-0.6321792 -0.26177,-0.9680244 -0.82974,-0.9680244 -0.37536,0 -0.65193,0.2024949 -0.90382,0.4691955 h -0.0198 l -0.0346,-0.4099287 h -0.33584 z m 2.96334,0 h 0.40499 V 1.8619654 c 0.28152,-0.2913951 0.47413,-0.4346232 0.76059,-0.4346232 0.39511,0 0.55316,0.2173116 0.55316,0.6716904 v 1.4372199 h 0.40499 V 2.0447047 c 0,-0.6321792 -0.26176,-0.9680244 -0.82974,-0.9680244 -0.37535,0 -0.65193,0.2024949 -0.90382,0.4691955 h -0.0197 l -0.0346,-0.4099287 h -0.33585 z m 4.07459,-2.1385437 c 0.40993,0 0.68157,0.2420061 0.71614,0.7358961 h -1.53106 c 0.0741,-0.4741344 0.41981,-0.7358961 0.81492,-0.7358961 z m 0.0593,2.1978105 c 0.38523,0 0.69145,-0.1284114 0.92851,-0.2864562 L 113.6171,3.0423625 c -0.21732,0.1382892 -0.4445,0.2271894 -0.73096,0.2271894 -0.49883,0 -0.88406,-0.2765784 -0.93345,-0.8198574 h 1.8916 c 0.01,-0.064206 0.0198,-0.1531059 0.0198,-0.246945 0,-0.6766293 -0.40499,-1.1260692 -1.09643,-1.1260692 -0.64206,0 -1.22485,0.4741344 -1.22485,1.2544806 0,0.8001018 0.57291,1.2643584 1.29399,1.2643584 z m 3.04236,0 c 0.3556,0 0.68651,-0.1382892 0.95321,-0.3753564 l -0.18274,-0.2617617 c -0.19755,0.1679226 -0.4445,0.3012729 -0.74083,0.3012729 -0.55316,0 -0.92358,-0.3704175 -0.92358,-0.9186354 0,-0.5531568 0.3803,-0.9285132 0.93345,-0.9285132 0.25189,0 0.45932,0.1037169 0.65688,0.2765784 l 0.20249,-0.2617617 c -0.19755,-0.1926171 -0.48401,-0.3506619 -0.87418,-0.3506619 -0.72602,0 -1.33844,0.4593177 -1.33844,1.2643584 0,0.7951629 0.56303,1.2544806 1.31374,1.2544806 z m 3.20041,0 c 0.30127,0 0.5334,-0.064206 0.75071,-0.1432281 l -0.0889,-0.296334 c -0.17286,0.064206 -0.35066,0.1086558 -0.57785,0.1086558 -0.46425,0 -0.60748,-0.2271894 -0.60748,-0.6568737 V 1.4668534 h 1.18039 V 1.1359471 H 118.556 V 0.3654787 h -0.33585 l -0.0543,0.7704684 -0.69144,0.024694 v 0.3062118 h 0.67663 v 1.135947 c 0,0.592668 0.22719,0.9927189 0.92851,0.9927189 z m 2.58799,-2.1978105 c 0.40992,0 0.68156,0.2420061 0.71614,0.7358961 h -1.53106 c 0.0741,-0.4741344 0.4198,-0.7358961 0.81492,-0.7358961 z m 0.0593,2.1978105 c 0.38524,0 0.69145,-0.1284114 0.92852,-0.2864562 l -0.14817,-0.2667006 c -0.21731,0.1382892 -0.4445,0.2271894 -0.73096,0.2271894 -0.49883,0 -0.88406,-0.2765784 -0.93345,-0.8198574 h 1.8916 c 0.01,-0.064206 0.0198,-0.1531059 0.0198,-0.246945 0,-0.6766293 -0.40499,-1.1260692 -1.09643,-1.1260692 -0.64206,0 -1.22485,0.4741344 -1.22485,1.2544806 0,0.8001018 0.57291,1.2643584 1.29399,1.2643584 z m 2.67196,0 c 0.29633,0 0.58279,-0.1728615 0.78034,-0.3753564 h 0.0148 l 0.0346,0.3160896 h 0.33585 V 0.0197557 h -0.40499 V 0.94333 l 0.0198,0.444501 h -0.0148 c -0.20743,-0.197556 -0.42968,-0.3111507 -0.71614,-0.3111507 -0.56797,0 -1.09149,0.4840122 -1.09149,1.2643584 0,0.8001018 0.41487,1.2544806 1.04211,1.2544806 z m 0.084,-0.3407841 c -0.4445,0 -0.70627,-0.345723 -0.70627,-0.9186354 0,-0.5482179 0.33585,-0.9186354 0.75072,-0.9186354 0.20743,0 0.41486,0.079022 0.63218,0.2815173 v 1.1952138 c -0.21238,0.2370672 -0.43957,0.3605397 -0.67663,0.3605397 z m 3.0226,-1.4273421 c 0.22225,0 0.40006,-0.1679226 0.40006,-0.4148676 0,-0.2518839 -0.17781,-0.4198065 -0.40006,-0.4198065 -0.22225,0 -0.40005,0.1679226 -0.40005,0.4198065 0,0.246945 0.1778,0.4148676 0.40005,0.4148676 z m 0,1.7681262 c 0.22225,0 0.40006,-0.1679226 0.40006,-0.4148676 0,-0.2518839 -0.17781,-0.4198065 -0.40006,-0.4198065 -0.22225,0 -0.40005,0.1679226 -0.40005,0.4198065 0,0.246945 0.1778,0.4148676 0.40005,0.4148676 z m 3.06212,-1.679226 c 0.43463,0 0.67169,0.2370672 0.67169,0.6667515 0,0.4148676 -0.29139,0.691446 -0.66675,0.691446 -0.45932,0 -0.75071,-0.3259674 -0.80998,-0.9334521 0.25189,-0.3012729 0.55316,-0.4247454 0.80504,-0.4247454 z m 0.005,1.679226 c 0.56304,0 1.05199,-0.4099287 1.05199,-1.0124745 0,-0.6469959 -0.40005,-0.9729633 -0.98284,-0.9729633 -0.31609,0 -0.63712,0.1580448 -0.89394,0.4099287 0.0198,-1.0124745 0.45931,-1.3532586 0.96308,-1.3532586 0.23707,0 0.46426,0.0938391 0.62724,0.246945 l 0.22719,-0.2518839 c -0.20743,-0.1926171 -0.49389,-0.3358452 -0.87912,-0.3358452 -0.68651,0 -1.31869,0.4889511 -1.31869,1.7533095 0,1.0124745 0.51858,1.5162423 1.20509,1.5162423 z m 1.7385,-0.059267 h 2.21756 V 3.1855906 h -1.03717 c -0.18768,0 -0.39017,0.014817 -0.58773,0.029633 0.85937,-0.7803462 1.45204,-1.3680753 1.45204,-1.9607433 0,-0.5580957 -0.39511,-0.9285132 -1.02729,-0.9285132 -0.4445,0 -0.75565,0.1926171 -1.03717,0.4790733 l 0.23213,0.2321283 c 0.20249,-0.2123727 0.45932,-0.3802953 0.75565,-0.3802953 0.46426,0 0.68651,0.2568228 0.68651,0.6173625 0,0.5235234 -0.58773,1.0766802 -1.65453,2.0200101 z m 3.08681,0.7507128 h 1.36807 v -4.247454 h -1.36807 v 0.2321283 h 1.04211 V 4.054837 h -1.04211 z"
     id="text3"
     aria-label="[InputManager.cpp:isJoistickConnected:62]" />
  <path
     style="font-weight:bold;font-size:4.9389px;line-height:1.1;font-family:'Source Code Pro';-inkscape-font-specification:'Source Code Pro';text-align:center;text-anchor:middle;fill:#98c379;stroke-linecap:square;stroke-miterlimit:35.2;stroke-opacity:0.988235;paint-order:stroke fill markers"
     d="M -9.4318384e-8,3.8943226 H 0.933452 c 0.8939409,0 1.5063645,-0.5185845 1.5063645,-1.6248981 0,-1.1063136 -0.6124236,-1.59526466 -1.5508146,-1.59526466 H -9.4318384e-8 Z M 0.7309571,3.3065935 V 1.2618889 h 0.1185336 c 0.5037678,0 0.8445519,0.2370672 0.8445519,1.0075356 0,0.7704684 -0.3407841,1.037169 -0.8445519,1.037169 z M 3.0719977,3.8943226 H 5.2549915 V 3.281899 H 3.8029549 V 2.541064 H 4.9932298 V 1.9335793 H 3.8029549 V 1.2865834 H 5.2056025 V 0.67415984 H 3.0719977 Z m 2.8744417,0 h 1.1754582 c 0.6963849,0 1.234725,-0.2913951 1.234725,-0.9482688 0,-0.4296843 -0.2420061,-0.6716904 -0.7013238,-0.7556517 V 2.1706465 C 8.0355941,2.0718685 8.2084556,1.7607178 8.2084556,1.4742616 8.2084556,0.85689914 7.69481,0.67415984 7.0280585,0.67415984 H 5.9464394 Z M 6.6724577,1.9681516 V 1.2421333 h 0.3259674 c 0.3407841,0 0.4988289,0.093839 0.4988289,0.3309063 0,0.246945 -0.148167,0.395112 -0.5037678,0.395112 z m 0,1.3581975 V 2.491675 h 0.3901731 c 0.4000509,0 0.5827902,0.1185336 0.5827902,0.4000509 0,0.2913951 -0.1876782,0.4346232 -0.5827902,0.4346232 z m 3.3633933,0.6272403 c 0.780346,0 1.155702,-0.4642566 1.155702,-1.2989307 V 0.67415984 H 10.49023 V 2.7287422 c 0,0.3852342 -0.148167,0.5976069 -0.454379,0.5976069 -0.306212,0 -0.4494401,-0.2123727 -0.4494401,-0.5976069 V 0.67415984 H 8.8603926 V 2.6546587 c 0,0.8346741 0.3901731,1.2989307 1.1754584,1.2989307 z m 3.165836,0 c 0.409929,0 0.790224,-0.1876782 1.007536,-0.3901731 v -1.48167 h -1.12113 v 0.592668 h 0.469195 v 0.5531568 c -0.06914,0.064206 -0.192617,0.098778 -0.316089,0.098778 -0.508707,0 -0.76553,-0.3852342 -0.76553,-1.0470468 0,-0.6469959 0.31609,-1.037169 0.735896,-1.037169 0.256823,0 0.40499,0.093839 0.543279,0.2321283 l 0.400051,-0.4494399 c -0.207434,-0.20743376 -0.508707,-0.40992866 -0.94333,-0.40992866 -0.834674,0 -1.486609,0.61242356 -1.486609,1.68910376 0,1.0816191 0.651935,1.6495926 1.476731,1.6495926 z"
     id="text2"
     aria-label="DEBUG" />
</svg>
