<?xml version="1.0" encoding="UTF-8" standalone="no"?>
<!-- Created with Inkscape (http://www.inkscape.org/) -->

<svg
   width="166.87579mm"
   height="4.548727mm"
   viewBox="0 0 166.87579 4.548727"
   version="1.1"
   id="svg1"
   xmlns="http://www.w3.org/2000/svg"
   xmlns:svg="http://www.w3.org/2000/svg">
  <defs
     id="defs1" />
  <path
     d="m 94.762864,3.9301276 c 0.419807,0 0.76553,-0.1679226 0.968024,-0.3753564 V 2.1916348 h -1.027291 v 0.3407841 h 0.646996 v 0.8445519 c -0.123472,0.1185336 -0.335845,0.1926171 -0.563034,0.1926171 -0.637119,0 -0.997658,-0.5136456 -0.997658,-1.3285641 0,-0.8050407 0.400051,-1.30880848 1.007535,-1.30880848 0.311151,0 0.503768,0.12841138 0.661813,0.29633398 l 0.232128,-0.26176168 c -0.182739,-0.1926171 -0.464256,-0.395112 -0.893941,-0.395112 -0.839613,0 -1.43722,0.63217918 -1.43722,1.67922598 0,1.0569246 0.58773,1.679226 1.402648,1.679226 z m 1.960745,-0.059267 h 2.010133 V 3.5201989 H 97.128599 V 0.63094242 h -0.40499 z m 3.447351,-1.8125763 c 0.1136,-0.3605397 0.21732,-0.7161405 0.32103,-1.09149688 h 0.0198 c 0.0988,0.37535638 0.20743,0.73095718 0.32103,1.09149688 l 0.1531,0.49389 h -0.96802 z m -0.987777,1.8125763 h 0.419807 l 0.311151,-0.98778 h 1.175459 l 0.30621,0.98778 h 0.43462 l -1.09149,-3.23991838 h -0.46426 z m 3.234987,0 h 0.81985 c 0.95321,0 1.48167,-0.6025458 1.48167,-1.6347759 0,-1.0272912 -0.52846,-1.60514248 -1.50142,-1.60514248 h -0.8001 z m 0.40992,-0.3358452 V 0.96678762 h 0.36054 c 0.74084,0 1.10632,0.45437878 1.10632,1.26929728 0,0.8198574 -0.36548,1.2989307 -1.10632,1.2989307 z m 6.28229,0.3358452 h 0.40005 V 1.8014617 h 1.00753 V 1.4705554 h -1.00753 V 1.2532438 c 0,-0.39017308 0.1778,-0.62724028 0.60748,-0.62724028 0.20744,0 0.36054,0.0246945 0.5581,0.1135947 l 0.0938,-0.3062118 c -0.22719,-0.0938391 -0.45438,-0.1382892 -0.69145,-0.1382892 -0.66181,0 -0.96802,0.3852342 -0.96802,0.97296328 v 0.2024949 l -0.68651,0.024694 v 0.3062118 h 0.68651 z m 2.9831,0.059267 c 0.34078,0 0.68156,-0.1778004 0.94827,-0.3852342 h 0.0148 l 0.0346,0.3259674 h 0.33091 V 2.3990686 c 0,-0.5976069 -0.31609,-0.98778 -0.97296,-0.98778 -0.41981,0 -0.8248,0.1876782 -1.06681,0.345723 l 0.15805,0.2765784 c 0.22225,-0.1382892 0.52846,-0.2864562 0.83961,-0.2864562 0.46426,0 0.62724,0.2765784 0.63712,0.6025458 -1.23966,0.098778 -1.73849,0.3605397 -1.73849,0.8988798 0,0.4296843 0.36548,0.6815682 0.81492,0.6815682 z m 0.10865,-0.3259674 c -0.27658,0 -0.52846,-0.1135947 -0.52846,-0.3852342 0,-0.3160896 0.31609,-0.5185845 1.34338,-0.6025458 v 0.6321792 c -0.27164,0.2271894 -0.54328,0.3556008 -0.81492,0.3556008 z m 3.20041,0.2667006 h 0.40499 V 1.4705554 h -1.52118 v 0.3309063 h 1.11619 z m 0.15804,-2.90407318 c 0.18274,0 0.32597,-0.1234725 0.32597,-0.3160896 0,-0.1876782 -0.14323,-0.3160896 -0.32597,-0.3160896 -0.18273,0 -0.32596,0.1284114 -0.32596,0.3160896 0,0.1926171 0.14323,0.3160896 0.32596,0.3160896 z m 3.25474,2.96333998 c 0.26176,0 0.41981,-0.049389 0.64206,-0.1432281 l -0.10372,-0.3012729 c -0.16298,0.074084 -0.31115,0.1086558 -0.44944,0.1086558 -0.28645,0 -0.47413,-0.148167 -0.47413,-0.4988289 V 0.35436402 h -1.25942 v 0.3309063 h 0.85443 V 3.0658201 c 0,0.5679735 0.28152,0.8643075 0.79022,0.8643075 z m 2.52378,-2.1978105 c 0.40993,0 0.68157,0.2420061 0.71614,0.7358961 h -1.53106 c 0.0741,-0.4741344 0.41981,-0.7358961 0.81492,-0.7358961 z m 0.0593,2.1978105 c 0.38523,0 0.69145,-0.1284114 0.92851,-0.2864562 l -0.14816,-0.2667006 c -0.21732,0.1382892 -0.4445,0.2271894 -0.73096,0.2271894 -0.49883,0 -0.88406,-0.2765784 -0.93345,-0.8198574 h 1.8916 c 0.01,-0.064206 0.0197,-0.1531059 0.0197,-0.246945 0,-0.6766293 -0.40499,-1.1260692 -1.09643,-1.1260692 -0.64206,0 -1.22485,0.4741344 -1.22485,1.2544806 0,0.8001018 0.57291,1.2643584 1.29399,1.2643584 z m 2.67195,0 c 0.29633,0 0.58279,-0.1728615 0.78034,-0.3753564 h 0.0148 l 0.0346,0.3160896 h 0.33585 V 0.35436402 h -0.40499 V 1.2779383 l 0.0198,0.444501 h -0.0148 c -0.20744,-0.197556 -0.42969,-0.3111507 -0.71615,-0.3111507 -0.56797,0 -1.09149,0.4840122 -1.09149,1.2643584 0,0.8001018 0.41487,1.2544806 1.04211,1.2544806 z m 0.084,-0.3407841 c -0.4445,0 -0.70627,-0.345723 -0.70627,-0.9186354 0,-0.5482179 0.33585,-0.9186354 0.75072,-0.9186354 0.20743,0 0.41486,0.079022 0.63218,0.2815173 v 1.1952138 c -0.21238,0.2370672 -0.43957,0.3605397 -0.67663,0.3605397 z m 6.45021,0.3407841 c 0.30127,0 0.5334,-0.064206 0.75071,-0.1432281 l -0.0889,-0.296334 c -0.17286,0.064206 -0.35066,0.1086558 -0.57785,0.1086558 -0.46426,0 -0.60749,-0.2271894 -0.60749,-0.6568737 V 1.8014617 h 1.1804 V 1.4705554 h -1.1804 V 0.70008702 h -0.33584 l -0.0543,0.77046838 -0.69145,0.024694 v 0.3062118 h 0.67663 v 1.135947 c 0,0.592668 0.22719,0.9927189 0.92852,0.9927189 z m 2.49908,0 c 0.63218,0 1.18534,-0.4593177 1.18534,-1.2544806 0,-0.8050407 -0.55316,-1.2643584 -1.18534,-1.2643584 -0.63218,0 -1.18534,0.4593177 -1.18534,1.2643584 0,0.7951629 0.55316,1.2544806 1.18534,1.2544806 z m 0,-0.3358452 c -0.45932,0 -0.76553,-0.3704175 -0.76553,-0.9186354 0,-0.5531568 0.30621,-0.9285132 0.76553,-0.9285132 0.45932,0 0.76553,0.3753564 0.76553,0.9285132 0,0.5482179 -0.30621,0.9186354 -0.76553,0.9186354 z m 6.00571,0.2765784 h 0.40499 V 1.4705554 h -1.52118 v 0.3309063 h 1.11619 z m 0.15804,-2.90407318 c 0.18274,0 0.32597,-0.1234725 0.32597,-0.3160896 0,-0.1876782 -0.14323,-0.3160896 -0.32597,-0.3160896 -0.18274,0 -0.32596,0.1284114 -0.32596,0.3160896 0,0.1926171 0.14322,0.3160896 0.32596,0.3160896 z m 1.70392,2.90407318 h 0.40499 V 2.1965737 c 0.28152,-0.2913951 0.47414,-0.4346232 0.76059,-0.4346232 0.39512,0 0.55316,0.2173116 0.55316,0.6716904 v 1.4372199 h 0.40499 V 2.379313 c 0,-0.6321792 -0.26176,-0.9680244 -0.82973,-0.9680244 -0.37536,0 -0.65194,0.2024949 -0.90382,0.4691955 h -0.0198 l -0.0346,-0.4099287 h -0.33585 z m 4.06472,0 h 0.40499 V 1.4705554 h -1.52118 v 0.3309063 h 1.11619 z M 145.194,0.96678762 c 0.18274,0 0.32597,-0.1234725 0.32597,-0.3160896 0,-0.1876782 -0.14323,-0.3160896 -0.32597,-0.3160896 -0.18274,0 -0.32596,0.1284114 -0.32596,0.3160896 0,0.1926171 0.14322,0.3160896 0.32596,0.3160896 z m 3.19054,2.96333998 c 0.30127,0 0.5334,-0.064206 0.75071,-0.1432281 l -0.0889,-0.296334 c -0.17286,0.064206 -0.35066,0.1086558 -0.57785,0.1086558 -0.46426,0 -0.60749,-0.2271894 -0.60749,-0.6568737 V 1.8014617 h 1.1804 V 1.4705554 h -1.1804 V 0.70008702 h -0.33584 l -0.0543,0.77046838 -0.69144,0.024694 v 0.3062118 h 0.67662 v 1.135947 c 0,0.592668 0.22719,0.9927189 0.92852,0.9927189 z m 2.5781,-0.059267 h 0.40499 V 1.4705554 h -1.52118 v 0.3309063 h 1.11619 z m 0.15805,-2.90407318 c 0.18274,0 0.32597,-0.1234725 0.32597,-0.3160896 0,-0.1876782 -0.14323,-0.3160896 -0.32597,-0.3160896 -0.18274,0 -0.32597,0.1284114 -0.32597,0.3160896 0,0.1926171 0.14323,0.3160896 0.32597,0.3160896 z m 2.45957,2.96333998 c 0.34079,0 0.68157,-0.1778004 0.94827,-0.3852342 h 0.0148 l 0.0346,0.3259674 h 0.33091 V 2.3990686 c 0,-0.5976069 -0.31609,-0.98778 -0.97297,-0.98778 -0.4198,0 -0.82479,0.1876782 -1.0668,0.345723 l 0.15805,0.2765784 c 0.22225,-0.1382892 0.52846,-0.2864562 0.83961,-0.2864562 0.46426,0 0.62724,0.2765784 0.63712,0.6025458 -1.23967,0.098778 -1.7385,0.3605397 -1.7385,0.8988798 0,0.4296843 0.36548,0.6815682 0.81492,0.6815682 z m 0.10866,-0.3259674 c -0.27658,0 -0.52846,-0.1135947 -0.52846,-0.3852342 0,-0.3160896 0.31609,-0.5185845 1.34338,-0.6025458 v 0.6321792 c -0.27164,0.2271894 -0.54328,0.3556008 -0.81492,0.3556008 z m 3.64985,0.3259674 c 0.26176,0 0.41981,-0.049389 0.64206,-0.1432281 l -0.10372,-0.3012729 c -0.16298,0.074084 -0.31115,0.1086558 -0.44944,0.1086558 -0.28646,0 -0.47413,-0.148167 -0.47413,-0.4988289 V 0.35436402 h -1.25942 v 0.3309063 h 0.85443 V 3.0658201 c 0,0.5679735 0.28151,0.8643075 0.79022,0.8643075 z m 2.5139,-0.059267 h 0.40499 V 1.4705554 h -1.52118 v 0.3309063 h 1.11619 z m 0.15804,-2.90407318 c 0.18274,0 0.32597,-0.1234725 0.32597,-0.3160896 0,-0.1876782 -0.14323,-0.3160896 -0.32597,-0.3160896 -0.18274,0 -0.32597,0.1284114 -0.32597,0.3160896 0,0.1926171 0.14323,0.3160896 0.32597,0.3160896 z m 1.59527,2.90407318 h 2.2719 V 3.5399545 h -1.69404 L 163.83343,1.687867 V 1.4705554 h -2.04471 v 0.3309063 h 1.46192 l -1.64466,1.8520875 z m 4.18325,-2.1385437 c 0.40993,0 0.68157,0.2420061 0.71614,0.7358961 h -1.53105 c 0.0741,-0.4741344 0.4198,-0.7358961 0.81491,-0.7358961 z m 0.0593,2.1978105 c 0.38523,0 0.69145,-0.1284114 0.92851,-0.2864562 l -0.14816,-0.2667006 c -0.21731,0.1382892 -0.4445,0.2271894 -0.73096,0.2271894 -0.49883,0 -0.88406,-0.2765784 -0.93345,-0.8198574 h 1.8916 c 0.01,-0.064206 0.0197,-0.1531059 0.0197,-0.246945 0,-0.6766293 -0.40499,-1.1260692 -1.09643,-1.1260692 -0.64206,0 -1.22485,0.4741344 -1.22485,1.2544806 0,0.8001018 0.57291,1.2643584 1.29399,1.2643584 z"
     id="text4"
     style="font-size:4.9389px;line-height:1.1;font-family:'Source Code Pro';-inkscape-font-specification:'Source Code Pro';text-align:center;text-anchor:middle;fill:#ffffff;stroke-linecap:square;stroke-miterlimit:35.2;stroke-opacity:0.988235;paint-order:stroke fill markers"
     aria-label="GLAD failed to initialize" />
  <path
     style="font-size:4.9389px;line-height:1.1;font-family:'Source Code Pro';-inkscape-font-specification:'Source Code Pro';text-align:center;text-anchor:middle;fill:#abb2b4;stroke-linecap:square;stroke-miterlimit:35.2;stroke-opacity:0.988235;paint-order:stroke fill markers"
     d="m 17.948496,4.2869653 h 1.368075 V 4.054837 H 18.274463 V 0.2716396 h 1.042108 V 0.0395113 h -1.368075 z m 2.20769,-0.7507128 H 20.54142 V 1.9162933 c 0,-0.3160896 -0.03951,-0.8692464 -0.06914,-1.1458248 h 0.0099 l 0.187678,0.6321792 0.454379,1.2742362 h 0.296334 L 21.884801,1.4026477 22.06754,0.7704685 h 0.01482 c -0.01975,0.2765784 -0.06914,0.8297352 -0.06914,1.1458248 v 1.6199592 h 0.395112 V 0.2963341 h -0.503768 l -0.459318,1.382892 -0.153106,0.5235234 h -0.01975 L 21.114333,1.6792261 20.659954,0.2963341 h -0.503768 z m 3.822711,0.059267 c 0.340784,0 0.681568,-0.1778004 0.948268,-0.3852342 h 0.01482 l 0.03457,0.3259674 h 0.330907 V 2.0644603 c 0,-0.5976069 -0.31609,-0.98778 -0.972964,-0.98778 -0.419806,0 -0.824796,0.1876782 -1.066802,0.345723 l 0.158045,0.2765784 c 0.22225,-0.1382892 0.528462,-0.2864562 0.839613,-0.2864562 0.464256,0 0.62724,0.2765784 0.637118,0.6025458 -1.239664,0.098778 -1.738493,0.3605397 -1.738493,0.8988798 0,0.4296843 0.365479,0.6815682 0.814919,0.6815682 z m 0.108655,-0.3259674 c -0.276578,0 -0.528462,-0.1135947 -0.528462,-0.3852342 0,-0.3160896 0.31609,-0.5185845 1.343381,-0.6025458 v 0.6321792 c -0.27164,0.2271894 -0.543279,0.3556008 -0.814919,0.3556008 z m 1.955807,0.2667006 h 0.434623 l 0.395112,-0.5531568 c 0.09878,-0.1531059 0.197556,-0.2913951 0.296334,-0.4346232 h 0.01976 c 0.103717,0.1382892 0.217311,0.296334 0.316089,0.4346232 l 0.419807,0.5531568 h 0.444501 L 27.450946,2.326222 28.305375,1.1359471 h -0.429684 l -0.36054,0.5185845 c -0.08396,0.1333503 -0.182739,0.2815173 -0.271639,0.4148676 h -0.01976 C 27.124978,1.9360489 27.0262,1.7928208 26.942239,1.6644094 L 26.561944,1.1359471 h -0.44944 l 0.844552,1.1557026 z m 3.136203,0 h 0.992719 c 0.726018,0 1.219908,-0.3111507 1.219908,-0.9482688 0,-0.444501 -0.276578,-0.7013238 -0.750712,-0.7754073 v -0.019756 c 0.385234,-0.098778 0.567973,-0.3852342 0.567973,-0.7062627 0,-0.5679735 -0.44944,-0.790224 -1.111252,-0.790224 h -0.918636 z m 0.409929,-1.876782 V 0.6420571 h 0.459318 c 0.498829,0 0.755651,0.1284114 0.755651,0.4790733 0,0.3605397 -0.22225,0.5383401 -0.775407,0.5383401 z m 0,1.531059 v -1.185336 h 0.523523 c 0.567974,0 0.874186,0.1629837 0.874186,0.5630346 0,0.4395621 -0.321029,0.6223014 -0.874186,0.6223014 z m 3.279431,0.4049898 c 0.370418,0 0.651935,-0.197556 0.893941,-0.4790733 h 0.01976 l 0.03457,0.4198065 h 0.330906 V 1.1359471 h -0.404989 v 1.6644093 c -0.266701,0.3111507 -0.469196,0.444501 -0.745774,0.444501 -0.400051,0 -0.553157,-0.2173116 -0.553157,-0.6716904 V 1.1359471 h -0.409929 v 1.4915478 c 0,0.6321792 0.261762,0.9680244 0.834674,0.9680244 z m 3.309066,-0.059267 h 0.40499 V 1.1359471 h -1.521181 v 0.3309063 h 1.116191 z m 0.158045,-2.9040732 c 0.182739,0 0.325967,-0.1234725 0.325967,-0.3160896 C 36.662,0.1284115 36.518772,1.0299683e-7 36.336033,1.0299683e-7 36.153293,1.0299683e-7 36.010065,0.1284115 36.010065,0.3160897 c 0,0.1926171 0.143228,0.3160896 0.325968,0.3160896 z m 3.254736,2.96334 c 0.261761,0 0.419806,-0.049389 0.642057,-0.1432281 L 40.129109,3.1510183 c -0.162984,0.074083 -0.311151,0.1086558 -0.44944,0.1086558 -0.286456,0 -0.474135,-0.148167 -0.474135,-0.4988289 V 0.0197557 H 37.946115 V 0.350662 h 0.85443 v 2.3805498 c 0,0.5679735 0.281517,0.8643075 0.790224,0.8643075 z m 2.291652,0 c 0.296334,0 0.58279,-0.1728615 0.780346,-0.3753564 h 0.01482 l 0.03457,0.3160896 h 0.335845 V 0.0197557 h -0.40499 V 0.94333 l 0.01976,0.444501 H 42.64795 C 42.440517,1.190275 42.218266,1.0766803 41.93181,1.0766803 c -0.567974,0 -1.091497,0.4840122 -1.091497,1.2643584 0,0.8001018 0.414868,1.2544806 1.042108,1.2544806 z m 0.08396,-0.3407841 c -0.444501,0 -0.706263,-0.345723 -0.706263,-0.9186354 0,-0.5482179 0.335846,-0.9186354 0.750713,-0.9186354 0.207434,0 0.414868,0.079022 0.632179,0.2815173 v 1.1952138 c -0.212372,0.2370672 -0.439562,0.3605397 -0.676629,0.3605397 z m 3.11151,-1.8570264 c 0.409929,0 0.681568,0.2420061 0.71614,0.7358961 h -1.531059 c 0.07408,-0.4741344 0.419807,-0.7358961 0.814919,-0.7358961 z m 0.05927,2.1978105 c 0.385234,0 0.691446,-0.1284114 0.928513,-0.2864562 L 45.917505,3.0423625 c -0.217312,0.1382892 -0.444501,0.2271894 -0.730957,0.2271894 -0.498829,0 -0.884063,-0.2765784 -0.933452,-0.8198574 h 1.891598 c 0.0099,-0.064206 0.01976,-0.1531059 0.01976,-0.246945 0,-0.6766293 -0.40499,-1.1260692 -1.096436,-1.1260692 -0.642057,0 -1.224847,0.4741344 -1.224847,1.2544806 0,0.8001018 0.572912,1.2643584 1.293992,1.2643584 z m 2.054583,-0.059267 h 0.40499 V 2.128666 c 0.286456,-0.4988289 0.62724,-0.6865071 0.98778,-0.6865071 0.187678,0 0.276578,0.024695 0.444501,0.083961 l 0.09384,-0.3506619 c -0.148167,-0.074083 -0.296334,-0.098778 -0.474135,-0.098778 -0.444501,0 -0.819857,0.2420061 -1.071741,0.6272403 h -0.01482 l -0.03457,-0.5679735 h -0.335845 z m 3.723931,0.059267 c 0.222251,0 0.400051,-0.1679226 0.400051,-0.4148676 0,-0.2518839 -0.1778,-0.4198065 -0.400051,-0.4198065 -0.22225,0 -0.400051,0.1679226 -0.400051,0.4198065 0,0.246945 0.177801,0.4148676 0.400051,0.4148676 z m 3.190534,0 c 0.355601,0 0.686507,-0.1382892 0.953208,-0.3753564 L 54.876676,2.9584012 c -0.197556,0.1679226 -0.444501,0.3012729 -0.740835,0.3012729 -0.553157,0 -0.923575,-0.3704175 -0.923575,-0.9186354 0,-0.5531568 0.380296,-0.9285132 0.933452,-0.9285132 0.251884,0 0.459318,0.1037169 0.656874,0.2765784 L 55.005087,1.4273422 C 54.807531,1.2347251 54.521075,1.0766803 54.130902,1.0766803 c -0.726019,0 -1.338442,0.4593177 -1.338442,1.2643584 0,0.7951629 0.563034,1.2544806 1.313747,1.2544806 z m 1.713799,0.9532077 h 0.40499 V 3.7387474 L 56.20524,3.2843686 h 0.01482 c 0.212373,0.197556 0.49389,0.3111507 0.716141,0.3111507 0.577851,0 1.091496,-0.4790733 1.091496,-1.2939918 0,-0.7457739 -0.345723,-1.2248472 -0.992718,-1.2248472 -0.296334,0 -0.607485,0.1531059 -0.829736,0.3654786 h -0.01482 l -0.03457,-0.3062118 h -0.335845 z m 1.047047,-1.2939918 c -0.162984,0 -0.414868,-0.079022 -0.642057,-0.2815173 V 1.7780041 c 0.246945,-0.246945 0.49389,-0.3605397 0.706263,-0.3605397 0.479073,0 0.676629,0.3556008 0.676629,0.8840631 0,0.592668 -0.311151,0.9532077 -0.740835,0.9532077 z m 1.916294,1.2939918 h 0.40499 V 3.7387474 l -0.01976,-0.4543788 h 0.01482 c 0.212373,0.197556 0.49389,0.3111507 0.71614,0.3111507 0.577852,0 1.091497,-0.4790733 1.091497,-1.2939918 0,-0.7457739 -0.345723,-1.2248472 -0.992719,-1.2248472 -0.296334,0 -0.607484,0.1531059 -0.829735,0.3654786 h -0.01482 l -0.03457,-0.3062118 h -0.335845 z m 1.047047,-1.2939918 c -0.162984,0 -0.414868,-0.079022 -0.642057,-0.2815173 V 1.7780041 c 0.246945,-0.246945 0.49389,-0.3605397 0.706262,-0.3605397 0.479074,0 0.67663,0.3556008 0.67663,0.8840631 0,0.592668 -0.311151,0.9532077 -0.740835,0.9532077 z m 2.93865,-1.4273421 c 0.22225,0 0.400051,-0.1679226 0.400051,-0.4148676 0,-0.2518839 -0.177801,-0.4198065 -0.400051,-0.4198065 -0.222251,0 -0.400051,0.1679226 -0.400051,0.4198065 0,0.246945 0.1778,0.4148676 0.400051,0.4148676 z m 0,1.7681262 c 0.22225,0 0.400051,-0.1679226 0.400051,-0.4148676 0,-0.2518839 -0.177801,-0.4198065 -0.400051,-0.4198065 -0.222251,0 -0.400051,0.1679226 -0.400051,0.4198065 0,0.246945 0.1778,0.4148676 0.400051,0.4148676 z m 3.062119,0 c 0.572912,0 1.086558,-0.4790733 1.086558,-1.2989307 0,-0.740835 -0.350662,-1.2199083 -0.997658,-1.2199083 -0.281518,0 -0.587729,0.1432281 -0.805041,0.3654786 h -0.01482 l 0.01482,-0.4642566 V 0.0197557 h -0.40499 V 3.5362525 H 65.036 l 0.03457,-0.2667006 h 0.01482 c 0.227189,0.2024949 0.513645,0.3259674 0.745774,0.3259674 z m -0.06421,-0.3407841 c -0.172862,0 -0.424746,-0.079022 -0.651935,-0.2815173 V 1.7780041 c 0.246945,-0.246945 0.49389,-0.3605397 0.706263,-0.3605397 0.479073,0 0.676629,0.3556008 0.676629,0.8840631 0,0.592668 -0.311151,0.9532077 -0.730957,0.9532077 z m 2.662068,0.3407841 c 0.370417,0 0.651935,-0.197556 0.893941,-0.4790733 h 0.01976 l 0.03457,0.4198065 H 69.7082 V 1.1359471 h -0.40499 v 1.6644093 c -0.266701,0.3111507 -0.469195,0.444501 -0.745774,0.444501 -0.400051,0 -0.553157,-0.2173116 -0.553157,-0.6716904 V 1.1359471 h -0.409928 v 1.4915478 c 0,0.6321792 0.261761,0.9680244 0.834674,0.9680244 z m 3.309067,-0.059267 h 0.40499 V 1.1359471 h -1.521181 v 0.3309063 h 1.116191 z m 0.158045,-2.9040732 c 0.182739,0 0.325968,-0.1234725 0.325968,-0.3160896 C 72.222105,0.1284115 72.078876,1.0299683e-7 71.896137,1.0299683e-7 71.713398,1.0299683e-7 71.57017,0.1284115 71.57017,0.3160897 c 0,0.1926171 0.143228,0.3160896 0.325967,0.3160896 z m 3.254736,2.96334 c 0.261762,0 0.419806,-0.049389 0.642057,-0.1432281 L 75.689213,3.1510183 c -0.162984,0.074083 -0.311151,0.1086558 -0.44944,0.1086558 -0.286456,0 -0.474134,-0.148167 -0.474134,-0.4988289 V 0.0197557 h -1.25942 V 0.350662 h 0.85443 v 2.3805498 c 0,0.5679735 0.281517,0.8643075 0.790224,0.8643075 z m 2.29165,0 c 0.296334,0 0.582791,-0.1728615 0.780347,-0.3753564 h 0.01482 l 0.03457,0.3160896 h 0.335845 V 0.0197557 h -0.40499 V 0.94333 l 0.01976,0.444501 h -0.01482 C 78.000619,1.190275 77.778369,1.0766803 77.491912,1.0766803 c -0.567973,0 -1.091497,0.4840122 -1.091497,1.2643584 0,0.8001018 0.414868,1.2544806 1.042108,1.2544806 z m 0.08396,-0.3407841 c -0.444501,0 -0.706263,-0.345723 -0.706263,-0.9186354 0,-0.5482179 0.335845,-0.9186354 0.750713,-0.9186354 0.207434,0 0.414867,0.079022 0.632179,0.2815173 v 1.1952138 c -0.212373,0.2370672 -0.439562,0.3605397 -0.676629,0.3605397 z m 3.022611,-1.4273421 c 0.222251,0 0.400051,-0.1679226 0.400051,-0.4148676 0,-0.2518839 -0.1778,-0.4198065 -0.400051,-0.4198065 -0.22225,0 -0.400051,0.1679226 -0.400051,0.4198065 0,0.246945 0.177801,0.4148676 0.400051,0.4148676 z m 0,1.7681262 c 0.222251,0 0.400051,-0.1679226 0.400051,-0.4148676 0,-0.2518839 -0.1778,-0.4198065 -0.400051,-0.4198065 -0.22225,0 -0.400051,0.1679226 -0.400051,0.4198065 0,0.246945 0.177801,0.4148676 0.400051,0.4148676 z m 2.973215,0 c 0.721079,0 1.131008,-0.3704175 1.131008,-0.839613 0,-0.4494399 -0.27164,-0.6469959 -0.617363,-0.8198574 V 1.9162933 C 84.297718,1.733554 84.51503,1.4619145 84.51503,1.1655805 c 0,-0.4889511 -0.36054,-0.839613 -0.977903,-0.839613 -0.563034,0 -0.972963,0.3259674 -0.972963,0.8099796 0,0.3309063 0.217312,0.5729124 0.479073,0.7358961 v 0.019756 c -0.335845,0.1580448 -0.676629,0.4049898 -0.676629,0.839613 0,0.4988289 0.444501,0.8643075 1.155703,0.8643075 z m 0.246945,-1.778004 C 83.30006,1.6693483 82.934582,1.5113035 82.934582,1.1359471 c 0,-0.3062118 0.242006,-0.5087067 0.592668,-0.5087067 0.414867,0 0.637118,0.246945 0.637118,0.5580957 0,0.2321283 -0.138289,0.444501 -0.395112,0.6321792 z m -0.237067,1.4767311 c -0.484013,0 -0.795163,-0.2518839 -0.795163,-0.6025458 0,-0.3160896 0.232128,-0.5185845 0.53834,-0.6865071 0.553157,0.1876782 0.98778,0.296334 0.98778,0.7358961 0,0.3259674 -0.261762,0.5531568 -0.730957,0.5531568 z m 2.578114,0.2420061 h 0.424745 c 0.04445,-1.234725 0.251884,-1.9459266 1.086558,-2.8991343 V 0.3852343 h -2.281772 v 0.3506619 h 1.817516 c -0.72108,0.8840631 -0.992719,1.6051425 -1.047047,2.8003563 z m 2.331161,0.7507128 h 1.368076 v -4.247454 h -1.368076 v 0.2321283 h 1.042108 V 4.054837 h -1.042108 z"
     id="text3"
     aria-label="[MaxBuilder.cpp:build:87]" />
  <path
     style="font-weight:bold;font-size:4.9389px;line-height:1.1;font-family:'Source Code Pro';-inkscape-font-specification:'Source Code Pro';text-align:center;text-anchor:middle;fill:#e06c75;stroke-linecap:square;stroke-miterlimit:35.2;stroke-opacity:0.988235;paint-order:stroke fill markers"
     d="M -2.2401809e-7,3.884445 H 2.1829936 V 3.2720214 H 0.73095698 V 2.5311864 H 1.9212319 V 1.9237017 H 0.73095698 V 1.2767058 H 2.1336046 V 0.66428216 H -2.2401809e-7 Z M 2.8546859,3.884445 H 3.5807042 V 2.7238035 H 3.9609995 L 4.578362,3.884445 H 5.3932805 L 4.6672622,2.5953921 C 5.0080463,2.4422862 5.2401746,2.1410133 5.2401746,1.6668789 5.2401746,0.90134936 4.67714,0.66428216 3.9955718,0.66428216 H 2.8546859 Z M 3.5807042,2.1459522 V 1.2421335 H 3.936305 c 0.3852342,0 0.5877291,0.1086558 0.5877291,0.4247454 0,0.3160896 -0.2024949,0.4790733 -0.5877291,0.4790733 z M 5.8180279,3.884445 H 6.5440462 V 2.7238035 H 6.9243415 L 7.541704,3.884445 H 8.3566225 L 7.6306042,2.5953921 C 7.9713883,2.4422862 8.2035166,2.1410133 8.2035166,1.6668789 8.2035166,0.90134936 7.640482,0.66428216 6.9589138,0.66428216 H 5.8180279 Z M 6.5440462,2.1459522 V 1.2421335 H 6.899647 c 0.3852342,0 0.5877291,0.1086558 0.5877291,0.4247454 0,0.3160896 -0.2024949,0.4790733 -0.5877291,0.4790733 z m 3.3732709,1.7977596 c 0.7655299,0 1.2939919,-0.5827902 1.2939919,-1.6841649 0,-1.0766802 -0.528462,-1.65453154 -1.2939919,-1.65453154 -0.7655295,0 -1.2939918,0.57785134 -1.2939918,1.65453154 0,1.1013747 0.5284623,1.6841649 1.2939918,1.6841649 z m 0,-0.6272403 c -0.3358452,0 -0.5482179,-0.3605397 -0.5482179,-1.0569246 0,-0.6667515 0.2123727,-1.0272912 0.5482179,-1.0272912 0.3358449,0 0.5482179,0.3605397 0.5482179,1.0272912 0,0.6963849 -0.212373,1.0569246 -0.5482179,1.0569246 z M 11.744712,3.884445 H 12.47073 V 2.7238035 h 0.380295 l 0.617363,1.1606415 h 0.814918 L 13.557288,2.5953921 C 13.898072,2.4422862 14.1302,2.1410133 14.1302,1.6668789 c 0,-0.76552954 -0.563034,-1.00259674 -1.244602,-1.00259674 H 11.744712 Z M 12.47073,2.1459522 V 1.2421335 h 0.355601 c 0.385234,0 0.587729,0.1086558 0.587729,0.4247454 0,0.3160896 -0.202495,0.4790733 -0.587729,0.4790733 z"
     id="text2"
     aria-label="ERROR" />
</svg>
