<?xml version="1.0" encoding="UTF-8" standalone="no"?>
<!-- Created with Inkscape (http://www.inkscape.org/) -->

<svg
   width="164.48685mm"
   height="4.548727mm"
   viewBox="0 0 164.48685 4.548727"
   version="1.1"
   id="svg1"
   xmlns="http://www.w3.org/2000/svg"
   xmlns:svg="http://www.w3.org/2000/svg">
  <defs
     id="defs1" />
  <path
     d="m 91.889904,3.8708608 h 0.395112 V 2.1768181 c 0,-0.3358452 -0.03951,-0.6815682 -0.05433,-1.0124745 h 0.0099 l 0.311151,0.6716904 1.037169,2.0348268 h 0.454378 V 0.63094242 H 93.648152 V 2.3101684 c 0,0.3407841 0.03951,0.7062627 0.05433,1.0272912 h -0.0099 L 93.381452,2.6657692 92.344283,0.63094242 h -0.454379 z m 4.128922,-2.1385437 c 0.409929,0 0.681568,0.2420061 0.716141,0.7358961 h -1.531059 c 0.07408,-0.4741344 0.419806,-0.7358961 0.814918,-0.7358961 z m 0.05927,2.1978105 c 0.385234,0 0.691446,-0.1284114 0.928513,-0.2864562 L 96.858439,3.3769708 c -0.217311,0.1382892 -0.444501,0.2271894 -0.730957,0.2271894 -0.498829,0 -0.884063,-0.2765784 -0.933452,-0.8198574 h 1.891599 c 0.0099,-0.064206 0.01976,-0.1531059 0.01976,-0.246945 0,-0.6766293 -0.40499,-1.1260692 -1.096436,-1.1260692 -0.642057,0 -1.224847,0.4741344 -1.224847,1.2544806 0,0.8001018 0.572913,1.2643584 1.293992,1.2643584 z m 1.89654,-0.059267 h 0.523523 L 98.764857,2.725036 c 0.03951,-0.1679226 0.07902,-0.4049898 0.118533,-0.7112016 h 0.01976 c 0.03951,0.3062118 0.07902,0.543279 0.118533,0.7112016 l 0.276579,1.1458248 h 0.523523 l 0.513649,-2.4003054 h -0.37536 l -0.286456,1.3927698 c -0.04445,0.2271894 -0.06914,0.4346232 -0.108656,0.6618126 h -0.01976 C 99.515569,3.2979484 99.451364,3.0905146 99.397036,2.8633252 L 99.11058,1.6187224 H 98.70559 L 98.409256,2.8633252 C 98.354928,3.0855757 98.3006,3.2979484 98.270967,3.5251378 h -0.01976 C 98.221578,3.2979484 98.187005,3.0905146 98.142555,2.8633252 L 97.856099,1.4705554 h -0.40499 z m 5.719247,0 h 0.38524 V 2.2509016 c 0,-0.3160896 -0.0395,-0.8692464 -0.0692,-1.1458248 h 0.01 l 0.18768,0.6321792 0.45438,1.2742362 h 0.29633 l 0.46426,-1.2742362 0.18274,-0.6321792 h 0.0148 c -0.0198,0.2765784 -0.0691,0.8297352 -0.0691,1.1458248 v 1.6199592 h 0.39511 V 0.63094242 h -0.50377 l -0.45931,1.38289198 -0.15311,0.5235234 h -0.0198 l -0.15804,-0.5235234 -0.45438,-1.38289198 h -0.50377 z m 3.82271,0.059267 c 0.34079,0 0.68157,-0.1778004 0.94827,-0.3852342 h 0.0148 l 0.0346,0.3259674 h 0.33091 V 2.3990686 c 0,-0.5976069 -0.31609,-0.98778 -0.97297,-0.98778 -0.4198,0 -0.82479,0.1876782 -1.0668,0.345723 l 0.15805,0.2765784 c 0.22225,-0.1382892 0.52846,-0.2864562 0.83961,-0.2864562 0.46426,0 0.62724,0.2765784 0.63712,0.6025458 -1.23967,0.098778 -1.7385,0.3605397 -1.7385,0.8988798 0,0.4296843 0.36548,0.6815682 0.81492,0.6815682 z m 0.10866,-0.3259674 c -0.27658,0 -0.52846,-0.1135947 -0.52846,-0.3852342 0,-0.3160896 0.31609,-0.5185845 1.34338,-0.6025458 v 0.6321792 c -0.27164,0.2271894 -0.54328,0.3556008 -0.81492,0.3556008 z m 1.95581,0.2667006 h 0.43462 l 0.39511,-0.5531568 c 0.0988,-0.1531059 0.19756,-0.2913951 0.29634,-0.4346232 h 0.0197 c 0.10372,0.1382892 0.21731,0.296334 0.31609,0.4346232 l 0.41981,0.5531568 h 0.4445 l -0.91864,-1.2100305 0.85443,-1.1902749 h -0.42968 l -0.36054,0.5185845 c -0.084,0.1333503 -0.18274,0.2815173 -0.27164,0.4148676 h -0.0198 c -0.0988,-0.1333503 -0.19755,-0.2765784 -0.28151,-0.4049898 l -0.3803,-0.5284623 h -0.44944 l 0.84455,1.1557026 z m 7.17128,0 h 0.40499 V 1.4705554 h -1.52118 v 0.3309063 h 1.11619 z m 0.15805,-2.90407318 c 0.18274,0 0.32596,-0.1234725 0.32596,-0.3160896 0,-0.1876782 -0.14322,-0.3160896 -0.32596,-0.3160896 -0.18274,0 -0.32597,0.1284114 -0.32597,0.3160896 0,0.1926171 0.14323,0.3160896 0.32597,0.3160896 z m 1.70392,2.90407318 h 0.40499 V 2.1965737 c 0.28152,-0.2913951 0.47413,-0.4346232 0.76059,-0.4346232 0.39511,0 0.55316,0.2173116 0.55316,0.6716904 v 1.4372199 h 0.40499 V 2.379313 c 0,-0.6321792 -0.26176,-0.9680244 -0.82974,-0.9680244 -0.37535,0 -0.65193,0.2024949 -0.90382,0.4691955 h -0.0198 l -0.0346,-0.4099287 h -0.33585 z m 4.03508,0.059267 c 0.68651,0 1.0668,-0.3259674 1.0668,-0.7161405 0,-0.3654786 -0.19261,-0.5679735 -0.99271,-0.740835 -0.48896,-0.1037169 -0.69639,-0.1926171 -0.69639,-0.4000509 0,-0.1827393 0.14323,-0.345723 0.55316,-0.345723 0.30621,0 0.58279,0.098778 0.80504,0.2518839 l 0.19755,-0.2617617 c -0.23706,-0.1629837 -0.60254,-0.3062118 -0.96802,-0.3062118 -0.65687,0 -0.99766,0.296334 -0.99766,0.6815682 0,0.3605397 0.31609,0.5729124 0.93839,0.7013238 0.65194,0.1333503 0.75072,0.2617617 0.75072,0.444501 0,0.2024949 -0.2025,0.3753564 -0.60749,0.3753564 -0.4445,0 -0.76553,-0.1284114 -1.04211,-0.3259674 L 121.469,3.5547712 c 0.29139,0.2024949 0.7112,0.3753564 1.18039,0.3753564 z m 3.37821,0 c 0.30127,0 0.5334,-0.064206 0.75071,-0.1432281 l -0.0889,-0.296334 c -0.17286,0.064206 -0.35066,0.1086558 -0.57785,0.1086558 -0.46425,0 -0.60748,-0.2271894 -0.60748,-0.6568737 V 1.8014617 h 1.18039 V 1.4705554 h -1.18039 V 0.70008702 h -0.33585 l -0.0543,0.77046838 -0.69144,0.024694 v 0.3062118 h 0.67663 v 1.135947 c 0,0.592668 0.22719,0.9927189 0.92851,0.9927189 z m 2.23239,0 c 0.34078,0 0.68157,-0.1778004 0.94827,-0.3852342 h 0.0148 l 0.0346,0.3259674 h 0.3309 V 2.3990686 c 0,-0.5976069 -0.31609,-0.98778 -0.97296,-0.98778 -0.41981,0 -0.8248,0.1876782 -1.0668,0.345723 l 0.15804,0.2765784 c 0.22225,-0.1382892 0.52846,-0.2864562 0.83961,-0.2864562 0.46426,0 0.62724,0.2765784 0.63712,0.6025458 -1.23966,0.098778 -1.73849,0.3605397 -1.73849,0.8988798 0,0.4296843 0.36548,0.6815682 0.81492,0.6815682 z m 0.10865,-0.3259674 c -0.27657,0 -0.52846,-0.1135947 -0.52846,-0.3852342 0,-0.3160896 0.31609,-0.5185845 1.34338,-0.6025458 v 0.6321792 c -0.27164,0.2271894 -0.54328,0.3556008 -0.81492,0.3556008 z m 2.09904,0.2667006 h 0.40499 V 2.1965737 c 0.28151,-0.2913951 0.47413,-0.4346232 0.76059,-0.4346232 0.39511,0 0.55315,0.2173116 0.55315,0.6716904 v 1.4372199 h 0.40499 V 2.379313 c 0,-0.6321792 -0.26176,-0.9680244 -0.82973,-0.9680244 -0.37536,0 -0.65194,0.2024949 -0.90382,0.4691955 h -0.0198 l -0.0346,-0.4099287 h -0.33584 z m 4.21288,0.059267 c 0.3556,0 0.68651,-0.1382892 0.95321,-0.3753564 l -0.18274,-0.2617617 c -0.19756,0.1679226 -0.4445,0.3012729 -0.74084,0.3012729 -0.55315,0 -0.92357,-0.3704175 -0.92357,-0.9186354 0,-0.5531568 0.38029,-0.9285132 0.93345,-0.9285132 0.25188,0 0.45932,0.1037169 0.65687,0.2765784 l 0.2025,-0.2617617 c -0.19756,-0.1926171 -0.48401,-0.3506619 -0.87419,-0.3506619 -0.72601,0 -1.33844,0.4593177 -1.33844,1.2643584 0,0.7951629 0.56304,1.2544806 1.31375,1.2544806 z m 2.82505,-2.1978105 c 0.40993,0 0.68157,0.2420061 0.71615,0.7358961 h -1.53106 c 0.0741,-0.4741344 0.4198,-0.7358961 0.81491,-0.7358961 z m 0.0593,2.1978105 c 0.38524,0 0.69145,-0.1284114 0.92851,-0.2864562 l -0.14816,-0.2667006 c -0.21731,0.1382892 -0.4445,0.2271894 -0.73096,0.2271894 -0.49883,0 -0.88406,-0.2765784 -0.93345,-0.8198574 h 1.8916 c 0.01,-0.064206 0.0198,-0.1531059 0.0198,-0.246945 0,-0.6766293 -0.40499,-1.1260692 -1.09643,-1.1260692 -0.64206,0 -1.22485,0.4741344 -1.22485,1.2544806 0,0.8001018 0.57291,1.2643584 1.29399,1.2643584 z m 6.00571,0 c 0.3556,0 0.6865,-0.1382892 0.9532,-0.3753564 l -0.18274,-0.2617617 c -0.19755,0.1679226 -0.4445,0.3012729 -0.74083,0.3012729 -0.55316,0 -0.92358,-0.3704175 -0.92358,-0.9186354 0,-0.5531568 0.3803,-0.9285132 0.93346,-0.9285132 0.25188,0 0.45931,0.1037169 0.65687,0.2765784 l 0.2025,-0.2617617 c -0.19756,-0.1926171 -0.48402,-0.3506619 -0.87419,-0.3506619 -0.72602,0 -1.33844,0.4593177 -1.33844,1.2643584 0,0.7951629 0.56303,1.2544806 1.31375,1.2544806 z m 1.97556,-0.059267 h 0.40499 V 2.4632743 c 0.28646,-0.4988289 0.62724,-0.6865071 0.98778,-0.6865071 0.18768,0 0.27658,0.024694 0.4445,0.083961 l 0.0938,-0.3506619 c -0.14817,-0.074083 -0.29633,-0.098778 -0.47413,-0.098778 -0.44451,0 -0.81986,0.2420061 -1.07175,0.6272403 h -0.0148 L 145.882,1.4705554 h -0.33585 z m 3.81283,-2.1385437 c 0.40993,0 0.68157,0.2420061 0.71614,0.7358961 h -1.53106 c 0.0741,-0.4741344 0.41981,-0.7358961 0.81492,-0.7358961 z m 0.0593,2.1978105 c 0.38523,0 0.69144,-0.1284114 0.92851,-0.2864562 l -0.14817,-0.2667006 c -0.21731,0.1382892 -0.4445,0.2271894 -0.73095,0.2271894 -0.49883,0 -0.88407,-0.2765784 -0.93345,-0.8198574 h 1.89159 c 0.01,-0.064206 0.0198,-0.1531059 0.0198,-0.246945 0,-0.6766293 -0.40499,-1.1260692 -1.09644,-1.1260692 -0.64205,0 -1.22484,0.4741344 -1.22484,1.2544806 0,0.8001018 0.57291,1.2643584 1.29399,1.2643584 z m 2.54847,0 c 0.34079,0 0.68157,-0.1778004 0.94827,-0.3852342 h 0.0148 l 0.0346,0.3259674 h 0.33091 V 2.3990686 c 0,-0.5976069 -0.31609,-0.98778 -0.97297,-0.98778 -0.4198,0 -0.82479,0.1876782 -1.0668,0.345723 l 0.15804,0.2765784 c 0.22226,-0.1382892 0.52847,-0.2864562 0.83962,-0.2864562 0.46425,0 0.62724,0.2765784 0.63712,0.6025458 -1.23967,0.098778 -1.7385,0.3605397 -1.7385,0.8988798 0,0.4296843 0.36548,0.6815682 0.81492,0.6815682 z m 0.10866,-0.3259674 c -0.27658,0 -0.52846,-0.1135947 -0.52846,-0.3852342 0,-0.3160896 0.31608,-0.5185845 1.34338,-0.6025458 v 0.6321792 c -0.27164,0.2271894 -0.54328,0.3556008 -0.81492,0.3556008 z m 3.58564,0.3259674 c 0.30128,0 0.5334,-0.064206 0.75072,-0.1432281 l -0.0889,-0.296334 c -0.17287,0.064206 -0.35067,0.1086558 -0.57786,0.1086558 -0.46425,0 -0.60748,-0.2271894 -0.60748,-0.6568737 V 1.8014617 h 1.1804 V 1.4705554 h -1.1804 V 0.70008702 h -0.33585 l -0.0543,0.77046838 -0.69145,0.024694 v 0.3062118 h 0.67663 v 1.135947 c 0,0.592668 0.22719,0.9927189 0.92851,0.9927189 z M 158.249,1.7323171 c 0.40993,0 0.68157,0.2420061 0.71614,0.7358961 h -1.53105 c 0.0741,-0.4741344 0.4198,-0.7358961 0.81491,-0.7358961 z m 0.0593,2.1978105 c 0.38523,0 0.69145,-0.1284114 0.92851,-0.2864562 l -0.14816,-0.2667006 c -0.21731,0.1382892 -0.4445,0.2271894 -0.73096,0.2271894 -0.49883,0 -0.88406,-0.2765784 -0.93345,-0.8198574 h 1.8916 c 0.01,-0.064206 0.0197,-0.1531059 0.0197,-0.246945 0,-0.6766293 -0.40499,-1.1260692 -1.09643,-1.1260692 -0.64206,0 -1.22485,0.4741344 -1.22485,1.2544806 0,0.8001018 0.57291,1.2643584 1.29399,1.2643584 z m 2.67195,0 c 0.29634,0 0.58279,-0.1728615 0.78035,-0.3753564 h 0.0148 l 0.0346,0.3160896 h 0.33584 V 0.35436402 h -0.40499 V 1.2779383 l 0.0198,0.444501 h -0.0148 c -0.20743,-0.197556 -0.42968,-0.3111507 -0.71614,-0.3111507 -0.56797,0 -1.09149,0.4840122 -1.09149,1.2643584 0,0.8001018 0.41486,1.2544806 1.0421,1.2544806 z m 0.084,-0.3407841 c -0.44451,0 -0.70627,-0.345723 -0.70627,-0.9186354 0,-0.5482179 0.33585,-0.9186354 0.75072,-0.9186354 0.20743,0 0.41486,0.079022 0.63217,0.2815173 v 1.1952138 c -0.21237,0.2370672 -0.43956,0.3605397 -0.67662,0.3605397 z m 3.0226,0.3407841 c 0.22225,0 0.40005,-0.1679226 0.40005,-0.4148676 0,-0.2518839 -0.1778,-0.4198065 -0.40005,-0.4198065 -0.22225,0 -0.40005,0.1679226 -0.40005,0.4198065 0,0.246945 0.1778,0.4148676 0.40005,0.4148676 z"
     id="text4"
     style="-inkscape-font-specification:'Source Code Pro';fill:#ffffff;stroke-linecap:square;stroke-miterlimit:35.2;stroke-opacity:0.988235;paint-order:stroke fill markers"
     aria-label="New Max instance created." />
  <path
     style="-inkscape-font-specification:'Source Code Pro';fill:#abb2b4;stroke-linecap:square;stroke-miterlimit:35.2;stroke-opacity:0.988235;paint-order:stroke fill markers"
     d="M 14.049924,4.2869653 H 15.418 V 4.054837 H 14.375892 V 0.2716396 H 15.418 V 0.0395113 h -1.368076 z m 2.207691,-0.7507128 h 0.385234 V 1.9162933 c 0,-0.3160896 -0.03951,-0.8692464 -0.06914,-1.1458248 h 0.0099 l 0.187678,0.6321792 0.454379,1.2742362 h 0.296334 L 17.98623,1.4026477 18.168969,0.7704685 h 0.01482 c -0.01976,0.2765784 -0.06915,0.8297352 -0.06915,1.1458248 v 1.6199592 h 0.395112 V 0.2963341 h -0.503768 l -0.459318,1.382892 -0.153105,0.5235234 h -0.01976 L 17.215761,1.6792261 16.761382,0.2963341 h -0.503767 z m 3.82271,0.059267 c 0.340784,0 0.681568,-0.1778004 0.948269,-0.3852342 h 0.01482 l 0.03457,0.3259674 h 0.330906 V 2.0644603 c 0,-0.5976069 -0.316089,-0.98778 -0.972963,-0.98778 -0.419807,0 -0.824796,0.1876782 -1.066803,0.345723 l 0.158045,0.2765784 c 0.222251,-0.1382892 0.528463,-0.2864562 0.839613,-0.2864562 0.464257,0 0.627241,0.2765784 0.637118,0.6025458 -1.239664,0.098778 -1.738492,0.3605397 -1.738492,0.8988798 0,0.4296843 0.365478,0.6815682 0.814918,0.6815682 z m 0.108656,-0.3259674 c -0.276579,0 -0.528462,-0.1135947 -0.528462,-0.3852342 0,-0.3160896 0.316089,-0.5185845 1.34338,-0.6025458 V 2.9139511 C 20.73226,3.1411405 20.46062,3.2695519 20.188981,3.2695519 Z m 1.955806,0.2667006 h 0.434624 l 0.395112,-0.5531568 c 0.09878,-0.1531059 0.197556,-0.2913951 0.296334,-0.4346232 h 0.01975 c 0.103717,0.1382892 0.217312,0.296334 0.31609,0.4346232 l 0.419806,0.5531568 h 0.444501 L 23.552374,2.326222 24.406804,1.1359471 H 23.977119 L 23.61658,1.6545316 c -0.08396,0.1333503 -0.18274,0.2815173 -0.27164,0.4148676 h -0.01975 C 23.226407,1.9360489 23.127629,1.7928208 23.043667,1.6644094 L 22.663372,1.1359471 h -0.44944 l 0.844552,1.1557026 z m 3.136204,0 h 0.992719 c 0.726018,0 1.219908,-0.3111507 1.219908,-0.9482688 0,-0.444501 -0.276579,-0.7013238 -0.750713,-0.7754073 v -0.019756 c 0.385234,-0.098778 0.567974,-0.3852342 0.567974,-0.7062627 0,-0.5679735 -0.44944,-0.790224 -1.111253,-0.790224 h -0.918635 z m 0.409928,-1.876782 V 0.6420571 h 0.459318 c 0.498829,0 0.755652,0.1284114 0.755652,0.4790733 0,0.3605397 -0.222251,0.5383401 -0.775407,0.5383401 z m 0,1.531059 v -1.185336 h 0.523524 c 0.567973,0 0.874185,0.1629837 0.874185,0.5630346 0,0.4395621 -0.321028,0.6223014 -0.874185,0.6223014 z m 3.279432,0.4049898 c 0.370417,0 0.651935,-0.197556 0.893941,-0.4790733 h 0.01975 l 0.03457,0.4198065 h 0.330906 V 1.1359471 h -0.40499 v 1.6644093 c -0.266701,0.3111507 -0.469195,0.444501 -0.745774,0.444501 -0.400051,0 -0.553157,-0.2173116 -0.553157,-0.6716904 V 1.1359471 h -0.409928 v 1.4915478 c 0,0.6321792 0.261761,0.9680244 0.834674,0.9680244 z m 3.309065,-0.059267 h 0.40499 V 1.1359471 h -1.521181 v 0.3309063 h 1.116191 z m 0.158045,-2.9040732 c 0.182739,0 0.325968,-0.1234725 0.325968,-0.3160896 C 32.763429,0.1284115 32.6202,1.0299683e-7 32.437461,1.0299683e-7 32.254722,1.0299683e-7 32.111494,0.1284115 32.111494,0.3160897 c 0,0.1926171 0.143228,0.3160896 0.325967,0.3160896 z m 3.254736,2.96334 c 0.261762,0 0.419807,-0.049389 0.642057,-0.1432281 L 36.230537,3.1510183 c -0.162984,0.074083 -0.311151,0.1086558 -0.44944,0.1086558 -0.286456,0 -0.474134,-0.148167 -0.474134,-0.4988289 V 0.0197557 h -1.25942 V 0.350662 h 0.85443 v 2.3805498 c 0,0.5679735 0.281517,0.8643075 0.790224,0.8643075 z m 2.291652,0 c 0.296334,0 0.582791,-0.1728615 0.780347,-0.3753564 h 0.01482 l 0.03457,0.3160896 H 39.14943 V 0.0197557 H 38.74444 V 0.94333 l 0.01976,0.444501 h -0.01482 C 38.541945,1.190275 38.319695,1.0766803 38.033238,1.0766803 c -0.567973,0 -1.091497,0.4840122 -1.091497,1.2643584 0,0.8001018 0.414868,1.2544806 1.042108,1.2544806 z m 0.08396,-0.3407841 c -0.444501,0 -0.706263,-0.345723 -0.706263,-0.9186354 0,-0.5482179 0.335845,-0.9186354 0.750713,-0.9186354 0.207434,0 0.414867,0.079022 0.632179,0.2815173 V 2.8941955 C 38.532067,3.1312627 38.304878,3.2547352 38.067811,3.2547352 Z M 41.17932,1.3977088 c 0.409929,0 0.681568,0.2420061 0.716141,0.7358961 h -1.531059 c 0.07408,-0.4741344 0.419806,-0.7358961 0.814918,-0.7358961 z m 0.05927,2.1978105 c 0.385234,0 0.691446,-0.1284114 0.928513,-0.2864562 L 42.018933,3.0423625 c -0.217311,0.1382892 -0.444501,0.2271894 -0.730957,0.2271894 -0.498829,0 -0.884063,-0.2765784 -0.933452,-0.8198574 h 1.891599 c 0.0099,-0.064206 0.01976,-0.1531059 0.01976,-0.246945 0,-0.6766293 -0.40499,-1.1260692 -1.096436,-1.1260692 -0.642057,0 -1.224847,0.4741344 -1.224847,1.2544806 0,0.8001018 0.572913,1.2643584 1.293992,1.2643584 z m 2.054583,-0.059267 h 0.40499 V 2.128666 c 0.286456,-0.4988289 0.62724,-0.6865071 0.98778,-0.6865071 0.187678,0 0.276578,0.024695 0.444501,0.083961 l 0.09384,-0.3506619 c -0.148167,-0.074083 -0.296334,-0.098778 -0.474134,-0.098778 -0.444501,0 -0.819858,0.2420061 -1.071742,0.6272403 h -0.01482 L 43.629015,1.1359471 H 43.29317 Z m 3.723932,0.059267 c 0.22225,0 0.40005,-0.1679226 0.40005,-0.4148676 0,-0.2518839 -0.1778,-0.4198065 -0.40005,-0.4198065 -0.222251,0 -0.400051,0.1679226 -0.400051,0.4198065 0,0.246945 0.1778,0.4148676 0.400051,0.4148676 z m 3.190534,0 c 0.3556,0 0.686507,-0.1382892 0.953207,-0.3753564 L 50.978104,2.9584012 c -0.197556,0.1679226 -0.444501,0.3012729 -0.740835,0.3012729 -0.553157,0 -0.923574,-0.3704175 -0.923574,-0.9186354 0,-0.5531568 0.380295,-0.9285132 0.933452,-0.9285132 0.251884,0 0.459317,0.1037169 0.656873,0.2765784 L 51.106515,1.4273422 C 50.908959,1.2347251 50.622503,1.0766803 50.23233,1.0766803 c -0.726018,0 -1.338442,0.4593177 -1.338442,1.2643584 0,0.7951629 0.563035,1.2544806 1.313748,1.2544806 z m 1.713799,0.9532077 h 0.404989 V 3.7387474 l -0.01976,-0.4543788 h 0.01482 c 0.212372,0.197556 0.49389,0.3111507 0.71614,0.3111507 0.577851,0 1.091497,-0.4790733 1.091497,-1.2939918 0,-0.7457739 -0.345723,-1.2248472 -0.992719,-1.2248472 -0.296334,0 -0.607485,0.1531059 -0.829735,0.3654786 h -0.01482 L 52.25728,1.1359471 h -0.335845 z m 1.047046,-1.2939918 c -0.162983,0 -0.414867,-0.079022 -0.642057,-0.2815173 V 1.7780041 c 0.246945,-0.246945 0.49389,-0.3605397 0.706263,-0.3605397 0.479073,0 0.676629,0.3556008 0.676629,0.8840631 0,0.592668 -0.31115,0.9532077 -0.740835,0.9532077 z m 1.916294,1.2939918 h 0.40499 V 3.7387474 L 55.27001,3.2843686 h 0.01482 c 0.212373,0.197556 0.49389,0.3111507 0.716141,0.3111507 0.577851,0 1.091497,-0.4790733 1.091497,-1.2939918 0,-0.7457739 -0.345723,-1.2248472 -0.992719,-1.2248472 -0.296334,0 -0.607485,0.1531059 -0.829735,0.3654786 h -0.01482 l -0.03457,-0.3062118 h -0.335846 z m 1.047047,-1.2939918 c -0.162984,0 -0.414867,-0.079022 -0.642057,-0.2815173 V 1.7780041 c 0.246945,-0.246945 0.49389,-0.3605397 0.706263,-0.3605397 0.479073,0 0.676629,0.3556008 0.676629,0.8840631 0,0.592668 -0.311151,0.9532077 -0.740835,0.9532077 z m 2.93865,-1.4273421 c 0.222251,0 0.400051,-0.1679226 0.400051,-0.4148676 0,-0.2518839 -0.1778,-0.4198065 -0.400051,-0.4198065 -0.22225,0 -0.400051,0.1679226 -0.400051,0.4198065 0,0.246945 0.177801,0.4148676 0.400051,0.4148676 z m 0,1.7681262 c 0.222251,0 0.400051,-0.1679226 0.400051,-0.4148676 0,-0.2518839 -0.1778,-0.4198065 -0.400051,-0.4198065 -0.22225,0 -0.400051,0.1679226 -0.400051,0.4198065 0,0.246945 0.177801,0.4148676 0.400051,0.4148676 z m 3.062119,0 c 0.572912,0 1.086558,-0.4790733 1.086558,-1.2989307 0,-0.740835 -0.350662,-1.2199083 -0.997658,-1.2199083 -0.281517,0 -0.587729,0.1432281 -0.80504,0.3654786 h -0.01482 l 0.01482,-0.4642566 V 0.0197557 h -0.40499 v 3.5164968 h 0.325967 L 61.172,3.2695519 h 0.01482 c 0.22719,0.2024949 0.513646,0.3259674 0.745774,0.3259674 z m -0.06421,-0.3407841 c -0.172861,0 -0.424745,-0.079022 -0.651934,-0.2815173 V 1.7780041 c 0.246945,-0.246945 0.49389,-0.3605397 0.706262,-0.3605397 0.479074,0 0.67663,0.3556008 0.67663,0.8840631 0,0.592668 -0.311151,0.9532077 -0.730958,0.9532077 z m 2.662068,0.3407841 c 0.370418,0 0.651935,-0.197556 0.893941,-0.4790733 h 0.01976 l 0.03457,0.4198065 h 0.330906 V 1.1359471 h -0.40499 v 1.6644093 c -0.2667,0.3111507 -0.469195,0.444501 -0.745773,0.444501 -0.400051,0 -0.553157,-0.2173116 -0.553157,-0.6716904 V 1.1359471 h -0.409929 v 1.4915478 c 0,0.6321792 0.261762,0.9680244 0.834674,0.9680244 z m 3.309068,-0.059267 h 0.40499 V 1.1359471 h -1.521182 v 0.3309063 h 1.116192 z m 0.158045,-2.9040732 c 0.182739,0 0.325967,-0.1234725 0.325967,-0.3160896 C 68.323533,0.1284115 68.180305,1.0299683e-7 67.997566,1.0299683e-7 67.814826,1.0299683e-7 67.671598,0.1284115 67.671598,0.3160897 c 0,0.1926171 0.143228,0.3160896 0.325968,0.3160896 z m 3.254735,2.96334 c 0.261762,0 0.419807,-0.049389 0.642057,-0.1432281 L 71.790642,3.1510183 c -0.162984,0.074083 -0.311151,0.1086558 -0.44944,0.1086558 -0.286457,0 -0.474135,-0.148167 -0.474135,-0.4988289 V 0.0197557 H 69.607648 V 0.350662 h 0.854429 v 2.3805498 c 0,0.5679735 0.281518,0.8643075 0.790224,0.8643075 z m 2.291651,0 c 0.296334,0 0.58279,-0.1728615 0.780346,-0.3753564 h 0.01482 l 0.03457,0.3160896 h 0.335845 V 0.0197557 h -0.40499 V 0.94333 l 0.01976,0.444501 h -0.01482 c -0.207434,-0.197556 -0.429684,-0.3111507 -0.71614,-0.3111507 -0.567974,0 -1.091497,0.4840122 -1.091497,1.2643584 0,0.8001018 0.414867,1.2544806 1.042108,1.2544806 z m 0.08396,-0.3407841 c -0.444501,0 -0.706263,-0.345723 -0.706263,-0.9186354 0,-0.5482179 0.335846,-0.9186354 0.750713,-0.9186354 0.207434,0 0.414868,0.079022 0.632179,0.2815173 V 2.8941955 C 74.09217,3.1312627 73.86498,3.2547352 73.627913,3.2547352 Z m 3.022611,-1.4273421 c 0.222251,0 0.400051,-0.1679226 0.400051,-0.4148676 0,-0.2518839 -0.1778,-0.4198065 -0.400051,-0.4198065 -0.22225,0 -0.40005,0.1679226 -0.40005,0.4198065 0,0.246945 0.1778,0.4148676 0.40005,0.4148676 z m 0,1.7681262 c 0.222251,0 0.400051,-0.1679226 0.400051,-0.4148676 0,-0.2518839 -0.1778,-0.4198065 -0.400051,-0.4198065 -0.22225,0 -0.40005,0.1679226 -0.40005,0.4198065 0,0.246945 0.1778,0.4148676 0.40005,0.4148676 z m 1.960741,-0.059267 h 2.138543 V 3.2004073 H 79.925012 V 0.3852343 H 79.623739 C 79.421244,0.4938901 79.184177,0.5679736 78.81376,0.6173626 v 0.2617617 h 0.706262 v 2.321283 h -0.908757 z m 3.965945,0.059267 c 0.701324,0 1.131008,-0.5976069 1.131008,-1.6446537 0,-1.0569246 -0.429684,-1.6248981 -1.131008,-1.6248981 -0.701324,0 -1.131008,0.5679735 -1.131008,1.6248981 0,1.0470468 0.429684,1.6446537 1.131008,1.6446537 z m 0,-0.3259674 c -0.439562,0 -0.750713,-0.4148676 -0.750713,-1.3186863 0,-0.9087576 0.311151,-1.2989307 0.750713,-1.2989307 0.439562,0 0.750713,0.3901731 0.750713,1.2989307 0,0.9038187 -0.311151,1.3186863 -0.750713,1.3186863 z m 0,-1.0223523 c 0.162983,0 0.306212,-0.1234725 0.306212,-0.3309063 0,-0.2024949 -0.143229,-0.3259674 -0.306212,-0.3259674 -0.162984,0 -0.306212,0.1234725 -0.306212,0.3259674 0,0.2074338 0.143228,0.3309063 0.306212,0.3309063 z m 2.963341,1.3483197 c 0.701323,0 1.131008,-0.5976069 1.131008,-1.6446537 0,-1.0569246 -0.429685,-1.6248981 -1.131008,-1.6248981 -0.701324,0 -1.131009,0.5679735 -1.131009,1.6248981 0,1.0470468 0.429685,1.6446537 1.131009,1.6446537 z m 0,-0.3259674 c -0.439563,0 -0.750713,-0.4148676 -0.750713,-1.3186863 0,-0.9087576 0.31115,-1.2989307 0.750713,-1.2989307 0.439562,0 0.750712,0.3901731 0.750712,1.2989307 0,0.9038187 -0.31115,1.3186863 -0.750712,1.3186863 z m 0,-1.0223523 c 0.162983,0 0.306211,-0.1234725 0.306211,-0.3309063 0,-0.2024949 -0.143228,-0.3259674 -0.306211,-0.3259674 -0.162984,0 -0.306212,0.1234725 -0.306212,0.3259674 0,0.2074338 0.143228,0.3309063 0.306212,0.3309063 z m 1.965682,2.0397657 h 1.368076 v -4.247454 h -1.368076 v 0.2321283 h 1.042108 V 4.054837 h -1.042108 z"
     id="text3"
     aria-label="[MaxBuilder.cpp:build:100]" />
  <path
     style="-inkscape-font-specification:'Source Code Pro';fill:#61aef9;stroke-linecap:square;stroke-miterlimit:35.2;stroke-opacity:0.988235;paint-order:stroke fill markers"
     d="M 2.2590638e-7,3.884445 H 2.232383 V 3.2720214 H 1.4816702 V 1.2767058 H 2.232383 V 0.66428216 H 2.2590638e-7 V 1.2767058 H 0.75071302 V 3.2720214 H 2.2590638e-7 Z M 2.923831,3.884445 H 3.6202159 V 2.7435591 c 0,-0.3802953 -0.069145,-0.8099796 -0.1037169,-1.1655804 h 0.019756 L 3.812833,2.2793025 4.4894623,3.884445 H 5.2352362 V 0.66428216 H 4.5388513 V 1.8051681 c 0,0.3802953 0.069145,0.8297352 0.1037169,1.1705193 H 4.6228126 L 4.3462342,2.2644858 3.6696049,0.66428216 H 2.923831 Z m 3.155959,0 H 6.8058083 V 2.6349033 H 8.0108999 V 2.0224797 H 6.8058083 V 1.2767058 H 8.2183337 V 0.66428216 H 6.07979 Z m 3.926428,0.059267 c 0.765529,0 1.293992,-0.5827902 1.293992,-1.6841649 0,-1.0766802 -0.528463,-1.65453154 -1.293992,-1.65453154 -0.7655298,0 -1.2939921,0.57785134 -1.2939921,1.65453154 0,1.1013747 0.5284623,1.6841649 1.2939921,1.6841649 z m 0,-0.6272403 c -0.3358455,0 -0.5482182,-0.3605397 -0.5482182,-1.0569246 0,-0.6667515 0.2123727,-1.0272912 0.5482182,-1.0272912 0.335845,0 0.548218,0.3605397 0.548218,1.0272912 0,0.6963849 -0.212373,1.0569246 -0.548218,1.0569246 z"
     id="text2"
     aria-label="INFO" />
</svg>
