<?xml version="1.0" encoding="UTF-8" standalone="no"?>
<!-- Created with Inkscape (http://www.inkscape.org/) -->

<svg
   width="145.97742mm"
   height="5.2846975mm"
   viewBox="0 0 145.97742 5.2846975"
   version="1.1"
   id="svg1"
   xmlns="http://www.w3.org/2000/svg"
   xmlns:svg="http://www.w3.org/2000/svg">
  <defs
     id="defs1" />
  <path
     style="font-size:4.9389px;line-height:1.1;font-family:'Source Code Pro';-inkscape-font-specification:'Source Code Pro';text-align:center;text-anchor:middle;fill:#c678dd;stroke-linecap:square;stroke-miterlimit:35.2;stroke-opacity:0.988235;paint-order:stroke fill markers"
     d="m 98.328721,37.013451 h 0.414867 v -2.894196 h 1.066803 v -0.345723 h -2.548473 v 0.345723 h 1.066803 z m 2.148419,0 h 0.40499 v -1.674287 c 0.28152,-0.291396 0.47414,-0.434624 0.76059,-0.434624 0.39512,0 0.55316,0.217312 0.55316,0.671691 v 1.43722 h 0.40499 v -1.491548 c 0,-0.632179 -0.26176,-0.968025 -0.82973,-0.968025 -0.37536,0 -0.65194,0.202495 -0.89888,0.469196 h -0.0148 l 0.0247,-0.567974 v -0.958146 h -0.40499 z m 4.0746,-2.138544 c 0.40993,0 0.68157,0.242006 0.71614,0.735896 h -1.53106 c 0.0741,-0.474134 0.41981,-0.735896 0.81492,-0.735896 z m 0.0593,2.19781 c 0.38523,0 0.69144,-0.128411 0.92851,-0.286456 l -0.14817,-0.2667 c -0.21731,0.138289 -0.4445,0.227189 -0.73096,0.227189 -0.49882,0 -0.88406,-0.276578 -0.93345,-0.819857 h 1.8916 c 0.01,-0.06421 0.0198,-0.153106 0.0198,-0.246945 0,-0.67663 -0.40499,-1.12607 -1.09644,-1.12607 -0.64206,0 -1.22485,0.474135 -1.22485,1.254481 0,0.800102 0.57292,1.264358 1.294,1.264358 z m 5.49206,-0.05927 h 0.40005 v -2.069399 h 1.00753 v -0.330907 h -1.00753 v -0.217311 c 0,-0.390173 0.1778,-0.627241 0.60748,-0.627241 0.20744,0 0.36054,0.02469 0.5581,0.113595 l 0.0938,-0.306212 c -0.22719,-0.09384 -0.45438,-0.138289 -0.69145,-0.138289 -0.66181,0 -0.96802,0.385234 -0.96802,0.972963 v 0.202495 l -0.68651,0.02469 v 0.306212 h 0.68651 z m 3.32882,0 h 0.40499 v -2.400306 h -1.52119 v 0.330907 h 1.1162 z m 0.15804,-2.904074 c 0.18274,0 0.32597,-0.123472 0.32597,-0.316089 0,-0.187678 -0.14323,-0.31609 -0.32597,-0.31609 -0.18274,0 -0.32597,0.128412 -0.32597,0.31609 0,0.192617 0.14323,0.316089 0.32597,0.316089 z m 1.96569,2.904074 h 0.40499 v -1.407587 c 0.28645,-0.498829 0.62724,-0.686507 0.98778,-0.686507 0.18767,0 0.27657,0.0247 0.4445,0.08396 l 0.0938,-0.350662 c -0.14817,-0.07408 -0.29634,-0.09878 -0.47414,-0.09878 -0.4445,0 -0.81986,0.242007 -1.07174,0.627241 h -0.0148 l -0.0346,-0.567974 h -0.33584 z m 3.77332,0.05927 c 0.6865,0 1.0668,-0.325967 1.0668,-0.71614 0,-0.365479 -0.19262,-0.567974 -0.99272,-0.740835 -0.48895,-0.103717 -0.69639,-0.192617 -0.69639,-0.400051 0,-0.182739 0.14323,-0.345723 0.55316,-0.345723 0.30621,0 0.58279,0.09878 0.80504,0.251884 l 0.19756,-0.261762 c -0.23707,-0.162983 -0.60255,-0.306212 -0.96803,-0.306212 -0.65687,0 -0.99765,0.296334 -0.99765,0.681569 0,0.360539 0.31609,0.572912 0.93839,0.701323 0.65193,0.133351 0.75071,0.261762 0.75071,0.444501 0,0.202495 -0.20249,0.375357 -0.60748,0.375357 -0.44451,0 -0.76553,-0.128412 -1.04211,-0.325968 l -0.18768,0.266701 c 0.29139,0.202495 0.7112,0.375356 1.1804,0.375356 z m 3.37821,0 c 0.30127,0 0.5334,-0.0642 0.75071,-0.143228 l -0.0889,-0.296334 c -0.17286,0.06421 -0.35066,0.108656 -0.57785,0.108656 -0.46426,0 -0.60749,-0.227189 -0.60749,-0.656874 v -1.140885 h 1.1804 v -0.330907 h -1.1804 v -0.770468 h -0.33584 l -0.0543,0.770468 -0.69145,0.02469 v 0.306212 h 0.67663 v 1.135947 c 0,0.592668 0.22719,0.992718 0.92852,0.992718 z m 4.44007,-0.05927 h 0.40499 v -1.674287 c 0.28152,-0.291396 0.47414,-0.434624 0.76059,-0.434624 0.39511,0 0.55316,0.217312 0.55316,0.671691 v 1.43722 h 0.40499 v -1.491548 c 0,-0.632179 -0.26176,-0.968025 -0.82974,-0.968025 -0.37535,0 -0.65193,0.202495 -0.90382,0.469196 h -0.0198 l -0.0346,-0.409929 h -0.33585 z m 3.71899,0.05927 c 0.37042,0 0.65194,-0.197556 0.89394,-0.479073 h 0.0198 l 0.0346,0.419807 h 0.33091 v -2.400306 h -0.40499 v 1.66441 c -0.2667,0.31115 -0.4692,0.444501 -0.74577,0.444501 -0.40006,0 -0.55316,-0.217312 -0.55316,-0.671691 v -1.43722 h -0.40993 v 1.491548 c 0,0.632179 0.26176,0.968024 0.83467,0.968024 z m 2.03484,-0.05927 h 0.40498 v -1.738493 c 0.11854,-0.246945 0.22719,-0.370418 0.39512,-0.370418 0.1778,0 0.24694,0.143228 0.24694,0.419807 v 1.689104 h 0.37536 v -1.738493 c 0.12841,-0.246945 0.21731,-0.370418 0.38523,-0.370418 0.1778,0 0.25683,0.143228 0.25683,0.419807 v 1.689104 h 0.40498 v -1.718738 c 0,-0.479073 -0.19755,-0.740835 -0.5334,-0.740835 -0.27657,0 -0.42474,0.158045 -0.56303,0.414868 -0.0691,-0.276578 -0.21731,-0.414868 -0.45438,-0.414868 -0.27658,0 -0.42474,0.153106 -0.54822,0.375357 h -0.01 l -0.0346,-0.31609 h -0.32596 z m 4.25733,0.05927 c 0.57291,0 1.08656,-0.479073 1.08656,-1.29893 0,-0.740835 -0.35067,-1.219909 -0.99766,-1.219909 -0.28152,0 -0.58773,0.143229 -0.80504,0.365479 h -0.0148 l 0.0148,-0.464257 v -0.958146 h -0.40499 v 3.516497 h 0.32596 l 0.0346,-0.266701 h 0.0148 c 0.22719,0.202495 0.51365,0.325967 0.74578,0.325967 z m -0.0642,-0.340784 c -0.17286,0 -0.42474,-0.07902 -0.65193,-0.281517 v -1.195214 c 0.24694,-0.246945 0.49389,-0.360539 0.70626,-0.360539 0.47907,0 0.67663,0.3556 0.67663,0.884063 0,0.592668 -0.31115,0.953207 -0.73096,0.953207 z m 3.01767,-1.857026 c 0.40993,0 0.68157,0.242006 0.71614,0.735896 h -1.53106 c 0.0741,-0.474134 0.41981,-0.735896 0.81492,-0.735896 z m 0.0593,2.19781 c 0.38523,0 0.69144,-0.128411 0.92851,-0.286456 l -0.14817,-0.2667 c -0.21731,0.138289 -0.4445,0.227189 -0.73095,0.227189 -0.49883,0 -0.88407,-0.276578 -0.93346,-0.819857 h 1.8916 c 0.01,-0.06421 0.0198,-0.153106 0.0198,-0.246945 0,-0.67663 -0.40499,-1.12607 -1.09644,-1.12607 -0.64205,0 -1.22484,0.474135 -1.22484,1.254481 0,0.800102 0.57291,1.264358 1.29399,1.264358 z m 2.05458,-0.05927 h 0.40499 v -1.407587 c 0.28646,-0.498829 0.62724,-0.686507 0.98778,-0.686507 0.18768,0 0.27658,0.0247 0.44451,0.08396 l 0.0938,-0.350662 c -0.14816,-0.07408 -0.29633,-0.09878 -0.47413,-0.09878 -0.4445,0 -0.81986,0.242007 -1.07174,0.627241 h -0.0148 l -0.0346,-0.567974 h -0.33585 z m 6.7663,0 h 0.40499 v -2.400306 h -1.52118 v 0.330907 h 1.11619 z m 0.15804,-2.904074 c 0.18274,0 0.32597,-0.123472 0.32597,-0.316089 0,-0.187678 -0.14323,-0.31609 -0.32597,-0.31609 -0.18274,0 -0.32596,0.128412 -0.32596,0.31609 0,0.192617 0.14322,0.316089 0.32596,0.316089 z m 2.77567,2.96334 c 0.68651,0 1.0668,-0.325967 1.0668,-0.71614 0,-0.365479 -0.19261,-0.567974 -0.99272,-0.740835 -0.48895,-0.103717 -0.69638,-0.192617 -0.69638,-0.400051 0,-0.182739 0.14323,-0.345723 0.55316,-0.345723 0.30621,0 0.58279,0.09878 0.80504,0.251884 l 0.19755,-0.261762 c -0.23707,-0.162983 -0.60254,-0.306212 -0.96802,-0.306212 -0.65688,0 -0.99766,0.296334 -0.99766,0.681569 0,0.360539 0.31609,0.572912 0.93839,0.701323 0.65194,0.133351 0.75071,0.261762 0.75071,0.444501 0,0.202495 -0.20249,0.375357 -0.60748,0.375357 -0.4445,0 -0.76553,-0.128412 -1.04211,-0.325968 l -0.18768,0.266701 c 0.2914,0.202495 0.7112,0.375356 1.1804,0.375356 z m 4.75616,-0.05927 h 2.21757 v -0.350662 h -1.03717 c -0.18768,0 -0.39017,0.01482 -0.58773,0.02963 0.85937,-0.780346 1.45204,-1.368075 1.45204,-1.960743 0,-0.558096 -0.39512,-0.928513 -1.02729,-0.928513 -0.44451,0 -0.75566,0.192617 -1.03717,0.479073 l 0.23212,0.232128 c 0.2025,-0.212372 0.45932,-0.380295 0.75566,-0.380295 0.46425,0 0.6865,0.256823 0.6865,0.617362 0,0.523524 -0.58773,1.076681 -1.65453,2.020011 z m 3.94619,-1.145825 h 0.27658 l 0.0494,-1.698982 0.01,-0.464256 h -0.39511 l 0.01,0.464256 z m 0.13829,1.205091 c 0.19755,0 0.36054,-0.148167 0.36054,-0.385234 0,-0.232128 -0.16299,-0.375356 -0.36054,-0.375356 -0.19756,0 -0.36054,0.143228 -0.36054,0.375356 0,0.237067 0.16298,0.385234 0.36054,0.385234 z"
     id="text1"
     transform="translate(-15.149466,-32.612854)"
     aria-label="The first number is 2!" />
  <rect
     style="fill:#c678dd;fill-opacity:1;stroke:none;stroke-width:1;stroke-linecap:square;stroke-miterlimit:35.2;stroke-opacity:0.988235;paint-order:stroke fill markers"
     id="rect2"
     width="79.798935"
     height="5.2846975"
     x="15.149466"
     y="32.612854"
     transform="translate(-15.149466,-32.612854)" />
  <path
     style="font-weight:bold;font-size:4.9389px;line-height:1.1;font-family:'Source Code Pro';-inkscape-font-specification:'Source Code Pro';text-align:center;text-anchor:middle;fill:#ffffff;stroke-linecap:square;stroke-miterlimit:35.2;stroke-opacity:0.988235;paint-order:stroke fill markers"
     d="m 15.943514,37.391277 h 1.461915 v -0.385234 h -0.908758 v -3.476986 h 0.908758 v -0.385234 h -1.461915 z m 2.148424,-0.750713 h 0.691446 v -1.654532 c 0.06421,-0.158044 0.123472,-0.237067 0.217311,-0.237067 0.09384,0 0.13829,0.07408 0.13829,0.222251 v 1.669348 h 0.567973 v -1.654532 c 0.06914,-0.158044 0.13335,-0.237067 0.222251,-0.237067 0.09878,0 0.13335,0.07408 0.13335,0.222251 v 1.669348 h 0.691446 v -1.718737 c 0,-0.488951 -0.197556,-0.790224 -0.548218,-0.790224 -0.281517,0 -0.454379,0.1778 -0.543279,0.400051 -0.05927,-0.261762 -0.212373,-0.400051 -0.424745,-0.400051 -0.281518,0 -0.439562,0.162983 -0.528463,0.360539 h -0.01975 l -0.04939,-0.301272 h -0.548218 z m 3.496743,0.958147 c 0.617362,0 0.908758,-0.31609 1.145825,-0.933453 L 23.70253,34.19087 h -0.686507 l -0.36054,1.051985 c -0.07408,0.242006 -0.158044,0.49389 -0.22225,0.735896 h -0.01976 c -0.07902,-0.256822 -0.158045,-0.503767 -0.246945,-0.735896 L 21.756604,34.19087 h -0.72108 l 1.061864,2.385488 -0.04939,0.128412 c -0.07902,0.192617 -0.232129,0.321028 -0.513646,0.321028 -0.06421,0 -0.128411,-0.0099 -0.192617,-0.02963 l -0.128411,0.553157 c 0.103716,0.02963 0.232128,0.04939 0.375356,0.04939 z m 2.553413,-0.148167 h 2.370672 v -0.543279 h -2.370672 z m 4.128923,-0.750713 c 0.785285,0 1.205091,-0.345723 1.205091,-0.790224 0,-0.400051 -0.207434,-0.612424 -0.963085,-0.785285 -0.414868,-0.09384 -0.567974,-0.123473 -0.567974,-0.261762 0,-0.113595 0.113595,-0.192617 0.340784,-0.192617 0.27164,0 0.553157,0.08396 0.800102,0.232128 l 0.325967,-0.434623 c -0.256822,-0.162984 -0.622301,-0.335845 -1.061863,-0.335845 -0.696385,0 -1.126069,0.31115 -1.126069,0.765529 0,0.380296 0.2667,0.622302 0.933452,0.76553 0.479073,0.103717 0.602546,0.153106 0.602546,0.291395 0,0.118533 -0.123473,0.207434 -0.390173,0.207434 -0.350662,0 -0.686508,-0.103717 -0.98778,-0.291395 l -0.311151,0.454378 c 0.311151,0.207434 0.76059,0.375357 1.200153,0.375357 z m 2.602802,0 c 0.350661,0 0.607484,-0.162984 0.824796,-0.409929 h 0.01975 l 0.05433,0.350662 h 0.592668 V 34.19087 h -0.726018 v 1.610081 c -0.167923,0.217312 -0.296334,0.281517 -0.479073,0.281517 -0.27164,0 -0.355601,-0.148167 -0.355601,-0.474134 V 34.19087 h -0.726018 v 1.511303 c 0,0.617362 0.237067,0.997658 0.795163,0.997658 z m 2.034829,-0.05927 h 0.691446 v -1.654532 c 0.06421,-0.158044 0.123473,-0.237067 0.217312,-0.237067 0.09384,0 0.138289,0.07408 0.138289,0.222251 v 1.669348 h 0.567973 v -1.654532 c 0.06914,-0.158044 0.133351,-0.237067 0.222251,-0.237067 0.09878,0 0.13335,0.07408 0.13335,0.222251 v 1.669348 h 0.691446 v -1.718737 c 0,-0.488951 -0.197556,-0.790224 -0.548218,-0.790224 -0.281517,0 -0.454379,0.1778 -0.543279,0.400051 -0.05927,-0.261762 -0.212372,-0.400051 -0.424745,-0.400051 -0.281517,0 -0.439562,0.162983 -0.528462,0.360539 h -0.01976 l -0.04939,-0.301272 h -0.548218 z m 3.086813,0.80998 h 2.370672 v -0.543279 h -2.370672 z m 3.718995,-0.80998 h 0.726018 v -1.881721 h 0.844552 V 34.19087 h -0.844552 v -0.06914 c 0,-0.296334 0.148167,-0.429684 0.459318,-0.429684 0.187678,0 0.360539,0.03457 0.513645,0.09384 l 0.138289,-0.533401 c -0.207433,-0.06914 -0.459317,-0.133351 -0.740835,-0.133351 -0.765529,0 -1.096435,0.444501 -1.096435,1.007536 v 0.06421 l -0.646996,0.02963 v 0.53834 h 0.646996 z m 3.012731,0.05927 c 0.350662,0 0.607485,-0.162984 0.824797,-0.409929 h 0.01976 l 0.05433,0.350662 h 0.592668 V 34.19087 h -0.726018 v 1.610081 c -0.167923,0.217312 -0.296334,0.281517 -0.479073,0.281517 -0.27164,0 -0.355601,-0.148167 -0.355601,-0.474134 V 34.19087 h -0.726019 v 1.511303 c 0,0.617362 0.237068,0.997658 0.795163,0.997658 z m 2.217567,-0.05927 h 0.726019 v -1.634776 c 0.172861,-0.167923 0.301272,-0.256823 0.498828,-0.256823 0.266701,0 0.36054,0.148167 0.36054,0.474135 v 1.417464 h 0.726018 v -1.511303 c 0,-0.617363 -0.246945,-0.997658 -0.800101,-0.997658 -0.365479,0 -0.63218,0.1778 -0.844552,0.385234 h -0.01976 l -0.05433,-0.325967 h -0.592668 z m 4.301783,0.05927 c 0.335845,0 0.711201,-0.113595 1.007535,-0.36054 l -0.291395,-0.459318 c -0.1778,0.123473 -0.390173,0.232129 -0.646996,0.232129 -0.404989,0 -0.686507,-0.27164 -0.686507,-0.696385 0,-0.424746 0.291395,-0.696385 0.711202,-0.696385 0.182739,0 0.355601,0.05927 0.543279,0.192617 l 0.335845,-0.44944 c -0.207434,-0.192617 -0.533401,-0.330906 -0.918635,-0.330906 -0.755652,0 -1.417465,0.469195 -1.417465,1.284114 0,0.814918 0.592668,1.284114 1.363137,1.284114 z m 3.185595,0 c 0.325967,0 0.58279,-0.06915 0.800102,-0.133351 l -0.128412,-0.523523 c -0.148167,0.04939 -0.301273,0.0889 -0.484012,0.0889 -0.36054,0 -0.518584,-0.143228 -0.518584,-0.513645 v -0.859369 h 1.037169 V 34.19087 h -1.037169 v -0.750713 h -0.597607 l -0.09384,0.750713 -0.651935,0.02963 v 0.53834 h 0.617362 v 0.864308 c 0,0.642057 0.276579,1.07668 1.056925,1.07668 z m 2.420062,-0.05927 h 0.726018 V 34.19087 h -1.708859 v 0.567973 h 0.982841 z M 55.1831,33.805635 c 0.281517,0 0.484012,-0.172861 0.484012,-0.439562 0,-0.2667 -0.202495,-0.454379 -0.484012,-0.454379 -0.281517,0 -0.484012,0.187679 -0.484012,0.454379 0,0.266701 0.202495,0.439562 0.484012,0.439562 z m 2.74109,2.894196 c 0.646996,0 1.249542,-0.469196 1.249542,-1.284114 0,-0.814919 -0.602546,-1.284114 -1.249542,-1.284114 -0.646996,0 -1.249541,0.469195 -1.249541,1.284114 0,0.814918 0.602545,1.284114 1.249541,1.284114 z m 0,-0.587729 c -0.335845,0 -0.503768,-0.27164 -0.503768,-0.696385 0,-0.424746 0.167923,-0.696385 0.503768,-0.696385 0.335845,0 0.503768,0.271639 0.503768,0.696385 0,0.424745 -0.167923,0.696385 -0.503768,0.696385 z m 1.837276,0.528462 h 0.726018 v -1.634776 c 0.172861,-0.167923 0.301273,-0.256823 0.498829,-0.256823 0.2667,0 0.36054,0.148167 0.36054,0.474135 v 1.417464 h 0.726018 v -1.511303 c 0,-0.617363 -0.246945,-0.997658 -0.800102,-0.997658 -0.365479,0 -0.632179,0.1778 -0.844552,0.385234 h -0.01975 l -0.05433,-0.325967 h -0.592668 z m 4.08941,0.05927 c 0.340784,0 0.572912,-0.251884 0.572912,-0.577852 0,-0.325967 -0.232128,-0.58279 -0.572912,-0.58279 -0.340785,0 -0.572913,0.256823 -0.572913,0.58279 0,0.325968 0.232128,0.577852 0.572913,0.577852 z m 3.175713,0 c 0.335845,0 0.711202,-0.113595 1.007536,-0.36054 L 67.74273,35.879973 c -0.177801,0.123473 -0.390174,0.232129 -0.646996,0.232129 -0.40499,0 -0.686507,-0.27164 -0.686507,-0.696385 0,-0.424746 0.291395,-0.696385 0.711201,-0.696385 0.182739,0 0.355601,0.05927 0.543279,0.192617 l 0.335845,-0.44944 c -0.207433,-0.192617 -0.533401,-0.330906 -0.918635,-0.330906 -0.755652,0 -1.417464,0.469195 -1.417464,1.284114 0,0.814918 0.592668,1.284114 1.363136,1.284114 z m 1.624903,0.849491 h 0.726018 v -0.716141 l -0.03457,-0.400051 h 0.01975 c 0.172862,0.172862 0.385235,0.266701 0.602546,0.266701 0.548218,0 1.061864,-0.484012 1.061864,-1.323625 0,-0.755652 -0.370418,-1.244603 -0.982841,-1.244603 -0.261762,0 -0.533402,0.128411 -0.730958,0.306212 h -0.01482 L 69.24416,34.19087 h -0.592668 z m 1.145825,-1.442159 c -0.123473,0 -0.281518,-0.04445 -0.419807,-0.162984 V 34.95146 c 0.153106,-0.158045 0.296334,-0.227189 0.454379,-0.227189 0.306212,0 0.44944,0.22225 0.44944,0.661812 0,0.503768 -0.212373,0.72108 -0.484012,0.72108 z m 1.817515,1.442159 h 0.726019 v -0.716141 l -0.03457,-0.400051 h 0.01976 c 0.172862,0.172862 0.385234,0.266701 0.602546,0.266701 0.548218,0 1.061863,-0.484012 1.061863,-1.323625 0,-0.755652 -0.370417,-1.244603 -0.982841,-1.244603 -0.261761,0 -0.533401,0.128411 -0.730957,0.306212 h -0.01482 L 72.2075,34.19087 h -0.592668 z m 1.145825,-1.442159 c -0.123472,0 -0.281517,-0.04445 -0.419806,-0.162984 V 34.95146 c 0.153106,-0.158045 0.296334,-0.227189 0.454379,-0.227189 0.306211,0 0.449439,0.22225 0.449439,0.661812 0,0.503768 -0.212372,0.72108 -0.484012,0.72108 z m 2.943585,-1.002597 c 0.340785,0 0.572913,-0.251884 0.572913,-0.577851 0,-0.325968 -0.232128,-0.58279 -0.572913,-0.58279 -0.340784,0 -0.572912,0.256822 -0.572912,0.58279 0,0.325967 0.232128,0.577851 0.572912,0.577851 z m 0,1.595265 c 0.340785,0 0.572913,-0.251884 0.572913,-0.577852 0,-0.325967 -0.232128,-0.58279 -0.572913,-0.58279 -0.340784,0 -0.572912,0.256823 -0.572912,0.58279 0,0.325968 0.232128,0.577852 0.572912,0.577852 z m 2.943589,0 c 0.785286,0 1.205092,-0.345723 1.205092,-0.790224 0,-0.400051 -0.207434,-0.612424 -0.963085,-0.785285 -0.414868,-0.09384 -0.567974,-0.123473 -0.567974,-0.261762 0,-0.113595 0.113595,-0.192617 0.340784,-0.192617 0.27164,0 0.553157,0.08396 0.800102,0.232128 l 0.325967,-0.434623 c -0.256822,-0.162984 -0.622301,-0.335845 -1.061863,-0.335845 -0.696385,0 -1.126069,0.31115 -1.126069,0.765529 0,0.380296 0.2667,0.622302 0.933452,0.76553 0.479073,0.103717 0.602546,0.153106 0.602546,0.291395 0,0.118533 -0.123473,0.207434 -0.390174,0.207434 -0.350661,0 -0.686507,-0.103717 -0.98778,-0.291395 l -0.31115,0.454378 c 0.31115,0.207434 0.76059,0.375357 1.200152,0.375357 z m 2.602798,0 c 0.350662,0 0.607484,-0.162984 0.824796,-0.409929 h 0.01976 l 0.05433,0.350662 h 0.592668 V 34.19087 h -0.726018 v 1.610081 c -0.167922,0.217312 -0.296334,0.281517 -0.479073,0.281517 -0.27164,0 -0.355601,-0.148167 -0.355601,-0.474134 V 34.19087 h -0.726018 v 1.511303 c 0,0.617362 0.237067,0.997658 0.795163,0.997658 z m 2.034835,-0.05927 h 0.691446 v -1.654532 c 0.06421,-0.158044 0.123472,-0.237067 0.217311,-0.237067 0.09384,0 0.13829,0.07408 0.13829,0.222251 v 1.669348 h 0.567973 v -1.654532 c 0.06914,-0.158044 0.13335,-0.237067 0.222251,-0.237067 0.09878,0 0.13335,0.07408 0.13335,0.222251 v 1.669348 h 0.691446 v -1.718737 c 0,-0.488951 -0.197556,-0.790224 -0.548218,-0.790224 -0.281517,0 -0.454379,0.1778 -0.543279,0.400051 -0.05927,-0.261762 -0.212373,-0.400051 -0.424745,-0.400051 -0.281518,0 -0.439562,0.162983 -0.528463,0.360539 h -0.01976 l -0.04939,-0.301272 h -0.548218 z m 4.272149,-1.535998 c 0.340784,0 0.572913,-0.251884 0.572913,-0.577851 0,-0.325968 -0.232129,-0.58279 -0.572913,-0.58279 -0.340784,0 -0.572912,0.256822 -0.572912,0.58279 0,0.325967 0.232128,0.577851 0.572912,0.577851 z m 0,1.595265 c 0.340784,0 0.572913,-0.251884 0.572913,-0.577852 0,-0.325967 -0.232129,-0.58279 -0.572913,-0.58279 -0.340784,0 -0.572912,0.256823 -0.572912,0.58279 0,0.325968 0.232128,0.577852 0.572912,0.577852 z m 2.859624,0 c 0.661813,0 1.244603,-0.330907 1.244603,-0.913697 0,-0.40499 -0.306212,-0.661812 -0.701324,-0.765529 v -0.01976 c 0.375356,-0.143228 0.597607,-0.370417 0.597607,-0.696385 0,-0.548218 -0.474135,-0.859368 -1.155703,-0.859368 -0.40499,0 -0.76059,0.153106 -1.066802,0.400051 l 0.365478,0.444501 c 0.217312,-0.172862 0.419807,-0.276579 0.666752,-0.276579 0.286456,0 0.464257,0.128412 0.464257,0.345723 0,0.251884 -0.22719,0.419807 -0.844552,0.419807 v 0.513645 c 0.735896,0 0.948268,0.172862 0.948268,0.44944 0,0.237067 -0.246945,0.370418 -0.587729,0.370418 -0.286456,0 -0.558095,-0.133351 -0.765529,-0.31609 l -0.335845,0.459318 c 0.242006,0.2667 0.632179,0.444501 1.170519,0.444501 z m 2.099033,0.691446 h 1.461915 V 33.143823 H 92.51627 v 0.385234 h 0.908758 v 3.476986 H 92.51627 Z"
     id="text2"
     aria-label="[my_sum_function.cpp:sum:3]"
     transform="translate(-15.149466,-32.612854)" />
</svg>
