<?xml version="1.0" encoding="UTF-8" standalone="no"?>
<!-- Created with Inkscape (http://www.inkscape.org/) -->

<svg
   width="241.39304mm"
   height="4.9771743mm"
   viewBox="0 0 241.39304 4.9771742"
   version="1.1"
   id="svg1"
   xmlns="http://www.w3.org/2000/svg"
   xmlns:svg="http://www.w3.org/2000/svg">
  <defs
     id="defs1" />
  <path
     d="m 130.56404,3.8708608 h 0.41487 V 2.4188242 h 1.3335 v -0.345723 h -1.3335 V 0.97666542 h 1.57551 v -0.345723 h -1.99038 z m 3.86716,0 h 0.40499 V 1.4705554 h -1.52118 v 0.3309063 h 1.11619 z m 0.15805,-2.90407318 c 0.18274,0 0.32596,-0.1234725 0.32596,-0.3160896 0,-0.1876782 -0.14322,-0.3160896 -0.32596,-0.3160896 -0.18274,0 -0.32597,0.1284114 -0.32597,0.3160896 0,0.1926171 0.14323,0.3160896 0.32597,0.3160896 z m 3.25473,2.96333998 c 0.26177,0 0.41981,-0.049389 0.64206,-0.1432281 l -0.10372,-0.3012729 c -0.16298,0.074084 -0.31115,0.1086558 -0.44944,0.1086558 -0.28645,0 -0.47413,-0.148167 -0.47413,-0.4988289 V 0.35436402 h -1.25942 v 0.3309063 h 0.85443 V 3.0658201 c 0,0.5679735 0.28152,0.8643075 0.79022,0.8643075 z m 2.52378,-2.1978105 c 0.40993,0 0.68157,0.2420061 0.71614,0.7358961 h -1.53106 c 0.0741,-0.4741344 0.41981,-0.7358961 0.81492,-0.7358961 z m 0.0593,2.1978105 c 0.38523,0 0.69145,-0.1284114 0.92851,-0.2864562 l -0.14816,-0.2667006 c -0.21732,0.1382892 -0.4445,0.2271894 -0.73096,0.2271894 -0.49883,0 -0.88406,-0.2765784 -0.93345,-0.8198574 h 1.8916 c 0.01,-0.064206 0.0197,-0.1531059 0.0197,-0.246945 0,-0.6766293 -0.40499,-1.1260692 -1.09643,-1.1260692 -0.64206,0 -1.22485,0.4741344 -1.22485,1.2544806 0,0.8001018 0.57291,1.2643584 1.29399,1.2643584 z m 6.00571,0 c 0.3556,0 0.6865,-0.1382892 0.9532,-0.3753564 L 147.2032,3.2930095 c -0.19755,0.1679226 -0.4445,0.3012729 -0.74083,0.3012729 -0.55316,0 -0.92357,-0.3704175 -0.92357,-0.9186354 0,-0.5531568 0.38029,-0.9285132 0.93345,-0.9285132 0.25188,0 0.45931,0.1037169 0.65687,0.2765784 l 0.2025,-0.2617617 c -0.19756,-0.1926171 -0.48402,-0.3506619 -0.87419,-0.3506619 -0.72602,0 -1.33844,0.4593177 -1.33844,1.2643584 0,0.7951629 0.56303,1.2544806 1.31375,1.2544806 z m 2.46945,0 c 0.34078,0 0.68157,-0.1778004 0.94827,-0.3852342 h 0.0148 l 0.0346,0.3259674 h 0.3309 V 2.3990686 c 0,-0.5976069 -0.31609,-0.98778 -0.97296,-0.98778 -0.41981,0 -0.8248,0.1876782 -1.0668,0.345723 l 0.15804,0.2765784 c 0.22225,-0.1382892 0.52846,-0.2864562 0.83961,-0.2864562 0.46426,0 0.62725,0.2765784 0.63712,0.6025458 -1.23966,0.098778 -1.73849,0.3605397 -1.73849,0.8988798 0,0.4296843 0.36548,0.6815682 0.81492,0.6815682 z m 0.10865,-0.3259674 c -0.27657,0 -0.52846,-0.1135947 -0.52846,-0.3852342 0,-0.3160896 0.31609,-0.5185845 1.34338,-0.6025458 v 0.6321792 c -0.27164,0.2271894 -0.54328,0.3556008 -0.81492,0.3556008 z m 3.58565,0.3259674 c 0.30127,0 0.5334,-0.064206 0.75071,-0.1432281 l -0.0889,-0.296334 c -0.17286,0.064206 -0.35066,0.1086558 -0.57785,0.1086558 -0.46426,0 -0.60749,-0.2271894 -0.60749,-0.6568737 V 1.8014617 h 1.1804 V 1.4705554 h -1.1804 V 0.70008702 h -0.33584 l -0.0543,0.77046838 -0.69145,0.024694 v 0.3062118 h 0.67663 v 1.135947 c 0,0.592668 0.22719,0.9927189 0.92852,0.9927189 z m 2.49908,0 c 0.22225,0 0.40005,-0.1679226 0.40005,-0.4148676 0,-0.2518839 -0.1778,-0.4198065 -0.40005,-0.4198065 -0.22225,0 -0.40005,0.1679226 -0.40005,0.4198065 0,0.246945 0.1778,0.4148676 0.40005,0.4148676 z m 1.94099,0.9532077 h 0.40499 V 4.0733557 l -0.0198,-0.4543788 h 0.0148 c 0.21238,0.197556 0.49389,0.3111507 0.71614,0.3111507 0.57786,0 1.0915,-0.4790733 1.0915,-1.2939918 0,-0.7457739 -0.34572,-1.2248472 -0.99272,-1.2248472 -0.29633,0 -0.60748,0.1531059 -0.82973,0.3654786 h -0.0148 l -0.0346,-0.3062118 h -0.33585 z m 1.04705,-1.2939918 c -0.16298,0 -0.41487,-0.079022 -0.64206,-0.2815173 V 2.1126124 c 0.24695,-0.246945 0.49389,-0.3605397 0.70627,-0.3605397 0.47907,0 0.67662,0.3556008 0.67662,0.8840631 0,0.592668 -0.31115,0.9532077 -0.74083,0.9532077 z m 1.91629,0.2815173 h 0.40499 V 2.1965737 c 0.28152,-0.2913951 0.47414,-0.4346232 0.76059,-0.4346232 0.39512,0 0.55316,0.2173116 0.55316,0.6716904 v 1.4372199 h 0.40499 V 2.379313 c 0,-0.6321792 -0.26176,-0.9680244 -0.82973,-0.9680244 -0.37536,0 -0.65194,0.2024949 -0.90382,0.4691955 h -0.0198 l -0.0346,-0.4099287 h -0.33585 z m 3.96594,1.1063136 c 0.81492,0 1.3335,-0.3901731 1.3335,-0.839613 0,-0.4049898 -0.29633,-0.5630346 -0.91369,-0.5630346 h -0.53834 c -0.31609,0 -0.49883,-0.0889 -0.49883,-0.2765784 0,-0.1135947 0.0691,-0.2024949 0.18768,-0.2765784 0.13335,0.059267 0.28151,0.0889 0.40499,0.0889 0.51858,0 0.92851,-0.3111507 0.92851,-0.8247963 0,-0.1926171 -0.0938,-0.3704175 -0.20249,-0.4840122 h 0.6223 V 1.4705554 h -0.99272 c -0.10372,-0.039511 -0.21731,-0.059267 -0.3556,-0.059267 -0.50871,0 -0.94333,0.3358452 -0.94333,0.8593686 0,0.2864562 0.13335,0.4988289 0.29633,0.6223014 v 0.019756 c -0.18274,0.1234725 -0.28646,0.296334 -0.28646,0.4494399 0,0.2024949 0.11854,0.3259674 0.24695,0.395112 v 0.019756 c -0.25682,0.148167 -0.39511,0.3407841 -0.39511,0.5334012 0,0.4247454 0.40499,0.6667515 1.10631,0.6667515 z m -0.0247,-2.1385437 c -0.30128,0 -0.55316,-0.2222505 -0.55316,-0.5679735 0,-0.3358452 0.25188,-0.5630346 0.55316,-0.5630346 0.30621,0 0.55315,0.2271894 0.55315,0.5630346 0,0.345723 -0.24694,0.5679735 -0.55315,0.5679735 z m 0.0543,1.8422097 c -0.51364,0 -0.78528,-0.1580448 -0.78528,-0.4099287 0,-0.1382892 0.079,-0.2765784 0.30621,-0.4000509 0.10372,0.029633 0.22719,0.039511 0.36548,0.039511 h 0.4692 c 0.36547,0 0.54821,0.064206 0.54821,0.2913951 0,0.246945 -0.34572,0.4790733 -0.90382,0.4790733 z m 5.77358,-0.7507128 c 0.29634,0 0.58279,-0.1728615 0.78035,-0.3753564 h 0.0148 l 0.0346,0.3160896 h 0.33584 V 0.35436402 h -0.40499 V 1.2779383 l 0.0198,0.444501 h -0.0148 c -0.20743,-0.197556 -0.42968,-0.3111507 -0.71614,-0.3111507 -0.56797,0 -1.09149,0.4840122 -1.09149,1.2643584 0,0.8001018 0.41486,1.2544806 1.0421,1.2544806 z m 0.084,-0.3407841 c -0.44451,0 -0.70627,-0.345723 -0.70627,-0.9186354 0,-0.5482179 0.33585,-0.9186354 0.75072,-0.9186354 0.20743,0 0.41486,0.079022 0.63217,0.2815173 v 1.1952138 c -0.21237,0.2370672 -0.43956,0.3605397 -0.67662,0.3605397 z m 3.0226,0.3407841 c 0.63218,0 1.18534,-0.4593177 1.18534,-1.2544806 0,-0.8050407 -0.55316,-1.2643584 -1.18534,-1.2643584 -0.63218,0 -1.18533,0.4593177 -1.18533,1.2643584 0,0.7951629 0.55315,1.2544806 1.18533,1.2544806 z m 0,-0.3358452 c -0.45931,0 -0.76553,-0.3704175 -0.76553,-0.9186354 0,-0.5531568 0.30622,-0.9285132 0.76553,-0.9285132 0.45932,0 0.76553,0.3753564 0.76553,0.9285132 0,0.5482179 -0.30621,0.9186354 -0.76553,0.9186354 z m 3.05225,-1.8619653 c 0.40993,0 0.68157,0.2420061 0.71614,0.7358961 h -1.53106 c 0.0741,-0.4741344 0.41981,-0.7358961 0.81492,-0.7358961 z m 0.0593,2.1978105 c 0.38524,0 0.69145,-0.1284114 0.92852,-0.2864562 l -0.14817,-0.2667006 c -0.21731,0.1382892 -0.4445,0.2271894 -0.73096,0.2271894 -0.49883,0 -0.88406,-0.2765784 -0.93345,-0.8198574 h 1.8916 c 0.01,-0.064206 0.0198,-0.1531059 0.0198,-0.246945 0,-0.6766293 -0.40499,-1.1260692 -1.09644,-1.1260692 -0.64206,0 -1.22485,0.4741344 -1.22485,1.2544806 0,0.8001018 0.57292,1.2643584 1.29399,1.2643584 z m 2.86457,0 c 0.6865,0 1.0668,-0.3259674 1.0668,-0.7161405 0,-0.3654786 -0.19262,-0.5679735 -0.99272,-0.740835 -0.48895,-0.1037169 -0.69638,-0.1926171 -0.69638,-0.4000509 0,-0.1827393 0.14322,-0.345723 0.55315,-0.345723 0.30621,0 0.58279,0.098778 0.80504,0.2518839 l 0.19756,-0.2617617 c -0.23707,-0.1629837 -0.60255,-0.3062118 -0.96802,-0.3062118 -0.65688,0 -0.99766,0.296334 -0.99766,0.6815682 0,0.3605397 0.31609,0.5729124 0.93839,0.7013238 0.65193,0.1333503 0.75071,0.2617617 0.75071,0.444501 0,0.2024949 -0.20249,0.3753564 -0.60748,0.3753564 -0.4445,0 -0.76553,-0.1284114 -1.04211,-0.3259674 l -0.18768,0.2667006 c 0.2914,0.2024949 0.7112,0.3753564 1.1804,0.3753564 z m 4.85494,-0.059267 h 0.40499 V 2.1965737 c 0.28152,-0.2913951 0.47414,-0.4346232 0.76059,-0.4346232 0.39511,0 0.55316,0.2173116 0.55316,0.6716904 v 1.4372199 h 0.40499 V 2.379313 c 0,-0.6321792 -0.26176,-0.9680244 -0.82974,-0.9680244 -0.37535,0 -0.65193,0.2024949 -0.90382,0.4691955 h -0.0198 l -0.0346,-0.4099287 h -0.33585 z m 3.98569,0.059267 c 0.63218,0 1.18534,-0.4593177 1.18534,-1.2544806 0,-0.8050407 -0.55316,-1.2643584 -1.18534,-1.2643584 -0.63217,0 -1.18533,0.4593177 -1.18533,1.2643584 0,0.7951629 0.55316,1.2544806 1.18533,1.2544806 z m 0,-0.3358452 c -0.45931,0 -0.76553,-0.3704175 -0.76553,-0.9186354 0,-0.5531568 0.30622,-0.9285132 0.76553,-0.9285132 0.45932,0 0.76553,0.3753564 0.76553,0.9285132 0,0.5482179 -0.30621,0.9186354 -0.76553,0.9186354 z m 3.4276,0.3358452 c 0.30127,0 0.5334,-0.064206 0.75071,-0.1432281 l -0.0889,-0.296334 c -0.17286,0.064206 -0.35066,0.1086558 -0.57785,0.1086558 -0.46425,0 -0.60748,-0.2271894 -0.60748,-0.6568737 V 1.8014617 h 1.1804 V 1.4705554 h -1.1804 V 0.70008702 h -0.33585 l -0.0543,0.77046838 -0.69145,0.024694 v 0.3062118 h 0.67663 v 1.135947 c 0,0.592668 0.22719,0.9927189 0.92851,0.9927189 z m 5.68962,0 c 0.3556,0 0.6865,-0.1382892 0.9532,-0.3753564 l -0.18274,-0.2617617 c -0.19755,0.1679226 -0.4445,0.3012729 -0.74083,0.3012729 -0.55316,0 -0.92357,-0.3704175 -0.92357,-0.9186354 0,-0.5531568 0.38029,-0.9285132 0.93345,-0.9285132 0.25188,0 0.45932,0.1037169 0.65687,0.2765784 l 0.2025,-0.2617617 c -0.19756,-0.1926171 -0.48402,-0.3506619 -0.87419,-0.3506619 -0.72602,0 -1.33844,0.4593177 -1.33844,1.2643584 0,0.7951629 0.56303,1.2544806 1.31375,1.2544806 z m 2.73616,0 c 0.63217,0 1.18533,-0.4593177 1.18533,-1.2544806 0,-0.8050407 -0.55316,-1.2643584 -1.18533,-1.2643584 -0.63218,0 -1.18534,0.4593177 -1.18534,1.2643584 0,0.7951629 0.55316,1.2544806 1.18534,1.2544806 z m 0,-0.3358452 c -0.45932,0 -0.76553,-0.3704175 -0.76553,-0.9186354 0,-0.5531568 0.30621,-0.9285132 0.76553,-0.9285132 0.45931,0 0.76552,0.3753564 0.76552,0.9285132 0,0.5482179 -0.30621,0.9186354 -0.76552,0.9186354 z m 1.94098,0.2765784 h 0.40499 V 2.1965737 c 0.28152,-0.2913951 0.47414,-0.4346232 0.76059,-0.4346232 0.39512,0 0.55316,0.2173116 0.55316,0.6716904 v 1.4372199 h 0.40499 V 2.379313 c 0,-0.6321792 -0.26176,-0.9680244 -0.82973,-0.9680244 -0.37536,0 -0.65194,0.2024949 -0.90382,0.4691955 h -0.0198 l -0.0346,-0.4099287 h -0.33585 z m 4.44995,0.059267 c 0.30128,0 0.5334,-0.064206 0.75072,-0.1432281 l -0.0889,-0.296334 c -0.17287,0.064206 -0.35067,0.1086558 -0.57786,0.1086558 -0.46425,0 -0.60748,-0.2271894 -0.60748,-0.6568737 V 1.8014617 h 1.1804 V 1.4705554 h -1.1804 V 0.70008702 h -0.33585 l -0.0543,0.77046838 -0.69145,0.024694 v 0.3062118 h 0.67663 v 1.135947 c 0,0.592668 0.22719,0.9927189 0.92851,0.9927189 z m 2.23239,0 c 0.34078,0 0.68156,-0.1778004 0.94827,-0.3852342 h 0.0148 l 0.0346,0.3259674 h 0.33091 V 2.3990686 c 0,-0.5976069 -0.31609,-0.98778 -0.97296,-0.98778 -0.41981,0 -0.8248,0.1876782 -1.0668,0.345723 l 0.15804,0.2765784 c 0.22225,-0.1382892 0.52846,-0.2864562 0.83961,-0.2864562 0.46426,0 0.62724,0.2765784 0.63712,0.6025458 -1.23966,0.098778 -1.73849,0.3605397 -1.73849,0.8988798 0,0.4296843 0.36548,0.6815682 0.81492,0.6815682 z m 0.10865,-0.3259674 c -0.27658,0 -0.52846,-0.1135947 -0.52846,-0.3852342 0,-0.3160896 0.31609,-0.5185845 1.34338,-0.6025458 v 0.6321792 c -0.27164,0.2271894 -0.54328,0.3556008 -0.81492,0.3556008 z m 3.20041,0.2667006 h 0.40499 V 1.4705554 h -1.52118 v 0.3309063 h 1.11619 z m 0.15805,-2.90407318 c 0.18273,0 0.32596,-0.1234725 0.32596,-0.3160896 0,-0.1876782 -0.14323,-0.3160896 -0.32596,-0.3160896 -0.18274,0 -0.32597,0.1284114 -0.32597,0.3160896 0,0.1926171 0.14323,0.3160896 0.32597,0.3160896 z m 1.70392,2.90407318 h 0.40499 V 2.1965737 c 0.28151,-0.2913951 0.47413,-0.4346232 0.76059,-0.4346232 0.39511,0 0.55315,0.2173116 0.55315,0.6716904 v 1.4372199 h 0.40499 V 2.379313 c 0,-0.6321792 -0.26176,-0.9680244 -0.82973,-0.9680244 -0.37536,0 -0.65194,0.2024949 -0.90382,0.4691955 h -0.0198 l -0.0346,-0.4099287 h -0.33584 z m 6.68234,0.059267 c 0.34078,0 0.68157,-0.1778004 0.94827,-0.3852342 h 0.0148 l 0.0346,0.3259674 h 0.3309 V 2.3990686 c 0,-0.5976069 -0.31609,-0.98778 -0.97296,-0.98778 -0.41981,0 -0.8248,0.1876782 -1.0668,0.345723 l 0.15804,0.2765784 c 0.22225,-0.1382892 0.52846,-0.2864562 0.83961,-0.2864562 0.46426,0 0.62724,0.2765784 0.63712,0.6025458 -1.23966,0.098778 -1.73849,0.3605397 -1.73849,0.8988798 0,0.4296843 0.36548,0.6815682 0.81492,0.6815682 z m 0.10865,-0.3259674 c -0.27658,0 -0.52846,-0.1135947 -0.52846,-0.3852342 0,-0.3160896 0.31609,-0.5185845 1.34338,-0.6025458 v 0.6321792 c -0.27164,0.2271894 -0.54328,0.3556008 -0.81492,0.3556008 z m 4.88952,0.2667006 h 0.40499 V 2.132368 c 0.11853,-0.246945 0.22718,-0.3704175 0.39511,-0.3704175 0.1778,0 0.24694,0.1432281 0.24694,0.4198065 v 1.6891038 h 0.37536 V 2.132368 c 0.12841,-0.246945 0.21731,-0.3704175 0.38523,-0.3704175 0.1778,0 0.25683,0.1432281 0.25683,0.4198065 v 1.6891038 h 0.40499 V 2.1521236 c 0,-0.4790733 -0.19756,-0.740835 -0.53341,-0.740835 -0.27657,0 -0.42474,0.1580448 -0.56303,0.4148676 -0.0691,-0.2765784 -0.21731,-0.4148676 -0.45438,-0.4148676 -0.27658,0 -0.42474,0.1531059 -0.54822,0.3753564 h -0.01 l -0.0346,-0.3160896 h -0.32596 z m 4.15855,0.059267 c 0.63218,0 1.18534,-0.4593177 1.18534,-1.2544806 0,-0.8050407 -0.55316,-1.2643584 -1.18534,-1.2643584 -0.63218,0 -1.18534,0.4593177 -1.18534,1.2643584 0,0.7951629 0.55316,1.2544806 1.18534,1.2544806 z m 0,-0.3358452 c -0.45932,0 -0.76553,-0.3704175 -0.76553,-0.9186354 0,-0.5531568 0.30621,-0.9285132 0.76553,-0.9285132 0.45932,0 0.76553,0.3753564 0.76553,0.9285132 0,0.5482179 -0.30621,0.9186354 -0.76553,0.9186354 z m 2.82011,0.3358452 c 0.29634,0 0.58279,-0.1728615 0.78035,-0.3753564 h 0.0148 l 0.0346,0.3160896 h 0.33584 V 0.35436402 h -0.40499 V 1.2779383 l 0.0198,0.444501 h -0.0148 c -0.20743,-0.197556 -0.42968,-0.3111507 -0.71614,-0.3111507 -0.56797,0 -1.09149,0.4840122 -1.09149,1.2643584 0,0.8001018 0.41486,1.2544806 1.0421,1.2544806 z m 0.084,-0.3407841 c -0.4445,0 -0.70626,-0.345723 -0.70626,-0.9186354 0,-0.5482179 0.33585,-0.9186354 0.75071,-0.9186354 0.20744,0 0.41487,0.079022 0.63218,0.2815173 v 1.1952138 c -0.21237,0.2370672 -0.43956,0.3605397 -0.67663,0.3605397 z m 3.11151,-1.8570264 c 0.40993,0 0.68157,0.2420061 0.71614,0.7358961 h -1.53106 c 0.0741,-0.4741344 0.41981,-0.7358961 0.81492,-0.7358961 z m 0.0593,2.1978105 c 0.38523,0 0.69144,-0.1284114 0.92851,-0.2864562 l -0.14816,-0.2667006 c -0.21732,0.1382892 -0.44451,0.2271894 -0.73096,0.2271894 -0.49883,0 -0.88407,-0.2765784 -0.93345,-0.8198574 h 1.89159 c 0.01,-0.064206 0.0198,-0.1531059 0.0198,-0.246945 0,-0.6766293 -0.40499,-1.1260692 -1.09644,-1.1260692 -0.64205,0 -1.22484,0.4741344 -1.22484,1.2544806 0,0.8001018 0.57291,1.2643584 1.29399,1.2643584 z m 3.34364,0 c 0.26176,0 0.41981,-0.049389 0.64206,-0.1432281 l -0.10372,-0.3012729 c -0.16298,0.074084 -0.31115,0.1086558 -0.44944,0.1086558 -0.28645,0 -0.47413,-0.148167 -0.47413,-0.4988289 V 0.35436402 h -1.25942 v 0.3309063 h 0.85443 V 3.0658201 c 0,0.5679735 0.28152,0.8643075 0.79022,0.8643075 z M 240.8942,2.725036 h 0.27658 l 0.0494,-1.6989816 0.01,-0.46425658 h -0.39512 l 0.01,0.46425658 z m 0.13829,1.2050916 c 0.19756,0 0.36054,-0.148167 0.36054,-0.3852342 0,-0.2321283 -0.16298,-0.3753564 -0.36054,-0.3753564 -0.19756,0 -0.36054,0.1432281 -0.36054,0.3753564 0,0.2370672 0.16298,0.3852342 0.36054,0.3852342 z"
     id="text4"
     style="font-size:4.9389px;line-height:1.1;font-family:'Source Code Pro';-inkscape-font-specification:'Source Code Pro';text-align:center;text-anchor:middle;fill:#ffffff;stroke-linecap:square;stroke-miterlimit:35.2;stroke-opacity:0.988235;paint-order:stroke fill markers"
     aria-label="File cat.png does not contain a model!" />
  <path
     style="font-size:4.9389px;line-height:1.1;font-family:'Source Code Pro';-inkscape-font-specification:'Source Code Pro';text-align:center;text-anchor:middle;fill:#abb2b4;stroke-linecap:square;stroke-miterlimit:35.2;stroke-opacity:0.988235;paint-order:stroke fill markers"
     d="m 14.067282,4.2869653 h 1.368075 V 4.054837 H 14.393249 V 0.2716396 h 1.042108 V 0.0395113 h -1.368075 z m 2.20769,-0.7507128 h 0.385234 V 1.9162933 c 0,-0.3160896 -0.03951,-0.8692464 -0.06914,-1.1458248 h 0.0099 l 0.187678,0.6321792 0.454379,1.2742362 h 0.296334 l 0.464257,-1.2742362 0.182739,-0.6321792 h 0.01482 c -0.01976,0.2765784 -0.06914,0.8297352 -0.06914,1.1458248 V 3.5362525 H 18.52711 V 0.2963341 h -0.503768 l -0.459317,1.382892 -0.153106,0.5235234 h -0.01976 L 17.233118,1.6792261 16.77874,0.2963341 h -0.503768 z m 4.089411,0.059267 c 0.632179,0 1.185336,-0.4593177 1.185336,-1.2544806 0,-0.8050407 -0.553157,-1.2643584 -1.185336,-1.2643584 -0.632179,0 -1.185336,0.4593177 -1.185336,1.2643584 0,0.7951629 0.553157,1.2544806 1.185336,1.2544806 z m 0,-0.3358452 c -0.459318,0 -0.76553,-0.3704175 -0.76553,-0.9186354 0,-0.5531568 0.306212,-0.9285132 0.76553,-0.9285132 0.459318,0 0.765529,0.3753564 0.765529,0.9285132 0,0.5482179 -0.306211,0.9186354 -0.765529,0.9186354 z m 2.820114,0.3358452 c 0.296334,0 0.58279,-0.1728615 0.780346,-0.3753564 h 0.01482 l 0.03457,0.3160896 h 0.335845 V 0.0197557 H 23.945088 V 0.94333 l 0.01975,0.444501 h -0.01482 C 23.742593,1.190275 23.520342,1.0766803 23.233886,1.0766803 c -0.567973,0 -1.091497,0.4840122 -1.091497,1.2643584 0,0.8001018 0.414868,1.2544806 1.042108,1.2544806 z m 0.08396,-0.3407841 c -0.444501,0 -0.706262,-0.345723 -0.706262,-0.9186354 0,-0.5482179 0.335845,-0.9186354 0.750712,-0.9186354 0.207434,0 0.414868,0.079022 0.63218,0.2815173 v 1.1952138 c -0.212373,0.2370672 -0.439562,0.3605397 -0.67663,0.3605397 z m 3.111509,-1.8570264 c 0.409929,0 0.681568,0.2420061 0.716141,0.7358961 h -1.531059 c 0.07408,-0.4741344 0.419806,-0.7358961 0.814918,-0.7358961 z m 0.05927,2.1978105 c 0.385234,0 0.691446,-0.1284114 0.928513,-0.2864562 L 27.21958,3.0423625 c -0.217312,0.1382892 -0.444501,0.2271894 -0.730957,0.2271894 -0.498829,0 -0.884063,-0.2765784 -0.933452,-0.8198574 h 1.891598 c 0.0099,-0.064206 0.01976,-0.1531059 0.01976,-0.246945 0,-0.6766293 -0.40499,-1.1260692 -1.096436,-1.1260692 -0.642057,0 -1.224847,0.4741344 -1.224847,1.2544806 0,0.8001018 0.572912,1.2643584 1.293992,1.2643584 z m 3.343637,0 c 0.261762,0 0.419806,-0.049389 0.642057,-0.1432281 L 30.321211,3.1510183 c -0.162984,0.074083 -0.311151,0.1086558 -0.44944,0.1086558 -0.286456,0 -0.474134,-0.148167 -0.474134,-0.4988289 V 0.0197557 h -1.25942 V 0.350662 h 0.85443 v 2.3805498 c 0,0.5679735 0.281517,0.8643075 0.790224,0.8643075 z m 1.615023,-0.059267 h 2.010132 V 3.1855906 H 31.802884 V 0.2963341 h -0.40499 z m 3.783198,0.059267 c 0.632179,0 1.185336,-0.4593177 1.185336,-1.2544806 0,-0.8050407 -0.553157,-1.2643584 -1.185336,-1.2643584 -0.632179,0 -1.185336,0.4593177 -1.185336,1.2643584 0,0.7951629 0.553157,1.2544806 1.185336,1.2544806 z m 0,-0.3358452 c -0.459318,0 -0.76553,-0.3704175 -0.76553,-0.9186354 0,-0.5531568 0.306212,-0.9285132 0.76553,-0.9285132 0.459318,0 0.765529,0.3753564 0.765529,0.9285132 0,0.5482179 -0.306211,0.9186354 -0.765529,0.9186354 z m 2.696642,0.3358452 c 0.340784,0 0.681568,-0.1778004 0.948269,-0.3852342 h 0.01482 l 0.03457,0.3259674 h 0.330906 V 2.0644603 c 0,-0.5976069 -0.316089,-0.98778 -0.972963,-0.98778 -0.419807,0 -0.824796,0.1876782 -1.066803,0.345723 l 0.158045,0.2765784 c 0.222251,-0.1382892 0.528463,-0.2864562 0.839613,-0.2864562 0.464257,0 0.627241,0.2765784 0.637118,0.6025458 -1.239664,0.098778 -1.738492,0.3605397 -1.738492,0.8988798 0,0.4296843 0.365478,0.6815682 0.814918,0.6815682 z M 37.98639,3.2695519 c -0.276579,0 -0.528462,-0.1135947 -0.528462,-0.3852342 0,-0.3160896 0.316089,-0.5185845 1.34338,-0.6025458 V 2.9139511 C 38.529669,3.1411405 38.258029,3.2695519 37.98639,3.2695519 Z m 2.978159,0.3259674 c 0.296334,0 0.58279,-0.1728615 0.780346,-0.3753564 h 0.01482 l 0.03457,0.3160896 H 42.13013 V 0.0197557 H 41.72514 V 0.94333 l 0.01975,0.444501 h -0.01482 C 41.522645,1.190275 41.300394,1.0766803 41.013938,1.0766803 c -0.567973,0 -1.091497,0.4840122 -1.091497,1.2643584 0,0.8001018 0.414868,1.2544806 1.042108,1.2544806 z m 0.08396,-0.3407841 c -0.444501,0 -0.706262,-0.345723 -0.706262,-0.9186354 0,-0.5482179 0.335845,-0.9186354 0.750713,-0.9186354 0.207433,0 0.414867,0.079022 0.632179,0.2815173 v 1.1952138 c -0.212373,0.2370672 -0.439562,0.3605397 -0.67663,0.3605397 z m 3.111508,-1.8570264 c 0.409929,0 0.681568,0.2420061 0.716141,0.7358961 H 43.3451 c 0.07408,-0.4741344 0.419806,-0.7358961 0.814918,-0.7358961 z m 0.05927,2.1978105 c 0.385234,0 0.691446,-0.1284114 0.928513,-0.2864562 L 44.999631,3.0423625 c -0.217311,0.1382892 -0.444501,0.2271894 -0.730957,0.2271894 -0.498829,0 -0.884063,-0.2765784 -0.933452,-0.8198574 h 1.891599 c 0.0099,-0.064206 0.01975,-0.1531059 0.01975,-0.246945 0,-0.6766293 -0.40499,-1.1260692 -1.096436,-1.1260692 -0.642057,0 -1.224847,0.4741344 -1.224847,1.2544806 0,0.8001018 0.572913,1.2643584 1.293992,1.2643584 z m 2.054583,-0.059267 h 0.40499 V 2.128666 c 0.286456,-0.4988289 0.62724,-0.6865071 0.98778,-0.6865071 0.187678,0 0.276578,0.024695 0.444501,0.083961 l 0.09384,-0.3506619 c -0.148167,-0.074083 -0.296334,-0.098778 -0.474134,-0.098778 -0.444501,0 -0.819858,0.2420061 -1.071742,0.6272403 h -0.01482 l -0.03457,-0.5679735 h -0.335845 z m 3.723935,0.059267 c 0.222251,0 0.400051,-0.1679226 0.400051,-0.4148676 0,-0.2518839 -0.1778,-0.4198065 -0.400051,-0.4198065 -0.22225,0 -0.400051,0.1679226 -0.400051,0.4198065 0,0.246945 0.177801,0.4148676 0.400051,0.4148676 z m 3.190531,0 c 0.3556,0 0.686507,-0.1382892 0.953207,-0.3753564 L 53.958802,2.9584012 c -0.197556,0.1679226 -0.444501,0.3012729 -0.740835,0.3012729 -0.553157,0 -0.923574,-0.3704175 -0.923574,-0.9186354 0,-0.5531568 0.380295,-0.9285132 0.933452,-0.9285132 0.251884,0 0.459317,0.1037169 0.656873,0.2765784 L 54.087213,1.4273422 C 53.889657,1.2347251 53.603201,1.0766803 53.213028,1.0766803 c -0.726018,0 -1.338442,0.4593177 -1.338442,1.2643584 0,0.7951629 0.563035,1.2544806 1.313748,1.2544806 z m 1.713799,0.9532077 h 0.404989 V 3.7387474 l -0.01975,-0.4543788 h 0.01482 c 0.212373,0.197556 0.49389,0.3111507 0.716141,0.3111507 0.577851,0 1.091497,-0.4790733 1.091497,-1.2939918 0,-0.7457739 -0.345723,-1.2248472 -0.992719,-1.2248472 -0.296334,0 -0.607485,0.1531059 -0.829735,0.3654786 h -0.01482 l -0.03457,-0.3062118 h -0.335845 z m 1.047046,-1.2939918 c -0.162983,0 -0.414867,-0.079022 -0.642057,-0.2815173 V 1.7780041 c 0.246945,-0.246945 0.49389,-0.3605397 0.706263,-0.3605397 0.479073,0 0.676629,0.3556008 0.676629,0.8840631 0,0.592668 -0.31115,0.9532077 -0.740835,0.9532077 z m 1.916298,1.2939918 h 0.40499 V 3.7387474 l -0.01976,-0.4543788 h 0.01482 c 0.212373,0.197556 0.49389,0.3111507 0.716141,0.3111507 0.577851,0 1.091496,-0.4790733 1.091496,-1.2939918 0,-0.7457739 -0.345723,-1.2248472 -0.992718,-1.2248472 -0.296334,0 -0.607485,0.1531059 -0.829736,0.3654786 h -0.01482 l -0.03457,-0.3062118 h -0.335845 z m 1.047047,-1.2939918 c -0.162984,0 -0.414868,-0.079022 -0.642057,-0.2815173 V 1.7780041 c 0.246945,-0.246945 0.49389,-0.3605397 0.706263,-0.3605397 0.479073,0 0.676629,0.3556008 0.676629,0.8840631 0,0.592668 -0.311151,0.9532077 -0.740835,0.9532077 z M 61.85117,1.8273931 c 0.222251,0 0.400051,-0.1679226 0.400051,-0.4148676 0,-0.2518839 -0.1778,-0.4198065 -0.400051,-0.4198065 -0.22225,0 -0.400051,0.1679226 -0.400051,0.4198065 0,0.246945 0.177801,0.4148676 0.400051,0.4148676 z m 0,1.7681262 c 0.222251,0 0.400051,-0.1679226 0.400051,-0.4148676 0,-0.2518839 -0.1778,-0.4198065 -0.400051,-0.4198065 -0.22225,0 -0.400051,0.1679226 -0.400051,0.4198065 0,0.246945 0.177801,0.4148676 0.400051,0.4148676 z m 3.19053,0 c 0.355601,0 0.686507,-0.1382892 0.953208,-0.3753564 L 65.812169,2.9584012 c -0.197556,0.1679226 -0.444501,0.3012729 -0.740835,0.3012729 -0.553157,0 -0.923575,-0.3704175 -0.923575,-0.9186354 0,-0.5531568 0.380296,-0.9285132 0.933453,-0.9285132 0.251883,0 0.459317,0.1037169 0.656873,0.2765784 L 65.94058,1.4273422 C 65.743024,1.2347251 65.456568,1.0766803 65.066395,1.0766803 c -0.726018,0 -1.338442,0.4593177 -1.338442,1.2643584 0,0.7951629 0.563035,1.2544806 1.313747,1.2544806 z m 1.975565,-0.059267 h 0.40499 V 2.128666 c 0.286456,-0.4988289 0.62724,-0.6865071 0.98778,-0.6865071 0.187678,0 0.276578,0.024695 0.444501,0.083961 l 0.09384,-0.3506619 c -0.148167,-0.074083 -0.296334,-0.098778 -0.474135,-0.098778 -0.444501,0 -0.819857,0.2420061 -1.071741,0.6272403 h -0.01482 L 67.35311,1.1359471 h -0.335845 z m 3.812832,-2.1385437 c 0.409928,0 0.681568,0.2420061 0.71614,0.7358961 h -1.531059 c 0.07408,-0.4741344 0.419807,-0.7358961 0.814919,-0.7358961 z m 0.05927,2.1978105 c 0.385235,0 0.691446,-0.1284114 0.928514,-0.2864562 L 71.66971,3.0423625 c -0.217312,0.1382892 -0.444501,0.2271894 -0.730958,0.2271894 -0.498829,0 -0.884063,-0.2765784 -0.933452,-0.8198574 h 1.891599 c 0.0099,-0.064206 0.01976,-0.1531059 0.01976,-0.246945 0,-0.6766293 -0.40499,-1.1260692 -1.096436,-1.1260692 -0.642057,0 -1.224847,0.4741344 -1.224847,1.2544806 0,0.8001018 0.572912,1.2643584 1.293991,1.2643584 z m 2.548473,0 c 0.340785,0 0.681569,-0.1778004 0.948269,-0.3852342 h 0.01482 l 0.03457,0.3259674 h 0.330907 V 2.0644603 c 0,-0.5976069 -0.31609,-0.98778 -0.972964,-0.98778 -0.419806,0 -0.824796,0.1876782 -1.066802,0.345723 l 0.158045,0.2765784 c 0.22225,-0.1382892 0.528462,-0.2864562 0.839613,-0.2864562 0.464256,0 0.62724,0.2765784 0.637118,0.6025458 -1.239664,0.098778 -1.738493,0.3605397 -1.738493,0.8988798 0,0.4296843 0.365479,0.6815682 0.814918,0.6815682 z m 0.108656,-0.3259674 c -0.276578,0 -0.528462,-0.1135947 -0.528462,-0.3852342 0,-0.3160896 0.31609,-0.5185845 1.343381,-0.6025458 v 0.6321792 c -0.27164,0.2271894 -0.543279,0.3556008 -0.814919,0.3556008 z m 3.585646,0.3259674 c 0.301273,0 0.533401,-0.064206 0.750713,-0.1432281 l -0.0889,-0.296334 C 77.621089,3.2201629 77.443289,3.264613 77.2161,3.264613 c -0.464257,0 -0.607485,-0.2271894 -0.607485,-0.6568737 V 1.4668534 h 1.180397 V 1.1359471 H 76.608615 V 0.3654787 H 76.27277 l -0.05433,0.7704684 -0.691446,0.024694 v 0.3062118 h 0.676629 v 1.135947 c 0,0.592668 0.227189,0.9927189 0.928513,0.9927189 z m 2.587981,-2.1978105 c 0.409929,0 0.681568,0.2420061 0.71614,0.7358961 H 78.9052 c 0.07408,-0.4741344 0.419807,-0.7358961 0.814919,-0.7358961 z m 0.05927,2.1978105 c 0.385234,0 0.691446,-0.1284114 0.928513,-0.2864562 L 80.559732,3.0423625 c -0.217312,0.1382892 -0.444501,0.2271894 -0.730957,0.2271894 -0.498829,0 -0.884063,-0.2765784 -0.933452,-0.8198574 h 1.891598 c 0.0099,-0.064206 0.01976,-0.1531059 0.01976,-0.246945 0,-0.6766293 -0.40499,-1.1260692 -1.096436,-1.1260692 -0.642057,0 -1.224847,0.4741344 -1.224847,1.2544806 0,0.8001018 0.572912,1.2643584 1.293992,1.2643584 z m 1.629845,0.6321792 h 2.370672 V 3.8770366 h -2.370672 z m 2.953463,-0.691446 h 0.40499 V 1.7977597 c 0.118533,-0.246945 0.227189,-0.3704175 0.395112,-0.3704175 0.1778,0 0.246945,0.1432281 0.246945,0.4198065 v 1.6891038 h 0.375356 V 1.7977597 c 0.128412,-0.246945 0.217312,-0.3704175 0.385234,-0.3704175 0.177801,0 0.256823,0.1432281 0.256823,0.4198065 v 1.6891038 h 0.40499 V 1.8175153 c 0,-0.4790733 -0.197556,-0.740835 -0.533401,-0.740835 -0.276579,0 -0.424746,0.1580448 -0.563035,0.4148676 -0.06914,-0.2765784 -0.217311,-0.4148676 -0.454379,-0.4148676 -0.276578,0 -0.424745,0.1531059 -0.548218,0.3753564 h -0.0099 l -0.03457,-0.3160896 h -0.325967 z m 4.158555,0.059267 c 0.632179,0 1.185336,-0.4593177 1.185336,-1.2544806 0,-0.8050407 -0.553157,-1.2643584 -1.185336,-1.2643584 -0.63218,0 -1.185336,0.4593177 -1.185336,1.2643584 0,0.7951629 0.553156,1.2544806 1.185336,1.2544806 z m 0,-0.3358452 c -0.459318,0 -0.76553,-0.3704175 -0.76553,-0.9186354 0,-0.5531568 0.306212,-0.9285132 0.76553,-0.9285132 0.459317,0 0.765529,0.3753564 0.765529,0.9285132 0,0.5482179 -0.306212,0.9186354 -0.765529,0.9186354 z m 2.820112,0.3358452 c 0.296334,0 0.58279,-0.1728615 0.780346,-0.3753564 h 0.01482 l 0.03457,0.3160896 h 0.335846 V 0.0197557 h -0.40499 V 0.94333 l 0.01976,0.444501 h -0.01482 C 91.899457,1.190275 91.677206,1.0766803 91.39075,1.0766803 c -0.567973,0 -1.091497,0.4840122 -1.091497,1.2643584 0,0.8001018 0.414868,1.2544806 1.042108,1.2544806 z m 0.08396,-0.3407841 c -0.444501,0 -0.706262,-0.345723 -0.706262,-0.9186354 0,-0.5482179 0.335845,-0.9186354 0.750713,-0.9186354 0.207433,0 0.414867,0.079022 0.632179,0.2815173 V 2.8941955 C 91.889579,3.1312627 91.66239,3.2547352 91.425322,3.2547352 Z M 94.53683,1.3977088 c 0.409929,0 0.681568,0.2420061 0.716141,0.7358961 h -1.531059 c 0.07408,-0.4741344 0.419806,-0.7358961 0.814918,-0.7358961 z m 0.05927,2.1978105 c 0.385234,0 0.691446,-0.1284114 0.928513,-0.2864562 L 95.376443,3.0423625 c -0.217311,0.1382892 -0.444501,0.2271894 -0.730957,0.2271894 -0.498829,0 -0.884063,-0.2765784 -0.933452,-0.8198574 h 1.891599 c 0.0099,-0.064206 0.01976,-0.1531059 0.01976,-0.246945 0,-0.6766293 -0.40499,-1.1260692 -1.096436,-1.1260692 -0.642057,0 -1.224847,0.4741344 -1.224847,1.2544806 0,0.8001018 0.572913,1.2643584 1.293992,1.2643584 z m 3.343636,0 c 0.261762,0 0.419807,-0.049389 0.642057,-0.1432281 L 98.478073,3.1510183 c -0.162984,0.074083 -0.311151,0.1086558 -0.44944,0.1086558 -0.286456,0 -0.474134,-0.148167 -0.474134,-0.4988289 V 0.0197557 h -1.25942 V 0.350662 h 0.85443 v 2.3805498 c 0,0.5679735 0.281517,0.8643075 0.790224,0.8643075 z m 1.24955,0.6321792 h 2.370677 V 3.8770366 h -2.370677 z m 4.148677,-0.6321792 c 0.63218,0 1.18534,-0.4593177 1.18534,-1.2544806 0,-0.8050407 -0.55316,-1.2643584 -1.18534,-1.2643584 -0.63218,0 -1.18534,0.4593177 -1.18534,1.2643584 0,0.7951629 0.55316,1.2544806 1.18534,1.2544806 z m 0,-0.3358452 c -0.45932,0 -0.76553,-0.3704175 -0.76553,-0.9186354 0,-0.5531568 0.30621,-0.9285132 0.76553,-0.9285132 0.45932,0 0.76553,0.3753564 0.76553,0.9285132 0,0.5482179 -0.30621,0.9186354 -0.76553,0.9186354 z m 3.06212,0.3358452 c 0.57291,0 1.08656,-0.4790733 1.08656,-1.2989307 0,-0.740835 -0.35067,-1.2199083 -0.99766,-1.2199083 -0.28152,0 -0.58773,0.1432281 -0.80504,0.3654786 h -0.0148 l 0.0148,-0.4642566 V 0.0197557 h -0.40499 v 3.5164968 h 0.32597 l 0.0346,-0.2667006 h 0.0148 c 0.22719,0.2024949 0.51365,0.3259674 0.74578,0.3259674 z m -0.0642,-0.3407841 c -0.17286,0 -0.42474,-0.079022 -0.65193,-0.2815173 V 1.7780041 c 0.24694,-0.246945 0.49389,-0.3605397 0.70626,-0.3605397 0.47907,0 0.67663,0.3556008 0.67663,0.8840631 0,0.592668 -0.31115,0.9532077 -0.73096,0.9532077 z m 2.40525,1.3532586 c 0.77541,0 1.00753,-0.4198065 1.00753,-1.0124745 V 1.1359471 h -1.52118 v 0.3309063 h 1.11619 v 2.1582993 c 0,0.4099287 -0.12841,0.6519348 -0.60748,0.6519348 -0.18274,0 -0.37536,-0.049389 -0.54822,-0.1333503 l -0.13335,0.3012729 c 0.19262,0.093839 0.43462,0.1629837 0.68651,0.1629837 z m 0.76059,-3.9758145 c 0.18274,0 0.32597,-0.1234725 0.32597,-0.3160896 0,-0.1876782 -0.14323,-0.31608959700317 -0.32597,-0.31608959700317 -0.18274,0 -0.32597,0.12841139700317 -0.32597,0.31608959700317 0,0.1926171 0.14323,0.3160896 0.32597,0.3160896 z m 2.81517,0.7655295 c 0.40993,0 0.68157,0.2420061 0.71614,0.7358961 h -1.53106 c 0.0741,-0.4741344 0.41981,-0.7358961 0.81492,-0.7358961 z m 0.0593,2.1978105 c 0.38523,0 0.69145,-0.1284114 0.92851,-0.2864562 L 113.1565,3.0423625 c -0.21732,0.1382892 -0.44451,0.2271894 -0.73096,0.2271894 -0.49883,0 -0.88406,-0.2765784 -0.93345,-0.8198574 h 1.89159 c 0.01,-0.064206 0.0198,-0.1531059 0.0198,-0.246945 0,-0.6766293 -0.40499,-1.1260692 -1.09644,-1.1260692 -0.64205,0 -1.22484,0.4741344 -1.22484,1.2544806 0,0.8001018 0.57291,1.2643584 1.29399,1.2643584 z m 3.04236,0 c 0.3556,0 0.68651,-0.1382892 0.95321,-0.3753564 l -0.18274,-0.2617617 c -0.19756,0.1679226 -0.4445,0.3012729 -0.74083,0.3012729 -0.55316,0 -0.92358,-0.3704175 -0.92358,-0.9186354 0,-0.5531568 0.3803,-0.9285132 0.93345,-0.9285132 0.25189,0 0.45932,0.1037169 0.65688,0.2765784 l 0.20249,-0.2617617 c -0.19755,-0.1926171 -0.48401,-0.3506619 -0.87418,-0.3506619 -0.72602,0 -1.33845,0.4593177 -1.33845,1.2643584 0,0.7951629 0.56304,1.2544806 1.31375,1.2544806 z m 3.20041,0 c 0.30127,0 0.5334,-0.064206 0.75071,-0.1432281 l -0.0889,-0.296334 c -0.17286,0.064206 -0.35066,0.1086558 -0.57785,0.1086558 -0.46425,0 -0.60748,-0.2271894 -0.60748,-0.6568737 V 1.4668534 h 1.18039 V 1.1359471 H 118.0954 V 0.3654787 h -0.33585 l -0.0543,0.7704684 -0.69144,0.024694 v 0.3062118 h 0.67663 v 1.135947 c 0,0.592668 0.22719,0.9927189 0.92851,0.9927189 z m 2.49909,-1.7681262 c 0.22225,0 0.40005,-0.1679226 0.40005,-0.4148676 0,-0.2518839 -0.1778,-0.4198065 -0.40005,-0.4198065 -0.22225,0 -0.40005,0.1679226 -0.40005,0.4198065 0,0.246945 0.1778,0.4148676 0.40005,0.4148676 z m 0,1.7681262 c 0.22225,0 0.40005,-0.1679226 0.40005,-0.4148676 0,-0.2518839 -0.1778,-0.4198065 -0.40005,-0.4198065 -0.22225,0 -0.40005,0.1679226 -0.40005,0.4198065 0,0.246945 0.1778,0.4148676 0.40005,0.4148676 z m 2.8942,0 c 0.60254,0 1.16558,-0.3852342 1.16558,-1.0668024 0,-0.6815682 -0.47907,-0.98778 -1.08162,-0.98778 -0.24201,0 -0.40005,0.049389 -0.58279,0.1284114 l 0.084,-0.9334521 h 1.4224 V 0.3852343 h -1.78294 l -0.10372,1.5162423 0.21732,0.1382892 c 0.22225,-0.1234725 0.38029,-0.1926171 0.64205,-0.1926171 0.4692,0 0.77541,0.2568228 0.77541,0.691446 0,0.4395621 -0.3556,0.7210794 -0.8001,0.7210794 -0.42475,0 -0.68157,-0.1728615 -0.889,-0.3605397 l -0.2025,0.2667006 c 0.24201,0.2173116 0.57291,0.4296843 1.13595,0.4296843 z m 2.03483,0.691446 h 1.36807 v -4.247454 h -1.36807 v 0.2321283 h 1.0421 V 4.054837 h -1.0421 z"
     id="text3"
     aria-label="[ModelLoader.cpp:create_model_object:5]" />
  <path
     style="font-weight:bold;font-size:4.9389px;line-height:1.1;font-family:'Source Code Pro';-inkscape-font-specification:'Source Code Pro';text-align:center;text-anchor:middle;fill:#e5c07b;stroke-linecap:square;stroke-miterlimit:35.2;stroke-opacity:0.988235;paint-order:stroke fill markers"
     d="M 0.4296842,3.884445 H 1.1853359 L 1.3730141,2.8867872 c 0.039511,-0.2024949 0.064206,-0.4198065 0.083961,-0.6124236 h 0.014817 c 0.00988,0.1926171 0.049389,0.4099287 0.0889,0.6124236 L 1.7483705,3.884445 H 2.5287167 L 2.9238287,0.66428216 H 2.217566 l -0.0889,1.71379834 C 2.118788,2.6447811 2.1138491,2.8917261 2.1089102,3.1880601 H 2.0891546 C 2.0397656,2.8917261 1.9854377,2.6447811 1.9311098,2.3780805 L 1.7286149,1.4792007 H 1.2643583 L 1.0470467,2.3780805 C 0.9927188,2.64972 0.933452,2.896665 0.8890019,3.1880601 H 0.8692463 C 0.8643074,2.896665 0.8593685,2.6546589 0.8544296,2.3780805 L 0.7556516,0.66428216 H -9.8342891e-8 Z M 4.1486779,2.254608 C 4.2326392,1.9335795 4.3215394,1.5582231 4.4005618,1.217439 h 0.019756 c 0.074083,0.3407841 0.1728615,0.7161405 0.2568228,1.037169 l 0.074083,0.296334 H 4.0745944 Z M 2.9880364,3.884445 h 0.740835 L 3.9264274,3.1189155 H 4.8993907 L 5.0920078,3.884445 H 5.8624761 L 4.8598795,0.66428216 H 3.9906331 Z m 3.2646148,0 H 6.9786695 V 2.7238035 H 7.3589648 L 7.9763273,3.884445 H 8.7912458 L 8.0652275,2.5953921 C 8.4060116,2.4422862 8.6381399,2.1410133 8.6381399,1.6668789 c 0,-0.76552954 -0.5630346,-1.00259674 -1.2446028,-1.00259674 H 6.2526512 Z M 6.9786695,2.1459522 V 1.2421335 h 0.3556008 c 0.3852342,0 0.5877291,0.1086558 0.5877291,0.4247454 0,0.3160896 -0.2024949,0.4790733 -0.5877291,0.4790733 z M 9.1962378,3.884445 H 9.8926227 V 2.7435591 c 0,-0.3802953 -0.069145,-0.8099796 -0.1037169,-1.1655804 h 0.019756 L 10.08524,2.2793025 10.761869,3.884445 h 0.745774 V 0.66428216 H 10.811258 V 1.8051681 c 0,0.3802953 0.06914,0.8297352 0.103717,1.1705193 h -0.01976 L 10.618641,2.2644858 9.9420117,0.66428216 H 9.1962378 Z"
     id="text2"
     aria-label="WARN" />
</svg>
