<?xml version="1.0" encoding="UTF-8" standalone="no"?>
<!-- Created with Inkscape (http://www.inkscape.org/) -->

<svg
   width="253.05521mm"
   height="107.85926mm"
   viewBox="0 0 253.05521 107.85925"
   version="1.1"
   id="svg1"
   xml:space="preserve"
   xmlns="http://www.w3.org/2000/svg"
   xmlns:svg="http://www.w3.org/2000/svg"><defs
     id="defs1"><marker
       style="overflow:visible"
       id="ArrowWide"
       refX="0"
       refY="0"
       orient="auto-start-reverse"
       markerWidth="1"
       markerHeight="1"
       viewBox="0 0 1 1"
       preserveAspectRatio="xMidYMid"><path
         style="fill:none;stroke:context-stroke;stroke-width:1;stroke-linecap:butt"
         d="M 3,-3 0,0 3,3"
         transform="rotate(180,0.125,0)"
         id="path1" /></marker></defs><g
     id="g29"><rect
       style="font-variation-settings:'wght' 600;fill:#282d3f;fill-opacity:1;stroke:#bcbdd0;stroke-width:1;stroke-linecap:square;stroke-linejoin:round;stroke-miterlimit:35.2;stroke-dasharray:none;stroke-opacity:0.988235;paint-order:stroke fill markers"
       id="rect17"
       width="76.444"
       height="14.707373"
       x="197.90356"
       y="203.472"
       ry="0"
       transform="translate(-21.792355,-118.17342)" /><path
       style="font-size:5.27305px;line-height:1.1;font-family:'Open Sans';-inkscape-font-specification:'Open Sans, Normal';white-space:pre;inline-size:88.2818;fill:#bcbdd0;stroke-width:120;stroke-linecap:square;stroke-linejoin:round;stroke-miterlimit:35.2;paint-order:stroke fill markers"
       d="m 30.624216,47.32115 -1.351734,3.764257 H 28.832203 L 27.480469,47.32115 h 0.458302 l 0.880558,2.479466 q 0.05407,0.149335 0.09527,0.285795 0.04377,0.136461 0.07724,0.262623 0.03347,0.126162 0.05922,0.2446 0.02575,-0.118438 0.05922,-0.2446 0.03347,-0.128736 0.07724,-0.265197 0.04377,-0.139036 0.09784,-0.290945 l 0.875409,-2.471742 z m 0.877983,0.942352 v 2.821905 h -0.427405 v -2.821905 z m -0.208553,-1.05564 q 0.105564,0 0.180231,0.06952 0.07724,0.06694 0.07724,0.211128 0,0.14161 -0.07724,0.211128 -0.07467,0.06952 -0.180231,0.06952 -0.110713,0 -0.185381,-0.06952 -0.07209,-0.06952 -0.07209,-0.211128 0,-0.144185 0.07209,-0.211128 0.07467,-0.06952 0.185381,-0.06952 z m 2.116429,3.92904 q -0.535544,0 -0.849661,-0.365612 -0.311543,-0.365612 -0.311543,-1.086537 0,-0.728649 0.319267,-1.09941 0.319267,-0.373336 0.849661,-0.373336 0.224002,0 0.391359,0.05922 0.167358,0.05922 0.28837,0.159633 0.121013,0.09784 0.203404,0.224002 h 0.0309 q -0.0103,-0.07982 -0.0206,-0.218852 -0.0103,-0.139036 -0.0103,-0.226577 v -1.130307 h 0.427406 v 4.006282 h -0.345014 l -0.06437,-0.401658 h -0.01802 q -0.07982,0.126162 -0.203404,0.229151 -0.121012,0.10299 -0.290944,0.164783 -0.167358,0.05922 -0.396509,0.05922 z m 0.06694,-0.355313 q 0.453153,0 0.641108,-0.257473 0.187956,-0.257473 0.187956,-0.764695 v -0.07724 q 0,-0.538119 -0.180232,-0.826489 -0.177656,-0.28837 -0.648832,-0.28837 -0.393934,0 -0.589613,0.303818 -0.19568,0.301244 -0.19568,0.823914 0,0.520096 0.193105,0.803317 0.195679,0.28322 0.592188,0.28322 z m 3.241587,-2.569582 q 0.360462,0 0.617936,0.159633 0.257473,0.159634 0.393933,0.448004 0.136461,0.285795 0.136461,0.66943 v 0.265197 h -1.949071 q 0.0077,0.496923 0.247174,0.756971 0.23945,0.260048 0.674579,0.260048 0.267772,0 0.473751,-0.04892 0.205978,-0.04892 0.427405,-0.144185 v 0.375911 q -0.213702,0.09526 -0.42483,0.139035 -0.208554,0.04377 -0.494349,0.04377 -0.406807,0 -0.710626,-0.164783 -0.301243,-0.167357 -0.468601,-0.489199 -0.167357,-0.321841 -0.167357,-0.787868 0,-0.455727 0.151909,-0.787867 0.154484,-0.334716 0.432555,-0.514947 0.280646,-0.180231 0.659131,-0.180231 z m -0.0051,0.350164 q -0.34244,0 -0.545843,0.224001 -0.203404,0.224002 -0.242025,0.62566 h 1.493344 q -0.0026,-0.252324 -0.07982,-0.442854 -0.07467,-0.193105 -0.229151,-0.298669 -0.154484,-0.108138 -0.396508,-0.108138 z m 4.312674,1.107134 q 0,0.347589 -0.09012,0.62051 -0.09012,0.272922 -0.260048,0.460877 -0.169932,0.187956 -0.411957,0.28837 -0.23945,0.09784 -0.543268,0.09784 -0.283221,0 -0.520096,-0.09784 -0.234301,-0.100414 -0.406808,-0.28837 -0.169932,-0.187955 -0.265197,-0.460877 -0.09269,-0.272921 -0.09269,-0.62051 0,-0.463452 0.157058,-0.787868 0.157059,-0.326991 0.448004,-0.496923 0.293519,-0.172507 0.697752,-0.172507 0.386209,0 0.674579,0.172507 0.290945,0.172507 0.450578,0.499498 0.162208,0.324416 0.162208,0.785293 z m -2.147326,0 q 0,0.339865 0.09012,0.589613 0.09012,0.249749 0.278071,0.38621 0.187955,0.136461 0.48405,0.136461 0.293519,0 0.481474,-0.136461 0.19053,-0.136461 0.280646,-0.38621 0.09012,-0.249748 0.09012,-0.589613 0,-0.33729 -0.09012,-0.581889 -0.09012,-0.247174 -0.278071,-0.381061 -0.187955,-0.133886 -0.486624,-0.133886 -0.440279,0 -0.646258,0.290945 -0.203404,0.290945 -0.203404,0.805891 z m 5.043899,2.68287 q -0.556142,0 -0.857385,-0.208553 -0.301244,-0.205979 -0.301244,-0.579315 0,-0.265197 0.167358,-0.453152 0.169932,-0.187956 0.468601,-0.249749 -0.110714,-0.0515 -0.19053,-0.154484 -0.07724,-0.10299 -0.07724,-0.236876 0,-0.154483 0.08497,-0.270346 0.08754,-0.118438 0.265197,-0.226577 -0.221427,-0.09012 -0.360462,-0.303818 -0.136461,-0.216277 -0.136461,-0.502073 0,-0.303818 0.126162,-0.517521 0.126162,-0.216277 0.365612,-0.329565 0.23945,-0.113288 0.579314,-0.113288 0.07467,0 0.149335,0.0077 0.07724,0.0051 0.146759,0.01802 0.06952,0.0103 0.121013,0.02575 h 0.968099 v 0.275496 l -0.520096,0.06437 q 0.07724,0.100414 0.128737,0.242025 0.05149,0.14161 0.05149,0.314117 0,0.422256 -0.285795,0.672005 -0.285795,0.247174 -0.785293,0.247174 -0.118438,0 -0.242025,-0.0206 -0.126162,0.06952 -0.193105,0.154484 -0.06437,0.08497 -0.06437,0.195679 0,0.08239 0.04892,0.131312 0.0515,0.04892 0.14676,0.07209 0.09526,0.0206 0.229151,0.0206 h 0.496923 q 0.460877,0 0.705476,0.193105 0.247175,0.193105 0.247175,0.563866 0,0.468601 -0.381061,0.71835 -0.38106,0.249749 -1.101985,0.249749 z m 0.01287,-0.334715 q 0.350163,0 0.579315,-0.07209 0.231725,-0.06952 0.345014,-0.203404 0.115862,-0.131312 0.115862,-0.314117 0,-0.169933 -0.07724,-0.257474 -0.07724,-0.08497 -0.226576,-0.113288 -0.149334,-0.0309 -0.365612,-0.0309 h -0.489199 q -0.19053,0 -0.33214,0.05922 -0.14161,0.05922 -0.218852,0.175082 -0.07467,0.115863 -0.07467,0.28837 0,0.229151 0.193104,0.347589 0.193105,0.121012 0.550993,0.121012 z m 0.110713,-2.255465 q 0.306393,0 0.460877,-0.154484 0.154484,-0.154483 0.154484,-0.450578 0,-0.316691 -0.157058,-0.47375 -0.157059,-0.159633 -0.463452,-0.159633 -0.293519,0 -0.453153,0.164782 -0.157058,0.162208 -0.157058,0.476326 0,0.28837 0.159633,0.442853 0.159633,0.154484 0.455727,0.154484 z m 3.007287,-1.544838 q 0.504648,0 0.749247,0.226576 0.2446,0.226576 0.2446,0.723499 v 1.918175 h -0.311543 l -0.08239,-0.417106 h -0.0206 q -0.118438,0.154484 -0.247174,0.260048 -0.128737,0.102989 -0.298669,0.157058 -0.167358,0.0515 -0.411957,0.0515 -0.257473,0 -0.458302,-0.09012 -0.198255,-0.09011 -0.314118,-0.272921 -0.113288,-0.182806 -0.113288,-0.463452 0,-0.422256 0.334715,-0.648832 0.334715,-0.226577 1.019594,-0.247174 l 0.486624,-0.0206 v -0.172507 q 0,-0.365612 -0.157058,-0.512372 -0.157059,-0.146759 -0.442854,-0.146759 -0.221427,0 -0.422256,0.06437 -0.200829,0.06437 -0.38106,0.151909 l -0.131312,-0.324416 q 0.19053,-0.09784 0.437705,-0.167358 0.247174,-0.06952 0.520095,-0.06952 z m 0.571591,1.477895 -0.42998,0.01802 q -0.52782,0.0206 -0.744098,0.172507 -0.216277,0.15191 -0.216277,0.429981 0,0.242024 0.146759,0.357887 0.14676,0.115863 0.388785,0.115863 0.375911,0 0.615361,-0.208553 0.23945,-0.208553 0.23945,-0.62566 z m 4.366744,-1.483045 q 0.466026,0 0.702902,0.2446 0.236875,0.242024 0.236875,0.780143 v 1.848657 h -0.422256 v -1.828059 q 0,-0.342439 -0.149334,-0.512372 -0.14676,-0.172507 -0.437705,-0.172507 -0.409382,0 -0.594763,0.236876 -0.18538,0.236875 -0.18538,0.697752 v 1.57831 H 50.71742 v -1.828059 q 0,-0.229151 -0.06694,-0.38106 -0.06437,-0.151909 -0.19568,-0.226577 -0.128736,-0.07724 -0.326991,-0.07724 -0.280645,0 -0.450578,0.115863 -0.169932,0.115863 -0.247174,0.345014 -0.07467,0.226577 -0.07467,0.558717 v 1.493344 h -0.427405 v -2.821905 h 0.345014 l 0.06437,0.399083 h 0.02317 q 0.08497,-0.14676 0.213703,-0.247174 0.128737,-0.100415 0.28837,-0.151909 0.159633,-0.0515 0.339865,-0.0515 0.321841,0 0.538119,0.121012 0.218852,0.118438 0.316691,0.363038 h 0.02317 q 0.139036,-0.2446 0.38106,-0.363038 0.242025,-0.121012 0.530395,-0.121012 z m 2.904295,0 q 0.360463,0 0.617936,0.159633 0.257473,0.159634 0.393934,0.448004 0.136461,0.285795 0.136461,0.66943 v 0.265197 h -1.949072 q 0.0077,0.496923 0.247174,0.756971 0.23945,0.260048 0.67458,0.260048 0.267772,0 0.47375,-0.04892 0.205979,-0.04892 0.427406,-0.144185 v 0.375911 q -0.213703,0.09526 -0.424831,0.139035 -0.208553,0.04377 -0.494348,0.04377 -0.406808,0 -0.710626,-0.164783 -0.301244,-0.167357 -0.468601,-0.489199 -0.167358,-0.321841 -0.167358,-0.787868 0,-0.455727 0.151909,-0.787867 0.154484,-0.334716 0.432555,-0.514947 0.280646,-0.180231 0.659131,-0.180231 z m -0.0051,0.350164 q -0.342439,0 -0.545843,0.224001 -0.203404,0.224002 -0.242025,0.62566 h 1.493344 q -0.0026,-0.252324 -0.07982,-0.442854 -0.07467,-0.193105 -0.229151,-0.298669 -0.154484,-0.108138 -0.396509,-0.108138 z M 59.56677,47.32115 58.166116,51.085407 H 57.74386 l 1.403229,-3.764257 z m 4.302377,3.764257 -0.463452,-1.194675 h -1.508793 l -0.460877,1.194675 h -0.442853 l 1.472746,-3.779705 h 0.393934 l 1.462447,3.779705 z m -0.594763,-1.58346 -0.440279,-1.186951 q -0.01545,-0.04635 -0.0515,-0.151909 -0.03347,-0.105564 -0.06952,-0.218852 -0.03605,-0.113288 -0.05922,-0.182806 -0.02575,0.105564 -0.05664,0.211128 -0.02832,0.102989 -0.05664,0.193105 -0.02832,0.08754 -0.04892,0.149334 l -0.448003,1.186951 z m 2.82963,-1.28994 q 0.52782,0 0.841938,0.363037 0.314117,0.363037 0.314117,1.091686 0,0.481475 -0.144185,0.808466 -0.144185,0.326991 -0.406808,0.494348 -0.260048,0.167358 -0.61536,0.167358 -0.224002,0 -0.393934,-0.05922 -0.169933,-0.05922 -0.290945,-0.159633 -0.121012,-0.100415 -0.200829,-0.218852 h -0.0309 q 0.0077,0.100414 0.01802,0.242024 0.01287,0.141611 0.01287,0.247175 v 1.158629 h -0.42998 v -4.083524 h 0.352738 l 0.05664,0.417106 h 0.0206 q 0.08239,-0.128736 0.200829,-0.2343 0.118438,-0.108139 0.28837,-0.169933 0.172507,-0.06437 0.406807,-0.06437 z m -0.07467,0.360462 q -0.293519,0 -0.47375,0.113289 -0.177657,0.113288 -0.260048,0.339864 -0.08239,0.224002 -0.08754,0.563866 v 0.08239 q 0,0.357887 0.07724,0.605062 0.07982,0.247174 0.260048,0.37591 0.182806,0.128737 0.489199,0.128737 0.262622,0 0.437704,-0.14161 0.175082,-0.14161 0.260048,-0.393934 0.08754,-0.254899 0.08754,-0.584464 0,-0.499498 -0.19568,-0.793017 Q 66.431,48.572467 66.029342,48.572467 Z m 3.300807,-0.360462 q 0.527819,0 0.841937,0.363037 0.314117,0.363037 0.314117,1.091686 0,0.481475 -0.144185,0.808466 -0.144185,0.326991 -0.406808,0.494348 -0.260047,0.167358 -0.61536,0.167358 -0.224002,0 -0.393934,-0.05922 -0.169933,-0.05922 -0.290945,-0.159633 -0.121012,-0.100415 -0.200829,-0.218852 h -0.0309 q 0.0077,0.100414 0.01802,0.242024 0.01287,0.141611 0.01287,0.247175 v 1.158629 h -0.42998 v -4.083524 h 0.352738 l 0.05664,0.417106 h 0.0206 q 0.08239,-0.128736 0.200829,-0.2343 0.118438,-0.108139 0.28837,-0.169933 0.172507,-0.06437 0.406808,-0.06437 z m -0.07467,0.360462 q -0.293519,0 -0.47375,0.113289 -0.177657,0.113288 -0.260048,0.339864 -0.08239,0.224002 -0.08754,0.563866 v 0.08239 q 0,0.357887 0.07724,0.605062 0.07982,0.247174 0.260048,0.37591 0.182806,0.128737 0.489199,0.128737 0.262622,0 0.437704,-0.14161 0.175082,-0.14161 0.260048,-0.393934 0.08754,-0.254899 0.08754,-0.584464 0,-0.499498 -0.19568,-0.793017 -0.193105,-0.296095 -0.594763,-0.296095 z m 2.404796,2.512938 h -0.42998 v -4.006282 h 0.42998 z m 1.328564,-2.821905 v 2.821905 h -0.427405 v -2.821905 z m -0.208553,-1.05564 q 0.105564,0 0.180231,0.06952 0.07724,0.06694 0.07724,0.211128 0,0.14161 -0.07724,0.211128 -0.07467,0.06952 -0.180231,0.06952 -0.110714,0 -0.185381,-0.06952 -0.07209,-0.06952 -0.07209,-0.211128 0,-0.144185 0.07209,-0.211128 0.07467,-0.06952 0.185381,-0.06952 z m 2.24259,3.92904 q -0.381061,0 -0.672005,-0.157059 -0.290945,-0.157058 -0.453153,-0.4789 -0.162208,-0.321841 -0.162208,-0.81104 0,-0.512372 0.169932,-0.836788 0.172507,-0.326991 0.473751,-0.484049 0.301243,-0.157059 0.684878,-0.157059 0.211128,0 0.406808,0.04377 0.198254,0.0412 0.324416,0.105564 l -0.128737,0.357888 q -0.128736,-0.05149 -0.298668,-0.09269 -0.167358,-0.0412 -0.314118,-0.0412 -0.293519,0 -0.489199,0.126162 -0.193104,0.126162 -0.290944,0.370761 -0.09526,0.2446 -0.09526,0.602487 0,0.34244 0.09269,0.584464 0.09526,0.242025 0.280646,0.370762 0.187955,0.126162 0.468601,0.126162 0.224001,0 0.404233,-0.04635 0.180231,-0.04892 0.326991,-0.113288 v 0.38106 q -0.141611,0.07209 -0.316692,0.110714 -0.172507,0.03862 -0.411957,0.03862 z m 2.451143,-2.919745 q 0.504647,0 0.749246,0.226576 0.2446,0.226576 0.2446,0.723499 v 1.918175 h -0.311543 l -0.08239,-0.417106 h -0.0206 q -0.118437,0.154484 -0.247174,0.260048 -0.128737,0.102989 -0.298669,0.157058 -0.167357,0.0515 -0.411957,0.0515 -0.257473,0 -0.458302,-0.09012 -0.198254,-0.09011 -0.314117,-0.272921 -0.113288,-0.182806 -0.113288,-0.463452 0,-0.422256 0.334715,-0.648832 0.334715,-0.226577 1.019593,-0.247174 l 0.486624,-0.0206 v -0.172507 q 0,-0.365612 -0.157058,-0.512372 -0.157059,-0.146759 -0.442854,-0.146759 -0.221427,0 -0.422256,0.06437 -0.200829,0.06437 -0.38106,0.151909 L 76.51622,48.454033 q 0.19053,-0.09784 0.437704,-0.167358 0.247174,-0.06952 0.520096,-0.06952 z m 0.57159,1.477895 -0.42998,0.01802 q -0.52782,0.0206 -0.744098,0.172507 -0.216277,0.15191 -0.216277,0.429981 0,0.242024 0.14676,0.357887 0.146759,0.115863 0.388784,0.115863 0.375911,0 0.615361,-0.208553 0.23945,-0.208553 0.23945,-0.62566 z m 2.214271,1.091686 q 0.105564,0 0.216277,-0.01802 0.110714,-0.01802 0.180231,-0.04377 v 0.33214 q -0.07467,0.03347 -0.208553,0.05664 -0.131311,0.02317 -0.257473,0.02317 -0.224002,0 -0.406808,-0.07724 -0.182805,-0.07982 -0.293519,-0.267772 Q 79.381898,50.60393 79.381898,50.27179 V 48.598215 H 78.98024 v -0.208553 l 0.404233,-0.167358 0.169932,-0.612786 h 0.257473 V 48.2635 h 0.826489 v 0.334715 h -0.826489 v 1.660701 q 0,0.265198 0.121013,0.396509 0.123587,0.131311 0.326991,0.131311 z m 1.395505,-2.523236 v 2.821905 h -0.427405 v -2.821905 z m -0.208553,-1.05564 q 0.105564,0 0.180231,0.06952 0.07724,0.06694 0.07724,0.211128 0,0.14161 -0.07724,0.211128 -0.07467,0.06952 -0.180231,0.06952 -0.110714,0 -0.185381,-0.06952 -0.07209,-0.06952 -0.07209,-0.211128 0,-0.144185 0.07209,-0.211128 0.07467,-0.06952 0.185381,-0.06952 z m 3.545404,2.461443 q 0,0.347589 -0.09012,0.62051 -0.09012,0.272922 -0.260048,0.460877 -0.169932,0.187956 -0.411957,0.28837 -0.23945,0.09784 -0.543268,0.09784 -0.283221,0 -0.520096,-0.09784 -0.234301,-0.100414 -0.406808,-0.28837 -0.169932,-0.187955 -0.265197,-0.460877 -0.09269,-0.272921 -0.09269,-0.62051 0,-0.463452 0.157058,-0.787868 0.157059,-0.326991 0.448004,-0.496923 0.293519,-0.172507 0.697752,-0.172507 0.38621,0 0.674579,0.172507 0.290945,0.172507 0.450578,0.499498 0.162209,0.324416 0.162209,0.785293 z m -2.147326,0 q 0,0.339865 0.09012,0.589613 0.09012,0.249749 0.278071,0.38621 0.187956,0.136461 0.48405,0.136461 0.293519,0 0.481474,-0.136461 0.190531,-0.136461 0.280646,-0.38621 0.09012,-0.249748 0.09012,-0.589613 0,-0.33729 -0.09012,-0.581889 -0.09011,-0.247174 -0.278071,-0.381061 -0.187955,-0.133886 -0.486624,-0.133886 -0.440279,0 -0.646258,0.290945 -0.203403,0.290945 -0.203403,0.805891 z m 4.22256,-1.457298 q 0.502072,0 0.759545,0.247174 0.257473,0.2446 0.257473,0.787868 v 1.838358 h -0.422256 v -1.810036 q 0,-0.352738 -0.162208,-0.52782 -0.159633,-0.175082 -0.491773,-0.175082 -0.468601,0 -0.659132,0.265198 -0.19053,0.265197 -0.19053,0.769844 v 1.477896 H 85.731186 V 48.263502 H 86.0762 l 0.06437,0.406807 h 0.02317 q 0.09011,-0.149334 0.229151,-0.249749 0.139035,-0.102989 0.311542,-0.154484 0.172507,-0.05407 0.363038,-0.05407 z"
       id="text17"
       transform="matrix(0.93662849,0,0,0.93662849,160.21247,46.4414)"
       aria-label="Video game / Application" /></g><path
     style="fill:none;fill-opacity:1;stroke:#bcbdd0;stroke-width:0.499999;stroke-linecap:square;stroke-linejoin:round;stroke-miterlimit:35.2;stroke-dasharray:none;stroke-opacity:0.988235;marker-end:url(#ArrowWide);paint-order:stroke fill markers"
     d="m 163.66476,92.652256 h 11.96749"
     id="path19" /><g
     id="g24"
     transform="translate(-21.792355,-118.17342)"><rect
       style="font-variation-settings:'wght' 600;fill:#282d3f;fill-opacity:1;stroke:#bcbdd0;stroke-width:1;stroke-linecap:square;stroke-linejoin:miter;stroke-miterlimit:35.2;stroke-dasharray:none;stroke-opacity:0.988235;paint-order:stroke fill markers"
       id="rect16"
       width="76.444"
       height="29.414"
       x="108.76311"
       y="196.11868"
       ry="0" /><path
       style="font-size:5.27305px;line-height:1.1;font-family:'Open Sans';-inkscape-font-specification:'Open Sans, Normal';white-space:pre;inline-size:88.2818;fill:#bcbdd0;stroke-width:120;stroke-linecap:square;stroke-linejoin:round;stroke-miterlimit:35.2;paint-order:stroke fill markers"
       d="m 29.650967,51.085407 -1.264193,-3.331702 h -0.0206 q 0.0103,0.105564 0.01802,0.257473 0.0077,0.151909 0.01287,0.33214 0.0052,0.177657 0.0052,0.363037 v 2.379052 H 27.995415 V 47.32115 h 0.648832 l 1.192101,3.130873 h 0.01802 l 1.210124,-3.130873 h 0.643683 v 3.764257 H 31.27562 v -2.409948 q 0,-0.167358 0.0051,-0.334715 0.0052,-0.169933 0.01287,-0.319267 0.0077,-0.151909 0.01545,-0.262623 h -0.0206 l -1.279641,3.326553 z m 4.078375,-2.86825 q 0.504647,0 0.749247,0.226576 0.244599,0.226576 0.244599,0.723499 v 1.918175 h -0.311542 l -0.08239,-0.417106 h -0.0206 q -0.118437,0.154484 -0.247174,0.260048 -0.128736,0.102989 -0.298669,0.157058 -0.167357,0.0515 -0.411957,0.0515 -0.257473,0 -0.458302,-0.09012 -0.198254,-0.09011 -0.314117,-0.272921 -0.113288,-0.182806 -0.113288,-0.463452 0,-0.422256 0.334715,-0.648832 0.334715,-0.226577 1.019593,-0.247174 l 0.486625,-0.0206 v -0.172507 q 0,-0.365612 -0.157059,-0.512372 -0.157059,-0.146759 -0.442854,-0.146759 -0.221427,0 -0.422256,0.06437 -0.200829,0.06437 -0.38106,0.151909 l -0.131311,-0.324416 q 0.19053,-0.09784 0.437704,-0.167358 0.247174,-0.06952 0.520096,-0.06952 z m 0.57159,1.477895 -0.42998,0.01802 q -0.52782,0.0206 -0.744097,0.172507 -0.216278,0.15191 -0.216278,0.429981 0,0.242024 0.14676,0.357887 0.14676,0.115863 0.388784,0.115863 0.375911,0 0.615361,-0.208553 0.23945,-0.208553 0.23945,-0.62566 z m 1.974819,-0.05407 -0.975823,-1.377481 h 0.489199 l 0.744097,1.086536 0.741523,-1.086536 h 0.484049 l -0.975823,1.377481 1.029893,1.444424 h -0.489199 l -0.790443,-1.150905 -0.795592,1.150905 h -0.484049 z m 4.544401,-1.428976 q 0.360462,0 0.617935,0.159633 0.257473,0.159634 0.393934,0.448004 0.136461,0.285795 0.136461,0.66943 V 49.75427 H 40.01941 q 0.0077,0.496923 0.247175,0.756971 0.23945,0.260048 0.674579,0.260048 0.267772,0 0.473751,-0.04892 0.205978,-0.04892 0.427405,-0.144185 v 0.375911 q -0.213703,0.09526 -0.424831,0.139035 -0.208553,0.04377 -0.494348,0.04377 -0.406807,0 -0.710626,-0.164783 -0.301243,-0.167357 -0.468601,-0.489199 -0.167357,-0.321841 -0.167357,-0.787868 0,-0.455727 0.151909,-0.787867 0.154484,-0.334716 0.432555,-0.514947 0.280645,-0.180231 0.659131,-0.18023 z m -0.0052,0.350164 q -0.342439,0 -0.545843,0.224001 -0.203403,0.224002 -0.242024,0.62566 h 1.493344 q -0.0026,-0.252324 -0.07982,-0.442854 -0.07467,-0.193105 -0.229151,-0.298669 -0.154484,-0.108138 -0.396509,-0.108138 z m 3.21584,-0.350164 q 0.502073,0 0.759546,0.247174 0.257473,0.2446 0.257473,0.787868 v 1.838358 H 44.625555 V 49.27537 q 0,-0.352738 -0.162208,-0.52782 -0.159633,-0.175082 -0.491774,-0.175082 -0.468601,0 -0.659131,0.265198 -0.19053,0.265197 -0.19053,0.769844 v 1.477896 h -0.427406 v -2.821905 h 0.345014 l 0.06437,0.406807 h 0.02317 q 0.09012,-0.149334 0.229151,-0.249749 0.139036,-0.102989 0.311543,-0.154484 0.172507,-0.05407 0.363037,-0.05407 z m 2.685444,4.140168 q -0.556142,0 -0.857385,-0.208553 -0.301244,-0.205979 -0.301244,-0.579315 0,-0.265197 0.167358,-0.453152 0.169932,-0.187956 0.468601,-0.249749 -0.110714,-0.0515 -0.19053,-0.154484 -0.07724,-0.10299 -0.07724,-0.236876 0,-0.154483 0.08497,-0.270346 0.08754,-0.118438 0.265197,-0.226577 -0.221427,-0.09012 -0.360462,-0.303818 -0.136461,-0.216277 -0.136461,-0.502073 0,-0.303818 0.126162,-0.517521 0.126162,-0.216277 0.365612,-0.329565 0.23945,-0.113288 0.579314,-0.113288 0.07467,0 0.149335,0.0077 0.07724,0.0051 0.146759,0.01802 0.06952,0.0103 0.121013,0.02575 h 0.968099 v 0.275496 l -0.520096,0.06437 q 0.07724,0.100414 0.128737,0.242025 0.05149,0.14161 0.05149,0.314117 0,0.422256 -0.285795,0.672005 -0.285795,0.247174 -0.785293,0.247174 -0.118438,0 -0.242025,-0.0206 -0.126162,0.06952 -0.193105,0.154484 -0.06437,0.08497 -0.06437,0.195679 0,0.08239 0.04892,0.131312 0.0515,0.04892 0.14676,0.07209 0.09527,0.0206 0.229151,0.0206 h 0.496923 q 0.460877,0 0.705476,0.193105 0.247174,0.193105 0.247174,0.563866 0,0.468601 -0.38106,0.71835 -0.38106,0.249749 -1.101985,0.249749 z m 0.01287,-0.334715 q 0.350163,0 0.579314,-0.07209 0.231726,-0.06952 0.345014,-0.203404 0.115863,-0.131312 0.115863,-0.314117 0,-0.169933 -0.07724,-0.257474 -0.07724,-0.08497 -0.226576,-0.113288 -0.149334,-0.0309 -0.365612,-0.0309 H 46.61067 q -0.19053,0 -0.33214,0.05922 -0.14161,0.05922 -0.218852,0.175082 -0.07467,0.115863 -0.07467,0.28837 0,0.229151 0.193104,0.347589 0.193105,0.121012 0.550994,0.121012 z m 0.110713,-2.255465 q 0.306393,0 0.460877,-0.154484 0.154484,-0.154483 0.154484,-0.450578 0,-0.316691 -0.157059,-0.47375 -0.157058,-0.159633 -0.463451,-0.159633 -0.29352,0 -0.453153,0.164782 -0.157058,0.162208 -0.157058,0.476326 0,0.28837 0.159633,0.442853 0.159633,0.154484 0.455727,0.154484 z m 2.379053,-1.498493 v 2.821905 H 48.79152 v -2.821905 z m -0.208553,-1.05564 q 0.105564,0 0.180231,0.06952 0.07724,0.06694 0.07724,0.211128 0,0.14161 -0.07724,0.211128 -0.07467,0.06952 -0.180231,0.06952 -0.110714,0 -0.185381,-0.06952 -0.07209,-0.06952 -0.07209,-0.211128 0,-0.144185 0.07209,-0.211128 0.07467,-0.06952 0.185381,-0.06952 z m 2.44857,1.004145 q 0.502072,0 0.759545,0.247174 0.257474,0.2446 0.257474,0.787868 v 1.838358 H 52.053652 V 49.27537 q 0,-0.352738 -0.162208,-0.52782 -0.159634,-0.175082 -0.491774,-0.175082 -0.468601,0 -0.659131,0.265198 -0.190531,0.265197 -0.190531,0.769844 v 1.477896 h -0.427405 v -2.821905 h 0.345014 l 0.06437,0.406807 h 0.02317 q 0.09012,-0.149334 0.229151,-0.249749 0.139036,-0.102989 0.311543,-0.154484 0.172507,-0.05407 0.363037,-0.05407 z m 2.984113,0 q 0.360462,0 0.617935,0.159633 0.257473,0.159634 0.393934,0.448004 0.136461,0.285795 0.136461,0.66943 V 49.75427 H 53.64226 q 0.0077,0.496923 0.247174,0.756971 0.23945,0.260048 0.67458,0.260048 0.267772,0 0.473751,-0.04892 0.205978,-0.04892 0.427405,-0.144185 v 0.375911 q -0.213703,0.09526 -0.424831,0.139035 -0.208553,0.04377 -0.494348,0.04377 -0.406808,0 -0.710626,-0.164783 -0.301244,-0.167357 -0.468601,-0.489199 -0.167358,-0.321841 -0.167358,-0.787868 0,-0.455727 0.15191,-0.787867 0.154483,-0.334716 0.432554,-0.514947 0.280646,-0.180231 0.659132,-0.18023 z m -0.0052,0.350164 q -0.342439,0 -0.545843,0.224001 -0.203404,0.224002 -0.242025,0.62566 h 1.493345 q -0.0026,-0.252324 -0.07982,-0.442854 -0.07467,-0.193105 -0.229151,-0.298669 -0.154484,-0.108138 -0.396509,-0.108138 z"
       id="text16"
       transform="matrix(0.9366285,0,0,0.9366285,107.84022,164.2003)"
       aria-label="Max engine" /></g><g
     id="g26"><path
       style="fill:none;fill-opacity:1;stroke:#bcbdd0;stroke-width:0.499999;stroke-linecap:square;stroke-linejoin:round;stroke-miterlimit:35.2;stroke-dasharray:none;stroke-opacity:0.988235;marker-end:url(#ArrowWide);paint-order:stroke fill markers"
       d="m 127.87415,183.6769 v 11.96749"
       id="path20"
       transform="translate(-21.792355,-118.17342)" /><g
       id="g22"
       transform="translate(-21.792355,-118.17342)"><rect
         style="font-variation-settings:'wght' 600;fill:#282d3f;fill-opacity:1;stroke:#bcbdd0;stroke-width:1;stroke-linecap:square;stroke-linejoin:miter;stroke-miterlimit:35.2;stroke-dasharray:none;stroke-opacity:0.988235;paint-order:stroke fill markers"
         id="rect24"
         width="38.222084"
         height="14.707373"
         x="108.76311"
         y="168.71953"
         ry="0" /><path
         style="font-size:5.27305px;line-height:1.1;font-family:'Open Sans';-inkscape-font-specification:'Open Sans, Normal';white-space:pre;inline-size:88.2818;fill:#bcbdd0;stroke-width:120;stroke-linecap:square;stroke-linejoin:round;stroke-miterlimit:35.2;paint-order:stroke fill markers"
         d="m 30.119568,50.083837 q 0,0.334715 -0.167357,0.57159 -0.164783,0.234301 -0.463452,0.357888 -0.298669,0.123587 -0.702901,0.123587 -0.213703,0 -0.404233,-0.0206 -0.19053,-0.0206 -0.350164,-0.05922 -0.159633,-0.03862 -0.280645,-0.09526 v -0.419681 q 0.193104,0.07982 0.471175,0.149334 0.278071,0.06694 0.58189,0.06694 0.28322,0 0.4789,-0.07467 0.195679,-0.07724 0.296094,-0.218852 0.102989,-0.144185 0.102989,-0.345014 0,-0.193105 -0.08497,-0.321841 -0.08497,-0.131312 -0.283221,-0.236876 -0.195679,-0.108138 -0.535544,-0.229151 -0.23945,-0.08497 -0.422256,-0.18538 -0.182806,-0.10299 -0.306393,-0.231726 -0.123587,-0.128737 -0.187955,-0.298669 -0.06179,-0.169932 -0.06179,-0.388785 0,-0.301243 0.15191,-0.514946 0.154483,-0.216277 0.42483,-0.329565 0.272922,-0.115863 0.62566,-0.115863 0.301244,0 0.556142,0.05664 0.257473,0.05664 0.471176,0.151909 l -0.136461,0.375911 q -0.203404,-0.08497 -0.432555,-0.141611 -0.226576,-0.05664 -0.468601,-0.05664 -0.242025,0 -0.409382,0.07209 -0.164783,0.06952 -0.252324,0.198254 -0.08754,0.128737 -0.08754,0.306393 0,0.198254 0.08239,0.329566 0.08497,0.131311 0.267772,0.2343 0.18538,0.100415 0.489199,0.211128 0.33214,0.121013 0.563866,0.257473 0.231726,0.133886 0.352738,0.329566 0.121012,0.193105 0.121012,0.491774 z m 1.833209,1.053065 q -0.38106,0 -0.672005,-0.157059 -0.290944,-0.157058 -0.453153,-0.4789 -0.162208,-0.321841 -0.162208,-0.81104 0,-0.512372 0.169933,-0.836788 0.172507,-0.326991 0.47375,-0.484049 0.301244,-0.157059 0.684879,-0.157059 0.211128,0 0.406807,0.04377 0.198255,0.0412 0.324416,0.105564 l -0.128736,0.357888 q -0.128737,-0.05149 -0.298669,-0.09269 -0.167358,-0.0412 -0.314117,-0.0412 -0.29352,0 -0.489199,0.126162 -0.193105,0.126162 -0.290945,0.370761 -0.09527,0.2446 -0.09527,0.602487 0,0.34244 0.09269,0.584464 0.09527,0.242025 0.280646,0.370762 0.187956,0.126162 0.468601,0.126162 0.224002,0 0.404233,-0.04635 0.180231,-0.04892 0.326991,-0.113288 v 0.38106 q -0.14161,0.07209 -0.316692,0.110714 -0.172507,0.03862 -0.411957,0.03862 z m 2.67772,-2.924895 q 0.08497,0 0.177657,0.0103 0.09269,0.0077 0.164783,0.02317 l -0.05407,0.396508 q -0.06952,-0.01802 -0.154484,-0.02832 -0.08497,-0.0103 -0.159633,-0.0103 -0.169932,0 -0.321841,0.06952 -0.149335,0.06694 -0.262623,0.19568 -0.113288,0.126161 -0.177656,0.306393 -0.06437,0.177656 -0.06437,0.396508 v 1.513942 h -0.42998 v -2.821905 h 0.355313 l 0.04634,0.520095 h 0.01802 q 0.08754,-0.157058 0.211128,-0.285795 0.123587,-0.131311 0.285796,-0.208553 0.164782,-0.07724 0.365611,-0.07724 z m 1.30024,0.0515 v 2.821905 h -0.427406 v -2.821905 z m -0.208553,-1.05564 q 0.105564,0 0.180231,0.06952 0.07724,0.06694 0.07724,0.211128 0,0.14161 -0.07724,0.211128 -0.07467,0.06952 -0.180231,0.06952 -0.110714,0 -0.185381,-0.06952 -0.07209,-0.06952 -0.07209,-0.211128 0,-0.144185 0.07209,-0.211128 0.07467,-0.06952 0.185381,-0.06952 z m 2.43827,1.004145 q 0.52782,0 0.841937,0.363037 0.314117,0.363037 0.314117,1.091686 0,0.481475 -0.144185,0.808466 -0.144185,0.326991 -0.406807,0.494348 -0.260048,0.167358 -0.615361,0.167358 -0.224002,0 -0.393934,-0.05922 -0.169932,-0.05922 -0.290945,-0.159633 -0.121012,-0.100415 -0.200829,-0.218852 h -0.0309 q 0.0077,0.100414 0.01802,0.242024 0.01287,0.141611 0.01287,0.247175 v 1.158629 h -0.42998 v -4.083524 h 0.352738 l 0.05664,0.417106 h 0.0206 q 0.08239,-0.128736 0.200829,-0.2343 0.118438,-0.108139 0.28837,-0.169933 0.172507,-0.06437 0.406808,-0.06437 z m -0.07467,0.360462 q -0.29352,0 -0.473751,0.113289 -0.177656,0.113288 -0.260048,0.339864 -0.08239,0.224002 -0.08754,0.563866 v 0.08239 q 0,0.357887 0.07724,0.605062 0.07982,0.247174 0.260048,0.37591 0.182806,0.128737 0.489199,0.128737 0.262623,0 0.437704,-0.14161 0.175082,-0.14161 0.260048,-0.393934 0.08754,-0.254899 0.08754,-0.584464 0,-0.499498 -0.195679,-0.793017 -0.193105,-0.296095 -0.594763,-0.296095 z m 2.886274,2.214269 q 0.105564,0 0.216278,-0.01802 0.110713,-0.01802 0.180231,-0.04377 v 0.33214 q -0.07467,0.03347 -0.208553,0.05664 -0.131312,0.02317 -0.257474,0.02317 -0.224001,0 -0.406807,-0.07724 -0.182806,-0.07982 -0.29352,-0.267772 -0.108138,-0.187956 -0.108138,-0.520096 V 48.598217 H 39.69242 v -0.208553 l 0.404232,-0.167358 0.169933,-0.612786 h 0.257473 v 0.653982 h 0.826489 v 0.334715 h -0.826489 v 1.660701 q 0,0.265198 0.121012,0.396509 0.123587,0.131311 0.326991,0.131311 z m 2.793584,-0.47375 q 0,0.270347 -0.136461,0.455727 -0.133886,0.182806 -0.38621,0.275497 -0.249749,0.09269 -0.597338,0.09269 -0.296094,0 -0.512371,-0.04635 -0.216278,-0.04634 -0.378486,-0.131312 v -0.393933 q 0.172507,0.08497 0.411957,0.154483 0.23945,0.06952 0.489199,0.06952 0.365612,0 0.530395,-0.118437 0.164783,-0.118438 0.164783,-0.321842 0,-0.115863 -0.06694,-0.203404 -0.06437,-0.09011 -0.218852,-0.172507 -0.154484,-0.08497 -0.427406,-0.18538 -0.270347,-0.10299 -0.468601,-0.203404 -0.195679,-0.102989 -0.303818,-0.249749 -0.105564,-0.14676 -0.105564,-0.38106 0,-0.357888 0.28837,-0.548418 0.290944,-0.193105 0.76212,-0.193105 0.254899,0 0.476326,0.0515 0.224001,0.04892 0.417106,0.133886 l -0.144185,0.342439 q -0.175082,-0.07467 -0.373336,-0.126162 -0.198254,-0.05149 -0.404233,-0.05149 -0.296094,0 -0.455727,0.09784 -0.157059,0.09784 -0.157059,0.267772 0,0.131312 0.07209,0.216278 0.07467,0.08497 0.236875,0.159633 0.162208,0.07467 0.427405,0.175082 0.265198,0.09784 0.458302,0.203404 0.193105,0.102989 0.296095,0.252323 0.105564,0.14676 0.105564,0.378486 z"
         id="path24"
         transform="matrix(0.9366285,0,0,0.9366285,94.381972,129.45024)"
         aria-label="Scripts" /></g><path
       style="fill:none;fill-opacity:1;stroke:#bcbdd0;stroke-width:0.499999;stroke-linecap:square;stroke-linejoin:round;stroke-miterlimit:35.2;stroke-dasharray:none;stroke-opacity:0.988235;marker-end:url(#ArrowWide);paint-order:stroke fill markers"
       d="m 127.87415,156.21108 v 11.96749"
       id="path21"
       transform="translate(-21.792355,-118.17342)" /><g
       id="g14"
       transform="translate(34.956724,-132.87838)"><path
         style="font-weight:bold;font-size:6.77964px;line-height:1.1;font-family:'Open Sans';-inkscape-font-specification:'Open Sans Bold';white-space:pre;inline-size:88.2818;fill:#bcbdd0;stroke-width:120;stroke-linecap:square;stroke-linejoin:round;stroke-miterlimit:35.2;paint-order:stroke fill markers"
         d="m 32.105057,48.619181 q 0,0.817661 -0.314485,1.367183 -0.311175,0.546211 -0.903731,0.824282 -0.592557,0.274761 -1.42677,0.274761 h -1.370494 v -4.839762 h 1.51946 q 0.761386,0 1.320839,0.27145 0.559452,0.26814 0.867317,0.797799 0.307864,0.526349 0.307864,1.304287 z m -1.065939,0.02648 q 0,-0.53628 -0.158898,-0.880559 -0.155587,-0.347589 -0.463452,-0.513108 -0.304554,-0.165518 -0.754765,-0.165518 h -0.546211 v 3.151473 h 0.440279 q 0.751455,0 1.115596,-0.400555 0.367451,-0.400555 0.367451,-1.191733 z m 3.515614,-1.33077 q 0.513108,0 0.883869,0.198623 0.370762,0.195312 0.572694,0.569384 0.201933,0.374072 0.201933,0.913662 v 0.489935 H 33.82645 q 0.01655,0.427038 0.254899,0.672005 0.241657,0.241657 0.668695,0.241657 0.35421,0 0.648833,-0.07283 0.294623,-0.07283 0.605798,-0.218484 v 0.781247 q -0.274761,0.135726 -0.576005,0.198623 -0.297933,0.0629 -0.724971,0.0629 -0.556143,0 -0.986491,-0.205243 -0.427038,-0.205243 -0.672005,-0.62566 -0.241657,-0.420418 -0.241657,-1.059319 0,-0.648833 0.218484,-1.079181 0.221795,-0.433659 0.615729,-0.648833 0.393934,-0.218485 0.916973,-0.218486 z m 0.0066,0.718351 q -0.294623,0 -0.489935,0.188691 -0.192002,0.188691 -0.221795,0.592557 h 1.416839 q -0.0033,-0.225106 -0.08276,-0.400555 -0.07614,-0.17545 -0.231726,-0.278071 -0.152278,-0.102622 -0.390624,-0.102622 z m 3.353406,3.052162 -1.410219,-3.700995 h 1.056009 l 0.71504,2.108707 q 0.05959,0.185381 0.09269,0.390624 0.03641,0.205243 0.04966,0.367451 h 0.02648 q 0.0099,-0.17545 0.04635,-0.374072 0.03972,-0.198622 0.102622,-0.384003 l 0.711729,-2.108707 h 1.056009 l -1.410218,3.700995 z m 4.502105,-3.770513 q 0.513107,0 0.883869,0.198623 0.370761,0.195312 0.572694,0.569384 0.201933,0.374072 0.201933,0.913662 v 0.489935 h -2.386778 q 0.01655,0.427038 0.254899,0.672005 0.241657,0.241657 0.668694,0.241657 0.35421,0 0.648833,-0.07283 0.294623,-0.07283 0.605798,-0.218484 v 0.781247 q -0.274761,0.135726 -0.576004,0.198623 -0.297934,0.0629 -0.724972,0.0629 -0.556142,0 -0.98649,-0.205243 -0.427038,-0.205243 -0.672006,-0.62566 -0.241657,-0.420418 -0.241657,-1.059319 0,-0.648833 0.218485,-1.079181 0.221795,-0.433659 0.615729,-0.648833 0.393934,-0.218485 0.916973,-0.218486 z m 0.0066,0.718351 q -0.294623,0 -0.489935,0.188691 -0.192001,0.188691 -0.221794,0.592557 h 1.416838 q -0.0033,-0.225106 -0.08276,-0.400555 -0.07614,-0.17545 -0.231726,-0.278071 -0.152277,-0.102622 -0.390624,-0.102622 z m 3.482511,3.052162 H 44.896332 V 45.93447 h 1.009663 z m 4.422655,-1.857118 q 0,0.463452 -0.125794,0.820972 -0.122484,0.35752 -0.36083,0.605798 -0.235037,0.244967 -0.569384,0.370762 -0.331037,0.125794 -0.748144,0.125794 -0.390624,0 -0.718351,-0.125794 -0.324416,-0.125795 -0.566073,-0.370762 -0.238347,-0.248278 -0.370762,-0.605798 -0.129104,-0.35752 -0.129104,-0.820972 0,-0.615729 0.218484,-1.042767 0.218485,-0.427038 0.62235,-0.648833 0.403865,-0.221795 0.963318,-0.221795 0.519728,0 0.920283,0.221795 0.403866,0.221795 0.632281,0.648833 0.231726,0.427038 0.231726,1.042767 z m -2.558917,0 q 0,0.364141 0.07945,0.612419 0.07945,0.248278 0.248278,0.374072 0.168829,0.125794 0.440279,0.125794 0.26814,0 0.433659,-0.125794 0.168829,-0.125794 0.244967,-0.374072 0.07945,-0.248278 0.07945,-0.612419 0,-0.367451 -0.07945,-0.609108 -0.07614,-0.244968 -0.244967,-0.367451 -0.168829,-0.122484 -0.440279,-0.122484 -0.400555,0 -0.582626,0.274761 -0.17876,0.27476 -0.17876,0.824282 z m 5.452183,-1.913395 q 0.62566,0 1.009663,0.486625 0.387313,0.486625 0.387313,1.42677 0,0.628971 -0.18207,1.059319 -0.182071,0.427038 -0.503177,0.645522 -0.321106,0.218485 -0.738212,0.218485 -0.26814,0 -0.460142,-0.06621 -0.192001,-0.06952 -0.327727,-0.175449 -0.135725,-0.109243 -0.235036,-0.231726 h -0.05297 q 0.02648,0.132414 0.03972,0.27145 0.01324,0.139036 0.01324,0.27145 v 1.492978 h -1.009663 v -5.329698 h 0.820972 l 0.142346,0.480004 h 0.04635 q 0.09931,-0.148967 0.241657,-0.274761 0.142346,-0.125794 0.340968,-0.198622 0.201933,-0.07614 0.466763,-0.07614 z m -0.324417,0.807731 q -0.264829,0 -0.420417,0.109242 -0.155587,0.109243 -0.228415,0.327727 -0.06952,0.218485 -0.07614,0.552832 v 0.109242 q 0,0.35752 0.06621,0.605798 0.06952,0.248278 0.228416,0.377383 0.162208,0.129104 0.44359,0.129104 0.231726,0 0.380692,-0.129104 0.148967,-0.129105 0.221795,-0.377383 0.07614,-0.251588 0.07614,-0.612418 0,-0.542901 -0.168829,-0.817662 -0.168829,-0.274761 -0.523039,-0.274761 z m 4.081688,-0.807731 q 0.513108,0 0.883869,0.198623 0.370762,0.195312 0.572694,0.569384 0.201933,0.374072 0.201933,0.913662 v 0.489935 h -2.386777 q 0.01655,0.427038 0.254898,0.672005 0.241657,0.241657 0.668695,0.241657 0.35421,0 0.648833,-0.07283 0.294623,-0.07283 0.605798,-0.218484 v 0.781247 q -0.274761,0.135726 -0.576005,0.198623 -0.297933,0.0629 -0.724971,0.0629 -0.556142,0 -0.986491,-0.205243 -0.427038,-0.205243 -0.672005,-0.62566 -0.241657,-0.420418 -0.241657,-1.059319 0,-0.648833 0.218484,-1.079181 0.221795,-0.433659 0.615729,-0.648833 0.393935,-0.218485 0.916973,-0.218486 z m 0.0066,0.718351 q -0.294623,0 -0.489935,0.188691 -0.192002,0.188691 -0.221795,0.592557 h 1.416839 q -0.0033,-0.225106 -0.08276,-0.400555 -0.07614,-0.17545 -0.231726,-0.278071 -0.152277,-0.102622 -0.390624,-0.102622 z m 4.538518,-0.718351 q 0.07614,0 0.17545,0.0099 0.102621,0.0066 0.165518,0.01986 l -0.07614,0.946766 q -0.04966,-0.01655 -0.142346,-0.02317 -0.08938,-0.0099 -0.155588,-0.0099 -0.195311,0 -0.380692,0.04966 -0.182071,0.04966 -0.327727,0.162208 -0.145656,0.109242 -0.231726,0.291313 -0.08276,0.17876 -0.08276,0.440279 v 1.883601 H 59.45859 v -3.700995 h 0.764695 l 0.148967,0.62235 h 0.04966 q 0.109242,-0.188691 0.27145,-0.344279 0.165519,-0.158897 0.374072,-0.251588 0.211864,-0.096 0.456831,-0.096 z m 3.595064,2.67147 q 0,0.377382 -0.17876,0.638902 -0.17545,0.258209 -0.526349,0.393934 -0.3509,0.132415 -0.873938,0.132415 -0.387314,0 -0.665385,-0.04966 -0.274761,-0.04966 -0.556142,-0.165518 V 50.10222 q 0.301244,0.135725 0.645522,0.225105 0.347589,0.08607 0.609108,0.08607 0.294623,0 0.420418,-0.08607 0.129104,-0.08938 0.129104,-0.231726 0,-0.09269 -0.05297,-0.165518 -0.04966,-0.07614 -0.218484,-0.168829 -0.168829,-0.096 -0.52966,-0.248278 -0.347589,-0.145656 -0.572694,-0.294623 -0.221795,-0.148967 -0.331037,-0.350899 -0.105932,-0.205243 -0.105932,-0.519729 0,-0.513107 0.397245,-0.771316 0.400554,-0.26152 1.069249,-0.26152 0.344279,0 0.655454,0.06952 0.314485,0.06952 0.645522,0.221795 l -0.304554,0.728282 q -0.274761,-0.119174 -0.519728,-0.195312 -0.241657,-0.07614 -0.493245,-0.07614 -0.221795,0 -0.334348,0.05959 -0.112553,0.05959 -0.112553,0.18207 0,0.08938 0.05628,0.158898 0.05959,0.06952 0.225105,0.155588 0.168829,0.08276 0.493245,0.215174 0.314486,0.129104 0.546212,0.27145 0.231726,0.139036 0.35752,0.347589 0.125794,0.205243 0.125795,0.53297 z"
         id="path25"
         transform="matrix(0.9366285,0,0,0.9366285,27.474013,119.23114)"
         aria-label="Developers" /><path
         id="path26"
         style="opacity:1;fill:#bcbdd0;fill-opacity:1;stroke:#bcbdd0;stroke-width:0.499999;stroke-linecap:square;stroke-linejoin:round;stroke-miterlimit:35.2;stroke-dasharray:none;stroke-opacity:0.988235;paint-order:stroke fill markers"
         d="m 71.122776,133.12838 a 9.512455,9.512455 0 0 0 -9.512598,9.5126 9.512455,9.512455 0 0 0 6.642488,9.0563 11.743847,11.743847 0 0 0 -8.424809,8.19071 h 22.594487 a 11.743847,11.743847 0 0 0 -8.427392,-8.19175 9.512455,9.512455 0 0 0 6.639904,-9.05526 9.512455,9.512455 0 0 0 -9.51208,-9.5126 z" /></g></g><g
     id="g28"><path
       style="fill:none;fill-opacity:1;stroke:#bcbdd0;stroke-width:0.499999;stroke-linecap:square;stroke-linejoin:round;stroke-miterlimit:35.2;stroke-dasharray:none;stroke-opacity:0.988235;marker-end:url(#ArrowWide);paint-order:stroke fill markers"
       d="m 76.952355,161.65742 -3.02e-4,34.25903"
       id="path27"
       transform="translate(-21.792355,-118.17342)" /><path
       style="fill:none;fill-opacity:1;stroke:#bcbdd0;stroke-width:0.5;stroke-linecap:square;stroke-linejoin:round;stroke-miterlimit:35.2;stroke-dasharray:none;stroke-opacity:0.988235;paint-order:stroke fill markers"
       d="M 105.70999,43.483898 55.16,43.484"
       id="path28" /></g><g
     id="g23"
     transform="translate(-21.792355,-118.17342)"><path
       style="fill:none;fill-opacity:1;stroke:#bcbdd0;stroke-width:0.499999;stroke-linecap:square;stroke-linejoin:round;stroke-miterlimit:35.2;stroke-dasharray:none;stroke-opacity:0.988235;marker-end:url(#ArrowWide);paint-order:stroke fill markers"
       d="M 96.313095,203.74869 H 108.28059"
       id="path22" /><g
       id="g21"
       style="stroke-width:1;stroke-dasharray:none"><rect
         style="font-variation-settings:'wght' 600;fill:#282d3f;fill-opacity:1;stroke:#bcbdd0;stroke-width:1;stroke-linecap:square;stroke-linejoin:miter;stroke-miterlimit:35.2;stroke-dasharray:none;stroke-opacity:0.988235;paint-order:stroke fill markers"
         id="rect15"
         width="38.222084"
         height="14.707373"
         x="57.841011"
         y="196.395"
         ry="0" /><path
         style="font-size:5.27305px;line-height:1.1;font-family:'Open Sans';-inkscape-font-specification:'Open Sans, Normal';white-space:pre;inline-size:88.2818;fill:#bcbdd0;stroke-width:1.06766;stroke-linecap:square;stroke-linejoin:round;stroke-miterlimit:35.2;stroke-dasharray:none;paint-order:stroke fill markers"
         d="m 30.843068,47.32115 v 2.435696 q 0,0.399083 -0.162208,0.710626 -0.159634,0.311542 -0.48405,0.491773 -0.324416,0.177657 -0.813615,0.177657 -0.697752,0 -1.063364,-0.378486 -0.363037,-0.378485 -0.363037,-1.011869 V 47.32115 h 0.440279 v 2.438271 q 0,0.4789 0.252324,0.738948 0.254898,0.260047 0.759546,0.260047 0.345014,0 0.563866,-0.123587 0.221427,-0.126162 0.326991,-0.350163 0.108138,-0.226577 0.108138,-0.522671 V 47.32115 Z m 0.996421,3.764257 V 47.32115 h 0.437704 v 3.764257 z"
         id="text15"
         transform="matrix(0.93662849,0,0,0.93662849,48.743618,157.63938)"
         aria-label="UI" /></g><path
       style="fill:none;fill-opacity:1;stroke:#bcbdd0;stroke-width:0.499999;stroke-linecap:square;stroke-linejoin:round;stroke-miterlimit:35.2;stroke-dasharray:none;stroke-opacity:0.988235;marker-end:url(#ArrowWide);paint-order:stroke fill markers"
       d="M 45.375452,203.74869 H 57.342947"
       id="path23" /><path
       style="font-weight:bold;font-size:6.77964px;line-height:1.1;font-family:'Open Sans';-inkscape-font-specification:'Open Sans Bold';white-space:pre;inline-size:97.857;fill:#bcbdd0;stroke-width:120;stroke-linecap:square;stroke-linejoin:round;stroke-miterlimit:35.2;paint-order:stroke fill markers"
       d="M 31.052359,51.085407 30.70146,49.933398 h -1.764428 l -0.350899,1.152009 h -1.105664 l 1.708151,-4.859625 h 1.254631 l 1.714772,4.859625 z m -0.595867,-2.012705 -0.350899,-1.125527 q -0.0331,-0.112552 -0.08938,-0.288002 -0.05297,-0.17876 -0.109242,-0.36083 -0.05297,-0.185381 -0.08607,-0.321106 -0.0331,0.135725 -0.09269,0.337657 -0.05628,0.198623 -0.109242,0.377383 -0.05297,0.17876 -0.07614,0.254898 l -0.347589,1.125527 z m 4.296862,-1.757808 q 0.07614,0 0.17545,0.0099 0.102622,0.0066 0.165519,0.01986 l -0.07614,0.946766 q -0.04966,-0.01655 -0.142346,-0.02317 -0.08938,-0.0099 -0.155587,-0.0099 -0.195312,0 -0.380693,0.04966 -0.18207,0.04966 -0.327727,0.162208 -0.145656,0.109242 -0.231726,0.291313 -0.08276,0.17876 -0.08276,0.440279 v 1.883601 h -1.009663 v -3.700995 h 0.764695 l 0.148967,0.62235 h 0.04966 q 0.109242,-0.188691 0.27145,-0.344279 0.165519,-0.158897 0.374072,-0.251588 0.211864,-0.096 0.456831,-0.096 z m 2.572159,3.0323 q 0.165518,0 0.321106,-0.0331 0.158898,-0.0331 0.314485,-0.08276 v 0.751455 q -0.162208,0.07283 -0.403865,0.119173 -0.238347,0.04966 -0.523039,0.04966 -0.331037,0 -0.595867,-0.105932 -0.261519,-0.109242 -0.413796,-0.374072 -0.148967,-0.26814 -0.148967,-0.744834 v -1.78429 h -0.483314 v -0.427038 l 0.556142,-0.337657 0.291313,-0.781248 h 0.645522 v 0.787868 h 1.036147 v 0.758075 h -1.036147 v 1.78429 q 0,0.211864 0.119174,0.317796 0.122484,0.102621 0.321106,0.102621 z m 2.393398,-2.962782 v 3.700995 H 38.709248 V 47.384412 Z M 39.215735,45.93447 q 0.225105,0 0.387313,0.105932 0.162208,0.102621 0.162208,0.387313 0,0.281382 -0.162208,0.390624 -0.162208,0.105932 -0.387313,0.105932 -0.228416,0 -0.390624,-0.105932 -0.158898,-0.109242 -0.158898,-0.390624 0,-0.284692 0.158898,-0.387313 0.162208,-0.105932 0.390624,-0.105932 z m 4.144584,4.051894 q 0,0.377382 -0.17876,0.638902 -0.175449,0.258209 -0.526349,0.393934 -0.350899,0.132415 -0.873938,0.132415 -0.387313,0 -0.665384,-0.04966 -0.274761,-0.04966 -0.556143,-0.165518 v -0.834214 q 0.301244,0.135725 0.645523,0.225105 0.347589,0.08607 0.609108,0.08607 0.294623,0 0.420417,-0.08607 0.129105,-0.08938 0.129105,-0.231726 0,-0.09269 -0.05297,-0.165518 -0.04966,-0.07614 -0.218485,-0.168829 -0.168829,-0.096 -0.529659,-0.248278 -0.347589,-0.145656 -0.572694,-0.294623 -0.221795,-0.148967 -0.331038,-0.350899 -0.105931,-0.205243 -0.105931,-0.519729 0,-0.513107 0.397244,-0.771316 0.400555,-0.26152 1.06925,-0.26152 0.344279,0 0.655454,0.06952 0.314485,0.06952 0.645522,0.221795 l -0.304554,0.728282 q -0.274761,-0.119174 -0.519729,-0.195312 -0.241657,-0.07614 -0.493245,-0.07614 -0.221795,0 -0.334347,0.05959 -0.112553,0.05959 -0.112553,0.18207 0,0.08938 0.05628,0.158898 0.05959,0.06952 0.225106,0.155588 0.168829,0.08276 0.493245,0.215174 0.314485,0.129104 0.546211,0.27145 0.231726,0.139036 0.35752,0.347589 0.125794,0.205243 0.125794,0.53297 z m 2.347054,0.36083 q 0.165518,0 0.321106,-0.0331 0.158897,-0.0331 0.314485,-0.08276 v 0.751455 q -0.162208,0.07283 -0.403865,0.119173 -0.238347,0.04966 -0.523039,0.04966 -0.331037,0 -0.595867,-0.105932 -0.261519,-0.109242 -0.413796,-0.374072 -0.148967,-0.26814 -0.148967,-0.744834 v -1.78429 h -0.483314 v -0.427038 l 0.556142,-0.337657 0.291313,-0.781248 h 0.645522 v 0.787868 h 1.036146 v 0.758075 h -1.036146 v 1.78429 q 0,0.211864 0.119174,0.317796 0.122483,0.102621 0.321106,0.102621 z m 3.965825,-0.36083 q 0,0.377382 -0.17876,0.638902 -0.17545,0.258209 -0.526349,0.393934 -0.350899,0.132415 -0.873938,0.132415 -0.387314,0 -0.665385,-0.04966 -0.274761,-0.04966 -0.556142,-0.165518 v -0.834214 q 0.301244,0.135725 0.645522,0.225105 0.347589,0.08607 0.609109,0.08607 0.294623,0 0.420417,-0.08607 0.129104,-0.08938 0.129104,-0.231726 0,-0.09269 -0.05297,-0.165518 -0.04966,-0.07614 -0.218484,-0.168829 -0.168829,-0.096 -0.52966,-0.248278 -0.347589,-0.145656 -0.572694,-0.294623 -0.221795,-0.148967 -0.331037,-0.350899 -0.105932,-0.205243 -0.105932,-0.519729 0,-0.513107 0.397245,-0.771316 0.400555,-0.26152 1.06925,-0.26152 0.344278,0 0.655453,0.06952 0.314485,0.06952 0.645523,0.221795 l -0.304555,0.728282 q -0.27476,-0.119174 -0.519728,-0.195312 -0.241657,-0.07614 -0.493245,-0.07614 -0.221795,0 -0.334348,0.05959 -0.112552,0.05959 -0.112552,0.18207 0,0.08938 0.05628,0.158898 0.05959,0.06952 0.225105,0.155588 0.168829,0.08276 0.493246,0.215174 0.314485,0.129104 0.546211,0.27145 0.231726,0.139036 0.35752,0.347589 0.125794,0.205243 0.125794,0.53297 z"
       id="text10"
       transform="matrix(0.93662849,0,0,0.93662849,-2.792572,172.97004)"
       aria-label="Artists" /><path
       id="path11"
       style="opacity:1;fill:#bcbdd0;fill-opacity:1;stroke:#bcbdd0;stroke-width:0.499999;stroke-linecap:square;stroke-linejoin:round;stroke-miterlimit:35.2;stroke-dasharray:none;stroke-opacity:0.988235;paint-order:stroke fill markers"
       d="m 20.301678,174.4828 a 9.512455,9.512455 0 0 0 -9.512598,9.5126 9.512455,9.512455 0 0 0 6.642488,9.0563 11.743847,11.743847 0 0 0 -8.4248086,8.19071 H 31.601246 a 11.743847,11.743847 0 0 0 -8.427392,-8.19175 9.512455,9.512455 0 0 0 6.639904,-9.05526 9.512455,9.512455 0 0 0 -9.51208,-9.5126 z"
       transform="translate(13.035587,12.384476)" /><g
       id="g13"
       transform="translate(13.035587,12.384476)" /></g></svg>
