<?xml version="1.0" encoding="UTF-8" standalone="no"?>
<!-- Created with Inkscape (http://www.inkscape.org/) -->

<svg
   width="160.98264mm"
   height="4.6475048mm"
   viewBox="0 0 160.98264 4.6475048"
   version="1.1"
   id="svg1"
   xmlns="http://www.w3.org/2000/svg"
   xmlns:svg="http://www.w3.org/2000/svg">
  <defs
     id="defs1" />
  <path
     d="m 126.29671,4.0523672 h 0.99272 c 0.72602,0 1.21991,-0.3111507 1.21991,-0.9482688 0,-0.444501 -0.27658,-0.7013238 -0.75071,-0.7754073 v -0.019756 c 0.38523,-0.098778 0.56797,-0.3852342 0.56797,-0.7062627 0,-0.5679735 -0.44944,-0.79022399 -1.11125,-0.79022399 h -0.91864 z m 0.40993,-1.876782 V 1.1581718 h 0.45932 c 0.49883,0 0.75565,0.1284114 0.75565,0.4790733 0,0.3605397 -0.22225,0.5383401 -0.77541,0.5383401 z m 0,1.531059 v -1.185336 h 0.52353 c 0.56797,0 0.87418,0.1629837 0.87418,0.5630346 0,0.4395621 -0.32103,0.6223014 -0.87418,0.6223014 z m 3.54613,0.4049898 c 0.63218,0 1.18534,-0.4593177 1.18534,-1.2544806 0,-0.8050407 -0.55316,-1.2643584 -1.18534,-1.2643584 -0.63217,0 -1.18533,0.4593177 -1.18533,1.2643584 0,0.7951629 0.55316,1.2544806 1.18533,1.2544806 z m 0,-0.3358452 c -0.45931,0 -0.76552,-0.3704175 -0.76552,-0.9186354 0,-0.5531568 0.30621,-0.9285132 0.76552,-0.9285132 0.45932,0 0.76553,0.3753564 0.76553,0.9285132 0,0.5482179 -0.30621,0.9186354 -0.76553,0.9186354 z m 2.69665,0.3358452 c 0.37041,0 0.65193,-0.197556 0.89394,-0.4790733 h 0.0198 l 0.0346,0.4198065 h 0.3309 V 1.6520618 h -0.40499 v 1.6644093 c -0.2667,0.3111507 -0.46919,0.444501 -0.74577,0.444501 -0.40005,0 -0.55316,-0.2173116 -0.55316,-0.6716904 V 1.6520618 h -0.40993 v 1.4915478 c 0,0.6321792 0.26176,0.9680244 0.83468,0.9680244 z m 2.20769,-0.059267 h 0.40499 V 2.3780801 c 0.28151,-0.2913951 0.47413,-0.4346232 0.76059,-0.4346232 0.39511,0 0.55315,0.2173116 0.55315,0.6716904 v 1.4372199 h 0.40499 V 2.5608194 c 0,-0.6321792 -0.26176,-0.9680244 -0.82973,-0.9680244 -0.37536,0 -0.65194,0.2024949 -0.90382,0.4691955 h -0.0198 l -0.0346,-0.4099287 h -0.33584 z m 3.84246,0.059267 c 0.29634,0 0.58279,-0.1728615 0.78035,-0.3753564 h 0.0148 l 0.0346,0.3160896 h 0.33584 V 0.53587041 h -0.40499 V 1.4594447 l 0.0198,0.444501 h -0.0148 c -0.20743,-0.197556 -0.42968,-0.3111507 -0.71614,-0.3111507 -0.56797,0 -1.0915,0.4840122 -1.0915,1.2643584 0,0.8001018 0.41487,1.2544806 1.04211,1.2544806 z m 0.084,-0.3407841 c -0.4445,0 -0.70626,-0.345723 -0.70626,-0.9186354 0,-0.5482179 0.33585,-0.9186354 0.75071,-0.9186354 0.20744,0 0.41487,0.079022 0.63218,0.2815173 v 1.1952138 c -0.21237,0.2370672 -0.43956,0.3605397 -0.67663,0.3605397 z m 5.74889,0.2815173 h 0.47907 l 1.02729,-3.23991839 h -0.4198 l -0.51859,1.74837059 c -0.10865,0.3852342 -0.19262,0.691446 -0.31115,1.0717413 h -0.0197 c -0.11854,-0.3802953 -0.19756,-0.6865071 -0.31116,-1.0717413 l -0.52352,-1.74837059 h -0.43462 z m 2.20769,0 h 0.99272 c 0.72601,0 1.2199,-0.3111507 1.2199,-0.9482688 0,-0.444501 -0.27657,-0.7013238 -0.75071,-0.7754073 v -0.019756 c 0.38524,-0.098778 0.56797,-0.3852342 0.56797,-0.7062627 0,-0.5679735 -0.44943,-0.79022399 -1.11125,-0.79022399 h -0.91863 z m 0.40993,-1.876782 V 1.1581718 h 0.45931 c 0.49883,0 0.75566,0.1284114 0.75566,0.4790733 0,0.3605397 -0.22226,0.5383401 -0.77541,0.5383401 z m 0,1.531059 v -1.185336 h 0.52352 c 0.56797,0 0.87418,0.1629837 0.87418,0.5630346 0,0.4395621 -0.32102,0.6223014 -0.87418,0.6223014 z m 3.54613,0.4049898 c 0.73096,0 1.2446,-0.6321792 1.2446,-1.6940427 0,-1.0470468 -0.51364,-1.66440929 -1.2446,-1.66440929 -0.73096,0 -1.2446,0.61736249 -1.2446,1.66440929 0,1.0618635 0.51364,1.6940427 1.2446,1.6940427 z m 0,-0.3605397 c -0.49389,0 -0.81986,-0.5037678 -0.81986,-1.333503 0,-0.8149185 0.32597,-1.3038696 0.81986,-1.3038696 0.49389,0 0.81986,0.4889511 0.81986,1.3038696 0,0.8297352 -0.32597,1.333503 -0.81986,1.333503 z m 2.96334,-1.4075865 c 0.22225,0 0.40005,-0.1679226 0.40005,-0.4148676 0,-0.2518839 -0.1778,-0.4198065 -0.40005,-0.4198065 -0.22225,0 -0.40005,0.1679226 -0.40005,0.4198065 0,0.246945 0.1778,0.4148676 0.40005,0.4148676 z m 0,1.7681262 c 0.22225,0 0.40005,-0.1679226 0.40005,-0.4148676 0,-0.2518839 -0.1778,-0.4198065 -0.40005,-0.4198065 -0.22225,0 -0.40005,0.1679226 -0.40005,0.4198065 0,0.246945 0.1778,0.4148676 0.40005,0.4148676 z m 4.80555,-0.059267 h 2.21757 V 3.7017053 h -1.03717 c -0.18768,0 -0.39017,0.014817 -0.58773,0.029633 0.85937,-0.7803462 1.45204,-1.3680753 1.45204,-1.9607433 0,-0.5580957 -0.39511,-0.92851319 -1.02729,-0.92851319 -0.44451,0 -0.75566,0.19261709 -1.03717,0.47907329 l 0.23213,0.2321283 c 0.20249,-0.2123727 0.45931,-0.3802953 0.75565,-0.3802953 0.46425,0 0.6865,0.2568228 0.6865,0.6173625 0,0.5235234 -0.58773,1.0766802 -1.65453,2.0200101 z"
     id="text4"
     style="font-size:4.9389px;line-height:1.1;font-family:'Source Code Pro';-inkscape-font-specification:'Source Code Pro';text-align:center;text-anchor:middle;fill:#ffffff;stroke-linecap:square;stroke-miterlimit:35.2;stroke-opacity:0.988235;paint-order:stroke fill markers"
     aria-label="Bound VBO: 2" />
  <path
     style="font-size:4.9389px;line-height:1.1;font-family:'Source Code Pro';-inkscape-font-specification:'Source Code Pro';text-align:center;text-anchor:middle;fill:#abb2b4;stroke-linecap:square;stroke-miterlimit:35.2;stroke-opacity:0.988235;paint-order:stroke fill markers"
     d="m 17.743068,4.3264765 h 1.368076 V 4.0943482 H 18.069036 V 0.31115081 h 1.042108 v -0.2321283 h -1.368076 z m 2.281774,-0.7507128 h 0.819857 c 0.953208,0 1.48167,-0.6025458 1.48167,-1.6347759 0,-1.02729119 -0.528462,-1.60514249 -1.501425,-1.60514249 H 20.024842 Z M 20.434771,3.2399185 V 0.67169051 h 0.360539 c 0.740835,0 1.106314,0.45437879 1.106314,1.26929729 0,0.8198574 -0.365479,1.2989307 -1.106314,1.2989307 z M 24.12907,1.43722 c 0.409929,0 0.681568,0.2420061 0.71614,0.7358961 H 23.314151 C 23.388235,1.6989817 23.733958,1.43722 24.12907,1.43722 Z m 0.05927,2.1978105 c 0.385234,0 0.691446,-0.1284114 0.928513,-0.2864562 L 24.968683,3.0818737 c -0.217312,0.1382892 -0.444501,0.2271894 -0.730957,0.2271894 -0.498829,0 -0.884063,-0.2765784 -0.933452,-0.8198574 h 1.891598 c 0.0099,-0.064206 0.01976,-0.1531059 0.01976,-0.246945 0,-0.6766293 -0.40499,-1.1260692 -1.096436,-1.1260692 -0.642057,0 -1.224847,0.4741344 -1.224847,1.2544806 0,0.8001018 0.572912,1.2643584 1.293992,1.2643584 z m 2.528719,-0.059267 h 0.400051 V 1.5063646 h 1.007535 V 1.1754583 H 27.117107 V 0.95814671 c 0,-0.3901731 0.1778,-0.6272403 0.607484,-0.6272403 0.207434,0 0.36054,0.0246945 0.558096,0.1135947 l 0.09384,-0.3062118 C 28.149337,0.04445021 27.922147,1.0681152e-7 27.68508,1.0681152e-7 27.023267,1.0681152e-7 26.717056,0.38523431 26.717056,0.97296341 V 1.1754583 l -0.686507,0.024694 v 0.3062118 h 0.686507 z m 2.983097,0.059267 c 0.340784,0 0.681568,-0.1778004 0.948269,-0.3852342 h 0.01482 l 0.03457,0.3259674 h 0.330906 V 2.1039715 c 0,-0.5976069 -0.31609,-0.98778 -0.972963,-0.98778 -0.419807,0 -0.824797,0.1876782 -1.066803,0.345723 l 0.158045,0.2765784 c 0.222251,-0.1382892 0.528462,-0.2864562 0.839613,-0.2864562 0.464257,0 0.62724,0.2765784 0.637118,0.6025458 -1.239664,0.098778 -1.738493,0.3605397 -1.738493,0.8988798 0,0.4296843 0.365479,0.6815682 0.814919,0.6815682 z m 0.108656,-0.3259674 c -0.276579,0 -0.528463,-0.1135947 -0.528463,-0.3852342 0,-0.3160896 0.31609,-0.5185845 1.343381,-0.6025458 v 0.6321792 c -0.271639,0.2271894 -0.543279,0.3556008 -0.814918,0.3556008 z m 2.854686,0.3259674 c 0.370417,0 0.651934,-0.197556 0.893941,-0.4790733 h 0.01975 l 0.03457,0.4198065 H 33.94267 V 1.1754583 h -0.40499 v 1.6644093 c -0.266701,0.3111507 -0.469196,0.444501 -0.745774,0.444501 -0.400051,0 -0.553157,-0.2173116 -0.553157,-0.6716904 V 1.1754583 h -0.409928 v 1.4915478 c 0,0.6321792 0.261761,0.9680244 0.834674,0.9680244 z m 3.758505,0 c 0.261762,0 0.419807,-0.049389 0.642057,-0.1432281 L 36.96034,3.1905295 c -0.162983,0.074084 -0.31115,0.1086558 -0.44944,0.1086558 -0.286456,0 -0.474134,-0.148167 -0.474134,-0.4988289 V 0.05926691 h -1.259419 v 0.3309063 h 0.854429 V 2.770723 c 0,0.5679735 0.281518,0.8643075 0.790224,0.8643075 z m 2.899135,0 c 0.301273,0 0.533401,-0.064206 0.750713,-0.1432281 l -0.0889,-0.296334 c -0.172862,0.064206 -0.350662,0.1086558 -0.577851,0.1086558 -0.464257,0 -0.607485,-0.2271894 -0.607485,-0.6568737 V 1.5063646 h 1.180397 V 1.1754583 H 38.797612 V 0.40498991 h -0.335845 l -0.05433,0.77046839 -0.691446,0.024694 v 0.3062118 h 0.676629 v 1.135947 c 0,0.592668 0.22719,0.9927189 0.928513,0.9927189 z m 2.523781,0 c 0.711201,0 1.145825,-0.4099287 1.145825,-0.9235743 0,-0.4790733 -0.31609,-0.7013238 -0.716141,-0.8643075 L 41.820221,1.6495927 C 41.543643,1.535998 41.24237,1.4224033 41.24237,1.1112526 c 0,-0.29139509 0.251884,-0.47413439 0.62724,-0.47413439 0.335846,0 0.582791,0.1185336 0.795163,0.3062118 l 0.217312,-0.2667006 c -0.237067,-0.2370672 -0.592668,-0.4000509 -0.997658,-0.4000509 -0.617362,0 -1.061863,0.3654786 -1.061863,0.85936859 0,0.4741344 0.375356,0.7062627 0.701323,0.8346741 l 0.464257,0.2024949 c 0.330906,0.1432281 0.58279,0.2420061 0.58279,0.5877291 0,0.3012729 -0.261762,0.5136456 -0.706263,0.5136456 -0.370417,0 -0.706262,-0.1629837 -0.948268,-0.4049898 l -0.246945,0.2864562 c 0.291395,0.2913951 0.701323,0.4790733 1.175458,0.4790733 z m 1.916296,-0.059267 h 0.40499 V 1.9014766 c 0.281517,-0.2913951 0.474134,-0.4346232 0.76059,-0.4346232 0.395112,0 0.553157,0.2173116 0.553157,0.6716904 v 1.4372199 h 0.40499 V 2.0842159 c 0,-0.6321792 -0.261762,-0.9680244 -0.829735,-0.9680244 -0.375357,0 -0.651935,0.2024949 -0.89888,0.4691955 h -0.01482 l 0.0247,-0.5679735 V 0.05926691 h -0.40499 z m 3.718992,0.059267 c 0.340784,0 0.681568,-0.1778004 0.948269,-0.3852342 h 0.01482 l 0.03457,0.3259674 h 0.330906 V 2.1039715 c 0,-0.5976069 -0.316089,-0.98778 -0.972963,-0.98778 -0.419807,0 -0.824796,0.1876782 -1.066802,0.345723 l 0.158044,0.2765784 c 0.222251,-0.1382892 0.528463,-0.2864562 0.839613,-0.2864562 0.464257,0 0.627241,0.2765784 0.637118,0.6025458 -1.239663,0.098778 -1.738492,0.3605397 -1.738492,0.8988798 0,0.4296843 0.365478,0.6815682 0.814918,0.6815682 z M 47.58886,3.3090631 c -0.276578,0 -0.528462,-0.1135947 -0.528462,-0.3852342 0,-0.3160896 0.316089,-0.5185845 1.34338,-0.6025458 V 2.9534623 C 48.132139,3.1806517 47.860499,3.3090631 47.58886,3.3090631 Z m 2.978157,0.3259674 c 0.296334,0 0.582791,-0.1728615 0.780347,-0.3753564 h 0.01482 l 0.03457,0.3160896 h 0.335845 V 0.05926691 h -0.40499 v 0.9235743 l 0.01976,0.44450099 h -0.01482 c -0.207434,-0.197556 -0.429684,-0.3111507 -0.716141,-0.3111507 -0.567973,0 -1.091496,0.4840122 -1.091496,1.2643584 0,0.8001018 0.414867,1.2544806 1.042107,1.2544806 z m 0.08396,-0.3407841 c -0.444501,0 -0.706263,-0.345723 -0.706263,-0.9186354 0,-0.5482179 0.335845,-0.9186354 0.750713,-0.9186354 0.207434,0 0.414867,0.079022 0.632179,0.2815173 V 2.9337067 C 51.115235,3.1707739 50.888046,3.2942464 50.650979,3.2942464 Z M 53.76249,1.43722 c 0.409929,0 0.681569,0.2420061 0.716141,0.7358961 H 52.947572 C 53.021655,1.6989817 53.367378,1.43722 53.76249,1.43722 Z m 0.05927,2.1978105 c 0.385234,0 0.691446,-0.1284114 0.928513,-0.2864562 L 54.602103,3.0818737 c -0.217311,0.1382892 -0.444501,0.2271894 -0.730957,0.2271894 -0.498829,0 -0.884063,-0.2765784 -0.933452,-0.8198574 h 1.891599 c 0.0099,-0.064206 0.01976,-0.1531059 0.01976,-0.246945 0,-0.6766293 -0.404989,-1.1260692 -1.096435,-1.1260692 -0.642057,0 -1.224848,0.4741344 -1.224848,1.2544806 0,0.8001018 0.572913,1.2643584 1.293992,1.2643584 z m 2.054583,-0.059267 h 0.40499 V 2.1681772 c 0.286456,-0.4988289 0.62724,-0.6865071 0.98778,-0.6865071 0.187678,0 0.276578,0.024694 0.444501,0.083961 l 0.09384,-0.3506619 c -0.148167,-0.074083 -0.296334,-0.098778 -0.474134,-0.098778 -0.444501,0 -0.819858,0.2420061 -1.071742,0.6272403 h -0.01482 L 56.212185,1.1754583 H 55.87634 Z m 2.711457,0 h 2.024949 V 3.2251018 H 59.807705 V 0.68156831 h 0.805041 v -0.345723 h -2.024949 v 0.345723 h 0.805041 V 3.2251018 h -0.805041 z m 2.953467,0 h 0.40499 V 1.9014766 c 0.281517,-0.2913951 0.474134,-0.4346232 0.76059,-0.4346232 0.395112,0 0.553157,0.2173116 0.553157,0.6716904 v 1.4372199 h 0.40499 V 2.0842159 c 0,-0.6321792 -0.261762,-0.9680244 -0.829735,-0.9680244 -0.375357,0 -0.651935,0.2024949 -0.903819,0.4691955 h -0.01976 l -0.03457,-0.4099287 h -0.335845 z m 3.768381,0 h 0.454379 L 66.756743,1.1754583 H 66.36657 l -0.553157,1.3631364 c -0.09878,0.2420061 -0.1778,0.4790733 -0.261762,0.7062627 h -0.01976 C 65.447935,3.017668 65.359034,2.7806008 65.260256,2.5385947 L 64.7071,1.1754583 h -0.409929 z m 3.180653,0.059267 c 0.22225,0 0.400051,-0.1679226 0.400051,-0.4148676 0,-0.2518839 -0.177801,-0.4198065 -0.400051,-0.4198065 -0.222251,0 -0.400051,0.1679226 -0.400051,0.4198065 0,0.246945 0.1778,0.4148676 0.400051,0.4148676 z m 3.190534,0 c 0.355601,0 0.686507,-0.1382892 0.953207,-0.3753564 L 72.4513,2.9979124 c -0.197556,0.1679226 -0.444501,0.3012729 -0.740835,0.3012729 -0.553157,0 -0.923574,-0.3704175 -0.923574,-0.9186354 0,-0.5531568 0.380295,-0.9285132 0.933452,-0.9285132 0.251884,0 0.459318,0.1037169 0.656874,0.2765784 L 72.579712,1.4668534 C 72.382156,1.2742363 72.095699,1.1161915 71.705526,1.1161915 c -0.726018,0 -1.338442,0.4593177 -1.338442,1.2643584 0,0.7951629 0.563035,1.2544806 1.313748,1.2544806 z m 1.713799,0.9532077 h 0.40499 V 3.7782586 l -0.01976,-0.4543788 h 0.01482 c 0.212372,0.197556 0.49389,0.3111507 0.71614,0.3111507 0.577851,0 1.091497,-0.4790733 1.091497,-1.2939918 0,-0.7457739 -0.345723,-1.2248472 -0.992719,-1.2248472 -0.296334,0 -0.607485,0.1531059 -0.829735,0.3654786 h -0.01482 l -0.03457,-0.3062118 h -0.335845 z m 1.047047,-1.2939918 c -0.162984,0 -0.414868,-0.079022 -0.642057,-0.2815173 V 1.8175153 c 0.246945,-0.246945 0.49389,-0.3605397 0.706262,-0.3605397 0.479074,0 0.67663,0.3556008 0.67663,0.8840631 0,0.592668 -0.311151,0.9532077 -0.740835,0.9532077 z m 1.916294,1.2939918 h 0.404989 V 3.7782586 l -0.01976,-0.4543788 h 0.01482 c 0.212373,0.197556 0.49389,0.3111507 0.716141,0.3111507 0.577851,0 1.091497,-0.4790733 1.091497,-1.2939918 0,-0.7457739 -0.345723,-1.2248472 -0.992719,-1.2248472 -0.296334,0 -0.607485,0.1531059 -0.829735,0.3654786 h -0.01482 l -0.03457,-0.3062118 h -0.335845 z m 1.047046,-1.2939918 c -0.162983,0 -0.414867,-0.079022 -0.642057,-0.2815173 V 1.8175153 c 0.246945,-0.246945 0.49389,-0.3605397 0.706263,-0.3605397 0.479073,0 0.676629,0.3556008 0.676629,0.8840631 0,0.592668 -0.31115,0.9532077 -0.740835,0.9532077 z m 2.93865,-1.4273421 c 0.222251,0 0.400051,-0.1679226 0.400051,-0.4148676 0,-0.2518839 -0.1778,-0.4198065 -0.400051,-0.4198065 -0.22225,0 -0.40005,0.1679226 -0.40005,0.4198065 0,0.246945 0.1778,0.4148676 0.40005,0.4148676 z m 0,1.7681262 c 0.222251,0 0.400051,-0.1679226 0.400051,-0.4148676 0,-0.2518839 -0.1778,-0.4198065 -0.400051,-0.4198065 -0.22225,0 -0.40005,0.1679226 -0.40005,0.4198065 0,0.246945 0.1778,0.4148676 0.40005,0.4148676 z m 3.04236,-0.059267 h 0.40499 V 1.1754583 h -1.521182 v 0.3309063 h 1.116192 z m 0.158045,-2.90407319 c 0.182739,0 0.325967,-0.1234725 0.325967,-0.3160896 0,-0.1876782 -0.143228,-0.3160896 -0.325967,-0.3160896 -0.18274,0 -0.325968,0.1284114 -0.325968,0.3160896 0,0.1926171 0.143228,0.3160896 0.325968,0.3160896 z m 1.703928,2.90407319 h 0.40499 V 1.9014766 c 0.281518,-0.2913951 0.474135,-0.4346232 0.760591,-0.4346232 0.395112,0 0.553157,0.2173116 0.553157,0.6716904 v 1.4372199 h 0.404989 V 2.0842159 c 0,-0.6321792 -0.261761,-0.9680244 -0.829735,-0.9680244 -0.375356,0 -0.651935,0.2024949 -0.903818,0.4691955 h -0.01976 l -0.03457,-0.4099287 h -0.335846 z m 4.064716,0 h 0.40499 V 1.1754583 h -1.521182 v 0.3309063 h 1.116192 z m 0.158045,-2.90407319 c 0.182739,0 0.325967,-0.1234725 0.325967,-0.3160896 0,-0.1876782 -0.143228,-0.3160896 -0.325967,-0.3160896 -0.18274,0 -0.325968,0.1284114 -0.325968,0.3160896 0,0.1926171 0.143228,0.3160896 0.325968,0.3160896 z m 3.19053,2.96333999 c 0.301273,0 0.533401,-0.064206 0.750713,-0.1432281 l -0.0889,-0.296334 c -0.172861,0.064206 -0.350661,0.1086558 -0.577851,0.1086558 -0.464256,0 -0.607485,-0.2271894 -0.607485,-0.6568737 V 1.5063646 h 1.180398 V 1.1754583 H 92.137768 V 0.40498991 h -0.335845 l -0.05433,0.77046839 -0.691446,0.024694 v 0.3062118 h 0.67663 v 1.135947 c 0,0.592668 0.227189,0.9927189 0.928513,0.9927189 z m 2.499084,0 c 0.730957,0 1.244603,-0.6321792 1.244603,-1.6940427 0,-1.04704679 -0.513646,-1.66440929 -1.244603,-1.66440929 -0.730957,0 -1.244603,0.6173625 -1.244603,1.66440929 0,1.0618635 0.513646,1.6940427 1.244603,1.6940427 z m 0,-0.3605397 c -0.49389,0 -0.819857,-0.5037678 -0.819857,-1.333503 0,-0.8149185 0.325967,-1.30386959 0.819857,-1.30386959 0.49389,0 0.819857,0.48895109 0.819857,1.30386959 0,0.8297352 -0.325967,1.333503 -0.819857,1.333503 z m 3.062119,0.3605397 c 0.572912,0 1.086558,-0.4790733 1.086558,-1.2989307 0,-0.740835 -0.350662,-1.2199083 -0.997658,-1.2199083 -0.281517,0 -0.587729,0.1432281 -0.805041,0.3654786 h -0.01482 l 0.01482,-0.4642566 V 0.05926691 h -0.40499 V 3.5757637 h 0.325968 l 0.03457,-0.2667006 h 0.01482 c 0.227189,0.2024949 0.513645,0.3259674 0.745774,0.3259674 z m -0.06421,-0.3407841 c -0.172861,0 -0.424745,-0.079022 -0.651935,-0.2815173 V 1.8175153 c 0.246945,-0.246945 0.49389,-0.3605397 0.706263,-0.3605397 0.479073,0 0.676629,0.3556008 0.676629,0.8840631 0,0.592668 -0.31115,0.9532077 -0.730957,0.9532077 z m 2.405241,1.3532586 c 0.77541,0 1.00754,-0.4198065 1.00754,-1.0124745 V 1.1754583 h -1.52118 v 0.3309063 h 1.11619 v 2.1582993 c 0,0.4099287 -0.12841,0.6519348 -0.60748,0.6519348 -0.18274,0 -0.37536,-0.049389 -0.54822,-0.1333503 l -0.133353,0.3012729 c 0.192613,0.093839 0.434623,0.1629837 0.686503,0.1629837 z m 0.76059,-3.97581449 c 0.18274,0 0.32597,-0.1234725 0.32597,-0.3160896 0,-0.1876782 -0.14323,-0.3160896 -0.32597,-0.3160896 -0.18273,0 -0.32596,0.1284114 -0.32596,0.3160896 0,0.1926171 0.14323,0.3160896 0.32596,0.3160896 z M 104.13931,1.43722 c 0.40992,0 0.68156,0.2420061 0.71614,0.7358961 h -1.53106 c 0.0741,-0.4741344 0.4198,-0.7358961 0.81492,-0.7358961 z m 0.0593,2.1978105 c 0.38524,0 0.69145,-0.1284114 0.92852,-0.2864562 l -0.14817,-0.2667006 c -0.21731,0.1382892 -0.4445,0.2271894 -0.73096,0.2271894 -0.49883,0 -0.88406,-0.2765784 -0.93345,-0.8198574 h 1.8916 c 0.01,-0.064206 0.0198,-0.1531059 0.0198,-0.246945 0,-0.6766293 -0.40499,-1.1260692 -1.09643,-1.1260692 -0.64206,0 -1.22485,0.4741344 -1.22485,1.2544806 0,0.8001018 0.57291,1.2643584 1.29399,1.2643584 z m 3.04237,0 c 0.3556,0 0.6865,-0.1382892 0.9532,-0.3753564 L 108.0114,2.9979124 c -0.19755,0.1679226 -0.4445,0.3012729 -0.74083,0.3012729 -0.55316,0 -0.92357,-0.3704175 -0.92357,-0.9186354 0,-0.5531568 0.38029,-0.9285132 0.93345,-0.9285132 0.25188,0 0.45931,0.1037169 0.65687,0.2765784 l 0.2025,-0.2617617 c -0.19756,-0.1926171 -0.48402,-0.3506619 -0.87419,-0.3506619 -0.72602,0 -1.33844,0.4593177 -1.33844,1.2643584 0,0.7951629 0.56303,1.2544806 1.31375,1.2544806 z m 3.2004,0 c 0.30128,0 0.53341,-0.064206 0.75072,-0.1432281 l -0.0889,-0.296334 c -0.17286,0.064206 -0.35067,0.1086558 -0.57785,0.1086558 -0.46426,0 -0.60749,-0.2271894 -0.60749,-0.6568737 V 1.5063646 h 1.1804 V 1.1754583 h -1.1804 V 0.40498991 h -0.33584 l -0.0543,0.77046839 -0.69145,0.024694 v 0.3062118 h 0.67663 v 1.135947 c 0,0.592668 0.22719,0.9927189 0.92851,0.9927189 z m 2.49909,-1.7681262 c 0.22225,0 0.40005,-0.1679226 0.40005,-0.4148676 0,-0.2518839 -0.1778,-0.4198065 -0.40005,-0.4198065 -0.22225,0 -0.40005,0.1679226 -0.40005,0.4198065 0,0.246945 0.1778,0.4148676 0.40005,0.4148676 z m 0,1.7681262 c 0.22225,0 0.40005,-0.1679226 0.40005,-0.4148676 0,-0.2518839 -0.1778,-0.4198065 -0.40005,-0.4198065 -0.22225,0 -0.40005,0.1679226 -0.40005,0.4198065 0,0.246945 0.1778,0.4148676 0.40005,0.4148676 z m 1.96074,-0.059267 h 2.13855 V 3.2399185 h -0.8248 V 0.42474551 h -0.30127 c -0.2025,0.1086558 -0.43957,0.1827393 -0.80998,0.2321283 v 0.2617617 h 0.70626 V 3.2399185 h -0.90876 z m 3.97582,0.059267 c 0.72108,0 1.13101,-0.3704175 1.13101,-0.839613 0,-0.4494399 -0.27164,-0.6469959 -0.61737,-0.8198574 v -0.019756 c 0.26176,-0.1827393 0.47908,-0.4543788 0.47908,-0.7507128 0,-0.48895109 -0.36054,-0.83961299 -0.97791,-0.83961299 -0.56303,0 -0.97296,0.3259674 -0.97296,0.80997959 0,0.3309063 0.21731,0.5729124 0.47907,0.7358961 V 1.93111 c -0.33584,0.1580448 -0.67663,0.4049898 -0.67663,0.839613 0,0.4988289 0.44451,0.8643075 1.15571,0.8643075 z m 0.24694,-1.778004 c -0.46919,-0.148167 -0.83467,-0.3062118 -0.83467,-0.6815682 0,-0.30621179 0.242,-0.50870669 0.59267,-0.50870669 0.41486,0 0.63711,0.246945 0.63711,0.55809569 0,0.2321283 -0.13828,0.444501 -0.39511,0.6321792 z m -0.23706,1.4767311 c -0.48402,0 -0.79517,-0.2518839 -0.79517,-0.6025458 0,-0.3160896 0.23213,-0.5185845 0.53834,-0.6865071 0.55316,0.1876782 0.98778,0.296334 0.98778,0.7358961 0,0.3259674 -0.26176,0.5531568 -0.73095,0.5531568 z m 1.94592,0.9927189 h 1.36808 V 0.07902251 h -1.36808 v 0.2321283 h 1.04211 V 4.0943482 h -1.04211 z"
     id="text3"
     aria-label="[DefaultShaderInv.cpp:initObject:18]" />
  <path
     style="font-weight:bold;font-size:4.9389px;line-height:1.1;font-family:'Source Code Pro';-inkscape-font-specification:'Source Code Pro';text-align:center;text-anchor:middle;fill:#56c6c2;stroke-linecap:square;stroke-miterlimit:35.2;stroke-opacity:0.988235;paint-order:stroke fill markers;fill-opacity:1"
     d="M 0.96308572,3.9338338 H 1.6940429 V 1.3260946 H 2.6571284 V 0.71367104 H 2.2230149e-7 V 1.3260946 H 0.96308572 Z m 2.19287358,0 H 3.8819776 V 2.7731923 H 4.2622729 L 4.8796354,3.9338338 H 5.6945539 L 4.9685356,2.6447809 C 5.3093197,2.491675 5.541448,2.1904021 5.541448,1.7162677 5.541448,0.95073824 4.9784134,0.71367104 4.2968452,0.71367104 H 3.1559593 Z M 3.8819776,2.195341 V 1.2915223 h 0.3556008 c 0.3852342,0 0.5877291,0.1086558 0.5877291,0.4247454 0,0.3160896 -0.2024949,0.4790733 -0.5877291,0.4790733 z M 6.9786698,2.3039968 C 7.0626311,1.9829683 7.1515313,1.6076119 7.2305537,1.2668278 h 0.019756 c 0.074084,0.3407841 0.1728615,0.7161405 0.2568228,1.037169 l 0.074084,0.296334 H 6.9045863 Z m -1.1606415,1.629837 h 0.740835 L 6.7564193,3.1683043 H 7.7293826 L 7.9219997,3.9338338 H 8.6924681 L 7.6898714,0.71367104 H 6.820625 Z m 4.6771407,0.059267 c 0.434623,0 0.795163,-0.1629837 1.056924,-0.4741344 l -0.40005,-0.4395621 c -0.158045,0.1728615 -0.350662,0.2864562 -0.582791,0.2864562 -0.484012,0 -0.8198571,-0.3852342 -0.8198571,-1.0470468 0,-0.6469959 0.3358451,-1.037169 0.7902241,-1.037169 0.237067,0 0.409929,0.093839 0.563035,0.2321283 l 0.40005,-0.4494399 C 11.285393,0.85196024 10.949548,0.65440424 10.539619,0.65440424 c -0.8593687,0 -1.535998,0.62230136 -1.535998,1.68910376 0,1.0816191 0.691446,1.6495926 1.491548,1.6495926 z m 1.659472,-0.059267 h 2.182994 V 3.3214102 h -1.452037 v -0.740835 h 1.190275 V 1.9730905 H 12.885598 V 1.3260946 h 1.402648 V 0.71367104 h -2.133605 z"
     id="text2"
     aria-label="TRACE" />
</svg>
